<?xml version="1.0" standalone="no"?>
<!DOCTYPE svg PUBLIC "-//W3C//DTD SVG 1.1//EN" "http://www.w3.org/Graphics/SVG/1.1/DTD/svg11.dtd" >
<svg xmlns="http://www.w3.org/2000/svg">
<metadata></metadata>
<defs>
<font id="officinasansbookcitalic" horiz-adv-x="1024" >
<font-face units-per-em="2048" ascent="1536" descent="-512" />
<missing-glyph horiz-adv-x="477" />
<glyph horiz-adv-x="2048" />
<glyph horiz-adv-x="2048" />
<glyph unicode="&#xd;" horiz-adv-x="2048" />
<glyph unicode=" "  horiz-adv-x="477" />
<glyph unicode="&#x09;" horiz-adv-x="477" />
<glyph unicode="&#xa0;" horiz-adv-x="477" />
<glyph unicode="!" horiz-adv-x="681" d="M115 109q0 59 39.5 98t97.5 39q62 0 99.5 -43t37.5 -94t-37.5 -94.5t-99.5 -43.5q-58 0 -97.5 39.5t-39.5 98.5zM287.5 551.5q-2.5 8.5 1.5 21.5l127 805q1 10 2.5 14t7.5 7.5t18 3.5h156q26 0 18 -33l-217 -807q-6 -20 -26 -20h-66q-19 0 -21.5 8.5z" />
<glyph unicode="&#x22;" horiz-adv-x="948" d="M332 1450q-2 18 24 18h119q27 0 25 -18l-33 -496q-2 -26 -25 -26h-53q-22 0 -24 26zM635 1450q-2 18 24 18h119q27 0 25 -18l-33 -496q-2 -26 -25 -26h-53q-22 0 -24 26z" />
<glyph unicode="#" horiz-adv-x="1015" d="M14 246l21 100q0 3 8 9.5t12 6.5h146l129 410h-144q-6 0 -8.5 2t-2.5 4t1 6v4l19 101q3 16 22 16h156l129 412q3 9 5 14.5t3 8.5t4 4.5l4 2t6.5 0t7.5 -0.5h93q7 0 10.5 -1.5t3.5 -5.5t-0.5 -6.5t-3 -8.5t-2.5 -7l-129 -412h250l129 412q3 9 5 14.5t3 8.5t4 4.5l4 2 t6.5 0t7.5 -0.5h93q7 0 10.5 -1.5t3.5 -5.5t-0.5 -6.5t-3 -8.5t-2.5 -7l-129 -412h121q6 0 9 -5t1 -11l-19 -101q-2 -5 -9 -10.5t-13 -5.5h-133l-129 -410h131q17 0 12 -16l-20 -100v-2q-1 -3 -1.5 -4l-1.5 -3t-2.5 -3t-3.5 -2.5t-5 -2t-7 -0.5h-145l-113 -364 q-1 -2 -2 -6.5t-2 -6.5t-3 -5.5t-5 -5.5t-8 -3.5t-11 -1.5h-80q-21 0 -23 12q0 6 3 17l113 364h-250l-113 -364q-1 -2 -2 -6.5t-2 -6.5t-3 -5.5t-5 -5.5t-8 -3.5t-11 -1.5h-79q-23 0 -24 14q0 6 3 15l113 364h-131q-6 0 -10.5 6t-2.5 11zM332 362h250l129 410h-250z" />
<glyph unicode="$" d="M70 92q0 6 4 14l49 84q9 15 16 15q4 0 9 -2.5t18.5 -10t26.5 -14.5q60 -31 99 -45.5t85 -15.5l112 534q-61 47 -94.5 77.5t-67.5 73t-48.5 89.5t-14.5 106q0 139 103.5 242.5t269.5 106.5l18 79q2 9 5.5 14t9.5 7t7.5 2h8.5h53q15 0 19 -7t0 -24l-19 -71q101 -11 179 -46 q65 -29 65 -49q0 -8 -6 -14l-53 -86q-8 -8 -19 -8q-13 0 -31 14q-66 51 -163 62l-99 -469q77 -60 120.5 -105t72.5 -110t29 -146q0 -164 -106.5 -278.5t-274.5 -120.5l-23 -111v-5q-1 -4 -1.5 -4.5t-2 -4t-3 -4t-5 -2t-8.5 -2t-11 -0.5h-53q-15 0 -17.5 9.5t1.5 20.5l20 103 q-120 5 -227 57q-53 28 -53 45zM412 989q0 -55 27.5 -98t82.5 -86l86 414q-89 -7 -142.5 -76t-53.5 -154zM479 117q94 18 146.5 92t52.5 168q0 65 -26.5 122t-71.5 93z" />
<glyph unicode="%" horiz-adv-x="1554" d="M141 881q0 197 110.5 331t254.5 134q88 0 147.5 -58t59.5 -180q0 -195 -105.5 -328t-257.5 -133q-18 0 -38 2.5t-52.5 16.5t-57 37t-43 69.5t-18.5 108.5zM274 877q0 -119 91 -119q85 0 150 97t65 257q0 123 -91 123q-85 0 -150 -97.5t-65 -260.5zM360 -14q0 2 9 20 l718 1321q11 19 31 19h88q21 0 21 -17q0 -4 -8 -20l-719 -1319q-12 -19 -35 -19h-84q-21 0 -21 15zM891 203q0 197 106 332t254 135q92 0 151.5 -58t59.5 -184q0 -195 -103.5 -326t-252.5 -131q-93 0 -154 57t-61 175zM1024 201q0 -119 94 -119q81 0 146 96.5t65 257.5 q0 123 -90 123q-84 0 -149.5 -97.5t-65.5 -260.5z" />
<glyph unicode="&#x26;" horiz-adv-x="1216" d="M63 297q0 42 6 80t15 68.5t27.5 60.5t33.5 51.5t44 47t48.5 41.5t57 40t60 37.5t65.5 38.5q-9 15 -32 53.5t-30 51t-22 42.5t-19.5 49t-9 47.5t-4.5 59.5q0 162 112 264.5t287 102.5q141 0 218 -78.5t77 -190.5q0 -38 -9 -76t-34 -86t-65 -93t-106.5 -94t-153.5 -91 l254 -377q69 95 102 201q5 17 9 34.5t6.5 27t5.5 16.5q6 16 24 16h105q22 0 22 -18q0 -8 -27 -82q-68 -188 -174 -308l101 -149q6 -12 6 -16q0 -7 -5 -14t-9 -9l-84 -55q-12 -6 -19 -6q-10 0 -20 16l-84 129l-17 -12q-34 -26 -62 -44t-81.5 -45t-121.5 -42t-144 -15 q-163 0 -258 83.5t-95 242.5zM219 313q0 -95 57.5 -152t163.5 -57q167 0 312 123l16 15l-276 411q-273 -128 -273 -340zM459 1079q0 -37 9.5 -70.5t19 -52.5t35 -61t38.5 -66q72 41 115.5 70.5t85.5 68.5t61 83.5t19 97.5q0 75 -45.5 118.5t-114.5 43.5q-89 0 -156 -64.5 t-67 -167.5z" />
<glyph unicode="'" horiz-adv-x="342" d="M215 1450q-2 18 21 18h126q23 0 21 -18l-31 -496q-2 -15 -5.5 -20.5t-12.5 -5.5h-68q-9 0 -12.5 5.5t-5.5 20.5z" />
<glyph unicode="(" horiz-adv-x="874" d="M213 207q0 364 211 745q137 245 344 461q65 70 82 70q2 0 14 -6l56 -41q12 -8 12 -19q0 -7 -7.5 -16t-29.5 -29.5t-37 -36.5q-70 -71 -167 -215t-163 -280q-77 -160 -114 -320.5t-37 -355.5q0 -69 7 -134t16 -108.5t26 -94.5t26.5 -74t29.5 -66t24 -52q5 -11 11 -22.5 t8.5 -18t2.5 -12.5q0 -18 -18 -28l-51 -29q-14 -8 -25 -8q-35 0 -115 188q-106 256 -106 502z" />
<glyph unicode=")" horiz-adv-x="874" d="M-61 -418q0 7 7 15.5t29 30t37 36.5q70 71 167 215t163 281q77 160 114.5 321t37.5 355q0 69 -7 134t-16 108.5t-26 94t-27 74t-29.5 65.5t-23.5 52q-5 11 -11 22.5t-9 18t-3 12.5q0 19 18 29l52 29q14 8 24 8q35 0 115 -189q106 -256 106 -501q0 -365 -211 -746 q-137 -245 -344 -461q-64 -69 -82 -69q-2 0 -14 6l-55 41q-12 8 -12 18z" />
<glyph unicode="*" d="M291 1114q0 6 4 14l27 84q7 23 24 17l229 -94l-18 249q0 19 21 19h96q20 0 20 -19l-18 -249l219 92q15 6 18 6q12 0 17 -16l28 -84l3 -9t2 -8q0 -5 -2.5 -8t-4.5 -4t-7 -2l-5 -2l-235 -58l155 -184q8 -12 8 -20q0 -4 -2.5 -7t-6.5 -6t-5 -4l-67 -49q-12 -8 -19 -8 q-11 0 -16 10l-129 207l-131 -211q-10 -10 -15 -10q-3 0 -16 8l-70 51q-23 16 -10 31l162 190l-242 60q-14 4 -14 14z" />
<glyph unicode="+" d="M45 471v98q0 25 25 25h366v364q0 25 25 25h98q25 0 25 -25v-364h368q25 0 25 -25v-98q0 -25 -25 -25h-368v-368q0 -25 -25 -25h-98q-25 0 -25 25v368h-366q-25 0 -25 25z" />
<glyph unicode="," horiz-adv-x="417" d="M-96 -201q0 5 4 13l170 413q6 13 11.5 17t19.5 4h174q8 0 14 -4.5t6 -10.5q0 -12 -8 -20l-301 -438q-9 -13 -19 -13q-6 0 -14 4l-43 21q-14 7 -14 14z" />
<glyph unicode="-" horiz-adv-x="606" d="M53 453q-2 11 4 28l19 90q4 25 30 25h424q24 0 17 -33l-21 -96q-4 -17 -11 -21t-19 -4h-422q-19 0 -21 11z" />
<glyph unicode="." horiz-adv-x="606" d="M78 109q0 59 39 98t98 39t98 -39t39 -98t-39.5 -98.5t-97.5 -39.5t-97.5 39.5t-39.5 98.5z" />
<glyph unicode="/" horiz-adv-x="911" d="M-231 -397q0 4 2 7.5t6 8.5t6 8l1063 1825q10 16 35 16h96q20 0 20 -12q0 -7 -10 -22l-1067 -1831q0 -1 -1.5 -2.5t-2 -2.5t-2 -2.5t-2.5 -2t-2.5 -2t-3.5 -2t-4.5 -1.5t-5 -1t-6 -0.5t-7.5 -0.5h-94q-9 0 -14.5 5.5t-5.5 11.5z" />
<glyph unicode="0" d="M88 358q0 332 141 633q170 355 463 355q301 0 301 -390q0 -155 -35.5 -319t-93.5 -291q-90 -197 -211 -286t-254 -89q-311 0 -311 387zM244 346q0 -237 178 -237q182 0 295 260q121 279 121 587q0 252 -181 252q-84 0 -165.5 -66.5t-143.5 -221.5q-46 -117 -75 -277.5 t-29 -296.5z" />
<glyph unicode="1" d="M145 29l17 77q4 21 24 21h201l219 1014l-301 -170q-19 -7 -23 -5.5t-10 11.5l-32 49q-6 9 -3.5 18.5t11.5 14.5l405 246q24 12 39 12h82q19 0 19 -19q0 -3 -1.5 -8.5t-4 -17t-5.5 -25.5l-239 -1120h184q20 0 14 -29l-16 -78q-4 -20 -25 -20h-540q-21 0 -15 29z" />
<glyph unicode="2" d="M29 16q0 39 25.5 118t47.5 122q23 49 51 92t64.5 83t63.5 67.5t74.5 64.5t68 52.5t72.5 52.5l51 37q50 36 84.5 63.5t71.5 64t59 69.5t36.5 73.5t14.5 83.5q0 18 -4.5 37.5t-18 47.5t-48 46t-85.5 18q-89 0 -148 -48.5t-110 -131.5q-5 -8 -10.5 -18t-8 -14t-6 -8.5 t-7 -5.5t-8 -1t-11.5 2l-84 27q-18 7 -18 18q0 8 16 41q25 53 62 100t87.5 88t119 65t145.5 24q63 0 116.5 -15t96.5 -46t67.5 -85t24.5 -125q0 -37 -6 -71.5t-13.5 -62t-24 -57t-29.5 -50t-38 -46.5t-40.5 -41t-47 -40t-47.5 -36.5t-51.5 -37.5t-50.5 -37l-53 -39 q-56 -41 -77 -56t-65 -49.5t-62 -53t-49.5 -51.5t-48 -60.5t-36 -64.5t-33.5 -79h565q23 0 12 -39l-18 -79q-6 -25 -25 -25h-698q-16 0 -16 16z" />
<glyph unicode="3" d="M16 61q0 9 9 27l43 86q3 10 14 10q2 0 41 -20q103 -55 215 -55q78 0 143 28t106.5 74.5t64 105.5t22.5 123q0 191 -228 191h-98q-17 0 -21 6t1 25l18 81q1 6 2.5 10.5t4 7t4 4.5t5 2.5t4.5 0.5h4.5h4.5h74q96 0 171.5 45.5t112.5 112t37 137.5q0 72 -45 108.5t-115 36.5 q-107 0 -217 -88q-5 -4 -14 -11.5t-14.5 -11.5t-11.5 -9t-11 -7t-8 -2q-6 0 -19 13l-53 57q-6 6 -6 12q0 9 20 29q63 69 162 112.5t201 43.5q127 0 207 -71t80 -190q0 -115 -73 -220t-206 -150q182 -62 182 -262q0 -66 -20 -133t-62 -130t-101 -111.5t-144.5 -78 t-184.5 -29.5q-155 0 -260 54q-41 21 -41 36z" />
<glyph unicode="4" d="M41 342q0 7 4 27l14 69q1 8 4 14.5t4.5 9.5t5.5 7.5t5 5.5l706 871q11 13 21.5 14t21.5 -4l93 -21q12 -6 14 -14v-4q0 -4 -6 -10l-697 -848h385l95 327q6 23 26 23h76q16 0 19 -8t-1 -25l-67 -317h166q24 0 18 -31l-18 -84v-4q-1 -5 -1.5 -5.5t-2 -4t-3 -4t-5 -2t-8.5 -2 t-11 -0.5h-166l-63 -297q0 -1 -1 -4.5t-1.5 -5.5t-2 -5.5t-3.5 -5t-5.5 -3t-7.5 -1.5h-106q-21 0 -21 16q0 4 2.5 14.5t3.5 16.5l58 275h-527q-18 0 -18 20z" />
<glyph unicode="5" d="M62.5 33.5q-2.5 11.5 3.5 19.5l24 84q7 21 25 21l43 -13q120 -36 207 -36q105 0 191 57.5t132.5 150t46.5 199.5q0 53 -16 92t-43 59t-56 29t-61 9q-55 0 -118.5 -23t-118.5 -70q-38 -32 -44.5 -35t-25.5 3l-57 20q-21 5 -21 23q0 3 8 30l197 641q7 23 31 23h538 q8 0 12 -1.5t7.5 -9.5t-0.5 -24l-19 -84l-1 -2q-1 -3 -1 -4.5t-1.5 -4t-2.5 -4t-3.5 -3.5t-5 -3t-6 -2t-7.5 -1h-431l-135 -410l4 -4q106 82 232 82q129 0 215 -76.5t86 -235.5q0 -162 -73.5 -290.5t-200.5 -198.5t-283 -70q-65 0 -137.5 13.5t-112.5 29.5q-19 8 -21.5 19.5 z" />
<glyph unicode="6" d="M117 309q0 154 47.5 338.5t134.5 331.5q65 110 138.5 186t148.5 113.5t141 52.5t139 15q93 0 160 -19q16 -4 16 -16q0 -11 -8 -23l-33 -74q-6 -15 -10.5 -19.5t-13.5 -4.5q-6 0 -18 3t-15 3q-40 12 -102 12q-76 0 -144 -28.5t-117 -71t-91.5 -102.5t-69.5 -114t-49 -114 l4 -4q109 127 262 127q56 0 101 -16t83.5 -52.5t60 -104t21.5 -161.5q0 -236 -117 -403q-75 -105 -173 -149t-197 -44q-134 0 -216.5 82.5t-82.5 255.5zM272 293q0 -184 170 -184q79 0 138 42.5t94 106.5q35 60 54.5 146t19.5 157q0 60 -15.5 102.5t-41.5 63t-52 29t-55 8.5 q-130 0 -211 -111q-46 -64 -73.5 -157.5t-27.5 -202.5z" />
<glyph unicode="7" d="M137 6q0 5 8 21l691 1147h-539q-18 0 -18 6q0 24 2 32l16 80q6 25 31 25h700q26 0 19 -35l-9 -37q-2 -13 -14 -31l-717 -1224q0 -1 -1.5 -3.5t-2 -3.5t-2 -3t-2 -3t-2.5 -2.5t-4 -2t-5 -1t-6 -0.5t-7 0.5t-9 1.5l-112 19q-13 4 -15 8q-2 2 -2 6z" />
<glyph unicode="8" d="M47 289q0 180 146 299q101 81 235 112q-182 100 -182 285q0 72 26.5 136t77 114.5t132 80.5t182.5 30q85 0 150.5 -22.5t104 -61t57.5 -84.5t19 -99q0 -170 -149 -286q-65 -52 -160 -93q223 -109 223 -315q0 -60 -18.5 -118.5t-58 -112t-95.5 -94.5t-137 -65t-176 -24 q-180 0 -278.5 84.5t-98.5 233.5zM203 303q0 -84 59.5 -139t181.5 -55q147 0 228.5 78t81.5 186q0 63 -30 112.5t-74 79.5t-111 58q-155 -38 -244 -121q-92 -87 -92 -199zM401 999q0 -138 168 -237q31 16 40.5 20.5t38.5 19.5t39 22t34 22.5t34 26t27.5 27.5t25 32.5 t16.5 35t12.5 40.5t3.5 45q0 63 -43.5 109t-147.5 46q-120 0 -184 -61t-64 -148z" />
<glyph unicode="9" d="M84 35l16 74q1 7 2.5 10.5t6 5.5t12.5 2q4 0 16.5 -4t28.5 -6q54 -8 82 -8q79 0 159 33.5t144 103.5q101 110 180 340l4 12l-4 4q-114 -174 -291 -174q-122 0 -196 90.5t-74 243.5q0 99 28.5 199t75.5 174q138 211 383 211q299 0 299 -330q0 -149 -39 -324.5t-118 -329.5 q-202 -391 -566 -391q-47 0 -94 9q-40 7 -50 18t-5 37zM326 764q0 -96 43 -147.5t123 -51.5q138 0 223 129q86 136 86 318q0 196 -162 196q-155 0 -244 -164q-69 -126 -69 -280z" />
<glyph unicode=":" horiz-adv-x="606" d="M78 109q0 59 39 98t98 39t98 -39t39 -98t-39.5 -98.5t-97.5 -39.5t-97.5 39.5t-39.5 98.5zM227 846q0 58 39.5 97.5t98.5 39.5t98 -39.5t39 -97.5t-39 -97.5t-98 -39.5t-98.5 39.5t-39.5 97.5z" />
<glyph unicode=";" horiz-adv-x="606" d="M-16 -201q0 5 4 13l170 413q6 14 11.5 17.5t18.5 3.5h174q8 0 14.5 -4.5t6.5 -10.5q0 -12 -8 -20l-301 -438q-9 -13 -19 -13q-6 0 -14 4l-43 21q-14 7 -14 14zM242 846q0 58 39 97.5t98 39.5t98 -39.5t39 -97.5t-39 -97.5t-98 -39.5t-98 39.5t-39 97.5z" />
<glyph unicode="&#x3c;" d="M45 471v96q0 24 23 33l827 299q12 6 25 6q12 0 18 -20l33 -94q4 -16 4 -17q0 -13 -19 -18l-659 -236v-4l659 -233q19 -6 19 -21q0 -1 -0.5 -2.5t-1.5 -5t-2 -6.5l-33 -94q-6 -19 -13 -20q-2 -1 -5 -1q-7 0 -25 6l-827 299q-23 9 -23 33z" />
<glyph unicode="=" d="M45 330v98q0 25 25 25h882q25 0 25 -25v-98q0 -25 -25 -25h-882q-25 0 -25 25zM45 610v99q0 11 4.5 17.5t20.5 6.5h882q16 0 20.5 -6.5t4.5 -17.5v-99q0 -24 -25 -24h-882q-25 0 -25 24z" />
<glyph unicode="&#x3e;" d="M49 262q0 15 19 21l659 233v4l-659 236q-19 5 -19 18q0 1 4 17l33 94q6 20 18 20q13 0 25 -6l827 -299q23 -9 23 -33v-96q0 -24 -23 -33l-827 -299q-18 -6 -25 -6q-4 0 -7 1t-5 5.5t-3 6t-3 8.5l-33 94q-1 3 -2 6.5t-1.5 5t-0.5 2.5z" />
<glyph unicode="?" horiz-adv-x="948" d="M199 109q0 59 39.5 98t97.5 39q62 0 99.5 -43t37.5 -94t-37.5 -94.5t-99.5 -43.5q-58 0 -97.5 39.5t-39.5 98.5zM303 1341q-4 12 9 20.5t40 18.5q159 52 269 52q88 0 152.5 -26t97 -69.5t47 -89t14.5 -96.5q0 -155 -113 -262t-280 -133l-41 -195q-3 -20 -25 -20h-100 q-17 0 -17 14q0 7 6 31l52 237q0 2 1 8t1.5 7t2 5t4 5t6.5 4t11 5t15.5 4.5t21.5 6.5l66 19q44 13 78 29t69 44t54.5 72t19.5 101q0 22 -2 38.5t-11.5 41t-26 41t-49 28.5t-77.5 12q-95 0 -197 -37q-47 -16 -55 -16q-14 0 -18 14z" />
<glyph unicode="@" horiz-adv-x="1933" d="M158 369q0 204 77 386t207.5 312.5t311.5 206.5t381 76t353 -71.5t238.5 -209.5t85.5 -324q0 -119 -33 -225.5t-86.5 -181t-120.5 -130t-134.5 -82t-128.5 -26.5q-89 0 -134 53t-40 132h-5q-122 -183 -280 -183q-79 0 -127.5 59.5t-48.5 174.5q0 119 35.5 233t99.5 191 q102 121 242 121q83 0 143 -68l12 -14l21 49q5 12 14 12h98q15 0 11 -22l-101 -469q-6 -30 -6 -35v-19q1 -22 4 -36.5t11 -31.5t25.5 -25.5t43.5 -8.5q56 0 116.5 37t113.5 102t87.5 168t34.5 221q0 225 -142.5 357.5t-395.5 132.5q-184 0 -342.5 -69t-267.5 -186 t-170.5 -273t-61.5 -328q0 -135 38 -246t114.5 -195t200.5 -130t286 -46q99 0 189.5 12.5t169 37.5t120.5 41.5t103 44.5q13 6 24.5 11.5t16 7.5t8.5 3.5t8 1.5q15 0 20 -16l25 -60q13 -30 -31 -55q-52 -27 -130 -56.5t-225 -60t-290 -30.5q-176 0 -321 48t-249 139 t-161 229.5t-57 312.5zM821 342q0 -113 74 -113q45 0 97 39t81 82q50 76 70 174l35 168l-4 4q-66 66 -134 66q-107 0 -168 -164q-51 -149 -51 -256z" />
<glyph unicode="A" horiz-adv-x="1101" d="M-37 18q0 7 8 23l691 1343q1 1 3 5.5t4 6.5t6.5 4.5t10.5 2.5h113q16 0 20 -5.5t6 -21.5l127 -1339q0 -5 1 -14t1 -11q0 -12 -16 -12h-127q-21 0 -23 25l-32 397h-439l-202 -402q-1 -1 -3 -4.5t-3 -5t-3 -4t-4 -3.5t-5 -2t-7 -1h-106q-21 0 -21 18zM385 559h358l-34 455 q-7 86 -7 194h-4q-47 -124 -82 -194z" />
<glyph unicode="B" horiz-adv-x="1105" d="M86 14l291 1368q4 21 24 21h250q51 0 83 -1t79.5 -6t78 -14.5t65.5 -28.5t55 -45.5t33.5 -66.5t13.5 -92q0 -152 -79 -258.5t-204 -153.5v-4q85 -21 137 -91.5t52 -172.5q0 -131 -63 -239.5t-154 -163.5q-41 -25 -83 -39.5t-99 -20t-81.5 -6t-95.5 -0.5h-287q-7 0 -12 4 t-4 10zM274 137h181q32 0 49 1t51 6.5t65.5 21.5t61.5 41q62 50 88.5 121.5t26.5 126.5q0 190 -236 190h-180zM412 782h129q152 0 229 68q59 52 90 121.5t31 130.5q0 43 -12.5 74.5t-30 48t-43.5 26.5t-47 12.5t-47 2.5h-197z" />
<glyph unicode="C" horiz-adv-x="890" d="M106 387q0 184 42.5 383t119.5 346q47 89 103.5 153t115 98.5t112.5 49.5t110 15q152 0 270 -109q22 -22 22 -33q0 -5 -10 -18l-49 -72q-6 -12 -22 -12q-7 0 -14.5 5.5t-19 16t-20.5 17.5q-90 67 -172 67q-185 0 -301 -286q-51 -125 -85 -313t-34 -324q0 -70 16 -122 t37.5 -78t51 -41t48 -18t36.5 -3q87 0 211 86q6 5 15.5 12t14.5 10.5t11 6.5t10 3q13 0 20 -18l31 -70q12 -24 -18 -45q-171 -123 -336 -123q-63 0 -113.5 19.5t-82.5 49.5t-56 72t-36 79.5t-18.5 81t-8 67.5t-1.5 47z" />
<glyph unicode="D" horiz-adv-x="1110" d="M86 31l287 1347q4 25 30 25h199q159 0 229 -16q173 -40 224 -208q24 -77 24 -184q0 -156 -56.5 -366.5t-127.5 -337.5q-86 -153 -214.5 -222t-338.5 -69h-238q-19 0 -19 20q0 5 1 11zM268 137h125q186 0 303 142q95 117 155 334t60 397q0 51 -8.5 91.5t-21.5 67t-35 45.5 t-42.5 29t-52 15.5t-54.5 6.5t-58 1h-131z" />
<glyph unicode="E" horiz-adv-x="978" d="M86 14l291 1368q4 21 24 21h623q27 0 27 -14q0 -9 -9 -23l-47 -96q-3 -7 -6 -8.5t-16 -1.5h-463l-94 -457h401q17 0 20.5 -8.5t-1.5 -22.5l-17 -88q-2 -12 -8.5 -18t-10 -6.5t-12.5 -0.5h-403l-111 -516h494q25 0 25 -14q0 -5 -7 -29l-18 -77q-6 -23 -29 -23h-637 q-7 0 -12 4t-4 10z" />
<glyph unicode="F" horiz-adv-x="944" d="M86 31l287 1347q4 25 30 25h621q23 0 23 -17q0 -3 -3.5 -9.5t-5.5 -10.5l-47 -94q-5 -12 -16 -12h-469l-98 -457h405q16 0 19.5 -8.5t-1.5 -22.5l-18 -88q-1 -9 -3 -13t-8.5 -8t-19.5 -4h-405l-131 -634q-8 -25 -31 -25h-111q-19 0 -19 20q0 5 1 11z" />
<glyph unicode="G" horiz-adv-x="1046" d="M104 410q0 167 39.5 344.5t104.5 312.5q176 365 502 365q97 0 181 -27t126 -66q20 -17 20 -32q0 -6 -14 -27l-45 -63q-13 -19 -25 -19q-4 0 -8 2t-6.5 3.5t-7.5 6.5t-8 7q-98 77 -201 77q-239 0 -369 -307q-59 -142 -90 -305t-31 -305q0 -268 222 -268q81 0 190 34 l92 439h-172q-16 0 -16 14q0 11 6 31l16 61q4 21 25 21h309q6 0 9.5 -1.5t5 -4.5t2 -6.5t-0.5 -8.5t-1.5 -8t-2 -8.5t-2.5 -7.5l-120 -564q-6 -31 -21 -43q-48 -37 -152 -61.5t-182 -24.5q-70 0 -127 16.5t-95.5 43t-67 64.5t-44.5 76t-25.5 84t-12.5 81.5t-3 73.5z" />
<glyph unicode="H" horiz-adv-x="1173" d="M86 31l287 1347q4 25 30 25h111q22 0 16 -31l-120 -575h471l123 581q4 25 30 25h111q17 0 17 -19q0 -5 -1 -12l-284 -1347q-8 -25 -31 -25h-111q-24 0 -18 31l133 628h-471l-133 -634q-8 -25 -31 -25h-111q-19 0 -19 20q0 5 1 11z" />
<glyph unicode="I" horiz-adv-x="690" d="M-35 31l17 71v3q1 3 1 3.5t1 3t1.5 3.5t2 3t2.5 3t3 2.5t4.5 2t5.5 1t7 0.5h187l243 1149h-188q-22 0 -16 31l14 71q4 25 31 25h534q17 0 17 -19q0 -5 -1 -12l-14 -72q-4 -24 -31 -24h-186l-244 -1149h187q24 0 18 -31l-14 -71q-6 -25 -31 -25h-532q-20 0 -20 21 q0 5 1 10z" />
<glyph unicode="J" horiz-adv-x="897" d="M-20 246q0 71 8 110q4 21 10 32t11.5 13t15.5 2h106q14 0 14 -16q0 -7 -2 -13.5t-4 -25.5q-4 -20 -4 -57q0 -182 154 -182q55 0 96.5 20.5t67.5 59.5t41.5 80.5t27.5 97.5l193 909h-365q-16 0 -16 14q0 11 6 31l16 61q4 21 25 21h498q18 0 18 -19q0 -6 -2 -14l-199 -936 q-10 -48 -18.5 -82.5t-26.5 -86t-38 -89t-53 -78.5t-72 -67t-94 -43t-120 -17q-76 0 -134.5 23.5t-92 63t-50.5 87.5t-17 101z" />
<glyph unicode="K" horiz-adv-x="1040" d="M86 31l287 1347q4 25 30 25h111q22 0 16 -31l-133 -631h4l635 678q13 13 19 13q9 0 20 -11l64 -49q14 -9 14 -18t-10 -19l-576 -604l351 -661q8 -12 8 -19q0 -5 -2.5 -8.5t-8.5 -6.5l-6 -3l-104 -56q-9 -4 -16 -4q-12 0 -19 13l-373 735h-4l-147 -696q-8 -25 -31 -25 h-111q-19 0 -19 20q0 5 1 11z" />
<glyph unicode="L" horiz-adv-x="874" d="M86 31l287 1347q4 25 30 25h111q22 0 16 -31l-260 -1229h525q16 0 16 -6q0 -16 -8 -28l-51 -91q-9 -18 -27 -18h-621q-19 0 -19 20q0 5 1 11z" />
<glyph unicode="M" horiz-adv-x="1327" d="M40 15q0 9 5 18l363 1347q3 11 9 16.5t9.5 6t11.5 0.5h109q13 0 19 -3.5t7 -7t2 -14.5l84 -708q3 -20 5 -109h4q13 50 47 109l385 714q1 3 3 8t3 6t4.5 3t8 2h14.5h129q22 0 20 -14l-2 -17l-209 -1347q-1 -9 -2.5 -13t-6.5 -8t-13 -4h-117q-10 0 -14.5 6.5t-4.5 11.5 q0 2 1 7t1 8l191 1048q9 50 14 70l8 35l-4 4q-21 -62 -47 -109l-397 -735q-9 -18 -27 -18h-71q-4 0 -7 0.5t-5 3t-3 3.5t-2.5 4.5t-1.5 4.5t-1 6l-1 4l-76 727q-8 74 -8 117h-4q-11 -84 -18 -117l-254 -1056q-2 -8 -3 -11.5t-8 -8.5t-18 -5h-111q-21 0 -21 15z" />
<glyph unicode="N" horiz-adv-x="1171" d="M82 31l287 1347q4 25 30 25h121q12 0 18 -2t7.5 -4t2 -9t1.5 -10l223 -979q9 -39 21 -153h4q4 77 20 153l209 979q4 25 31 25h90q17 0 17 -19q0 -5 -1 -12l-284 -1347q-8 -25 -31 -25h-105q-7 0 -12 1t-7.5 2.5t-4.5 4.5t-2.5 5t-1 6.5t-0.5 5.5l-236 1040 q-16 76 -16 145h-4q-7 -100 -19 -153l-219 -1032q-8 -25 -31 -25h-90q-19 0 -19 20q0 5 1 11z" />
<glyph unicode="O" horiz-adv-x="1099" d="M106 377q0 176 34 366t100 332q43 92 97.5 161t104 105t105 58t93 27.5t75.5 5.5q71 0 128 -17.5t93.5 -43t63 -65.5t39.5 -74.5t20 -81.5t8.5 -74t1.5 -64q0 -213 -42.5 -407t-117.5 -333q-44 -81 -99.5 -140.5t-103 -89t-101.5 -47t-85.5 -21t-64.5 -3.5 q-68 0 -122.5 16.5t-90 41.5t-62 62.5t-40.5 72t-22 78t-10 72.5t-2 63zM274 360q0 -251 197 -251q54 0 98 17.5t76 51.5t52.5 65.5t43.5 78.5q79 162 119.5 353t40.5 357q0 25 -1 43.5t-5 48t-11.5 50.5t-22 45t-34.5 39.5t-51.5 25.5t-70.5 10q-83 0 -155.5 -53 t-137.5 -194q-63 -139 -100.5 -333.5t-37.5 -353.5z" />
<glyph unicode="P" horiz-adv-x="1058" d="M86 31l287 1347q4 25 30 25h316q35 0 63 -2t63.5 -9t63 -19.5t55 -34.5t45.5 -52.5t29 -75.5t11 -102q0 -128 -54 -241t-133 -177q-115 -94 -332 -94h-163l-121 -571q-8 -25 -31 -25h-111q-19 0 -19 20q0 5 1 11zM395 733h144q159 0 235 68q49 43 78 119.5t29 154.5 q0 53 -12.5 91t-28.5 57t-41 29.5t-41 12t-37 1.5h-213z" />
<glyph unicode="Q" horiz-adv-x="1099" d="M106 399q0 199 40.5 386.5t119.5 330.5q173 316 465 316q64 0 116.5 -15t87 -39t60.5 -59.5t40 -70.5t22.5 -79t11 -78t2.5 -73q0 -285 -96 -572q-35 -107 -75.5 -181t-111.5 -148q49 -59 146 -135q4 -4 15.5 -12.5t18.5 -14t15 -13t12 -14t4 -12.5q0 -4 -1.5 -7.5 t-3.5 -5t-4 -3.5l-3 -2l-94 -52q-6 -6 -21 -6q-31 0 -96 60q-57 57 -106 125h-4q-52 -30 -101.5 -42t-120.5 -12q-65 0 -117 15.5t-87 39.5t-60.5 60.5t-39 72t-22 81.5t-10.5 81t-2 78zM274 381q0 -46 3 -79.5t13 -72t28 -63t50.5 -41t77.5 -16.5q198 0 318 256 q65 141 102 321t37 332q0 46 -2.5 79t-13 73t-28.5 65t-51.5 42t-80.5 17q-187 0 -307 -237q-61 -122 -103.5 -319.5t-42.5 -356.5z" />
<glyph unicode="R" horiz-adv-x="1056" d="M86 31l287 1347q4 25 30 25h306q32 0 50 -0.5t57 -6t64 -15.5t57.5 -31.5t51.5 -51.5t33 -78t14 -108q0 -169 -100 -295.5t-256 -165.5l207 -602q8 -20 8 -24q0 -12 -25 -17l-116 -20q-2 -1 -4 -1q0 1 -2 1q-4 2 -6 1t-4.5 2.5t-3.5 4.5t-3 6t-2.5 7t-2.5 7.5t-3 8.5 l-203 612h-145l-129 -612q-8 -25 -31 -25h-111q-19 0 -19 20q0 5 1 11zM406 774h126q160 0 236 68q45 42 72.5 108.5t27.5 134.5q0 181 -159 181h-199z" />
<glyph unicode="S" horiz-adv-x="948" d="M14 86q0 7 11 25l41 71q1 1 2 3.5t2 4.5t2 4.5t3 4l4 3t5 2.5t6 1q6 0 13 -4t24.5 -15.5t38.5 -23.5q97 -53 199 -53q140 0 213 81.5t73 198.5q0 53 -15.5 97t-45.5 79t-57 58.5t-68 54.5q-4 3 -6.5 4.5t-6 4.5t-6.5 5q-4 3 -13 10q-39 30 -60 47t-54.5 52t-51.5 66 t-32 77.5t-14 97.5q0 58 16.5 113.5t52.5 106t88 88t128.5 60t167.5 22.5q158 0 280 -76q25 -14 25 -29q0 -5 -4 -13l-4 -7l-58 -90q-5 -9 -14 -9q-8 0 -41 21q-101 65 -207 65q-132 0 -197 -73t-65 -177q0 -31 8.5 -57t18.5 -44t38 -44t46.5 -41t64.5 -49q48 -36 76 -59 t66.5 -63t59.5 -77t36.5 -90t15.5 -112q0 -195 -128.5 -316t-334.5 -121q-81 0 -166.5 20.5t-146.5 59.5q-29 19 -29 35z" />
<glyph unicode="T" horiz-adv-x="870" d="M182 1296l17 82q4 25 30 25h795q27 0 27 -14q0 -5 -9 -23l-45 -88q-1 -3 -2.5 -5t-3 -3.5t-2.5 -2t-3 -1t-3 -0.5h-4h-4h-303l-262 -1241q-8 -25 -31 -25h-111q-24 0 -18 31l262 1235h-313q-18 0 -18 19q0 5 1 11z" />
<glyph unicode="U" horiz-adv-x="1224" d="M143 258q0 50 15 127l211 993q4 25 30 25h111q22 0 16 -31l-209 -987q-14 -70 -14 -115q0 -161 213 -161q271 0 328 276l211 993q4 25 30 25h111q17 0 17 -19q0 -5 -1 -12l-208 -987q-10 -45 -20.5 -81t-30.5 -80.5t-45 -78.5t-64 -68t-87 -56t-115.5 -36t-147.5 -14 q-351 0 -351 287z" />
<glyph unicode="V" horiz-adv-x="980" d="M211 1376q0 15 18 17l62 10l53 10q8 1 13.5 2.5t7.5 1.5q18 0 18 -28l31 -1078v-29v-38q-2 -29 -2 -88h4q25 78 59 155l500 1086q10 20 20 20q9 0 21 -4l94 -27q13 -4 16 -10q1 -2 1 -4q0 -7 -5 -22l-645 -1344q-1 -1 -2 -3t-2 -3q-14 -14 -35 -14h-121q-28 0 -30 26 l-74 1346q0 5 -1 9.5t-1 8.5z" />
<glyph unicode="W" horiz-adv-x="1398" d="M209 3v11l27 1344q0 3 -0.5 8.5t0 8t1.5 6.5t4 6t8.5 4.5t14.5 3.5l101 20q8 3 15 3q5 0 9 -2q9 -5 8 -30l-49 -1021q-1 -20 -22 -226h4q40 152 69 226l420 1017q9 21 31 21h92q10 0 15 -0.5t10 -6t4 -16.5l-45 -1026q-3 -78 -19 -200h4q17 84 60 200l405 1041 q7 17 11 19.5t34 -1.5l86 -18q17 -4 17 -17q0 -3 -2.5 -10t-3.5 -10l-562 -1352q-10 -20 -34 -20h-117h-3.5h-4h-4.5t-5 1t-4 1.5t-3.5 2.5l-3 4t-1.5 5.5v7.5l58 1100h-7l-430 -1083q-10 -26 -17.5 -32.5t-21.5 -6.5h-122q-10 0 -16 2t-8.5 7.5t-2.5 7.5z" />
<glyph unicode="X" horiz-adv-x="962" d="M-92 45q0 11 10 21l508 667l-201 600q-8 21 -8 25v4q1 3 2 5t3 3t3.5 2t5 2t5.5 2l75 27l27 10q1 0 2 1q24 8 32 -9q0 -2 1 -4l141 -424l33 -107q9 16 19 35.5t14 27t13 20.5t23 32l310 410q1 2 4 6.5l5 7.5t6 5.5t9 2.5q3 0 11 -2.5t10 -3.5l92 -35q16 -5 16 -16 q0 -6 -12 -21l-467 -606l234 -674q6 -10 3 -17t-3.5 -8.5t-7.5 -3.5l-7 -3l-102 -37q-23 -4 -27 -1.5t-8 13.5l-162 471q-25 71 -33 107l-421 -570q-1 -2 -4.5 -5t-4.5 -5q-1 -1 -4 -5t-5.5 -6.5t-6.5 -2.5q-3 0 -5.5 1l-7.5 3l-10 4l-96 35q-14 3 -14 16z" />
<glyph unicode="Y" horiz-adv-x="907" d="M170 1360q0 11 14 16l121 37q8 5 16 5q3 0 7 -1q11 -3 16 -28l131 -553q3 -13 17 -119h4l6 12q21 40 63 109l350 555q1 2 3.5 5t3.5 5q8 14 24 14q3 0 10.5 -2.5l10.5 -3.5l96 -29q24 -6 24 -22q0 -1 -12 -21l-524 -745l-121 -569q-8 -25 -31 -25h-110q-25 0 -19 31 l121 563l-213 735q-8 24 -8 31z" />
<glyph unicode="Z" horiz-adv-x="909" d="M-49 16l26 129l846 1121h-536q-19 0 -19 14q0 4 8 23l33 79q8 21 31 21h678q14 0 17 -6q1 -3 1 -9q0 -8 -2 -22l-18 -88l-862 -1141h628q8 0 12 -1.5t7.5 -9.5t-0.5 -24l-17 -77q-4 -25 -39 -25h-774q-5 0 -9 0.5t-8 4.5q-3 3 -4 7q0 2 1 4z" />
<glyph unicode="[" horiz-adv-x="868" d="M123 -387q0 5 3 18t5 23l381 1786q3 13 8 19.5t9.5 7.5t13.5 1h358q20 0 14 -28l-16 -78q-4 -21 -25 -21h-229l-346 -1628h246q20 0 14 -28l-16 -78q-4 -21 -25 -21h-352q-43 0 -43 27z" />
<glyph unicode="\" horiz-adv-x="909" d="M366 1452q4 16 27 16h80q25 0 27 -22l217 -1811q5 -17 0.5 -33t-27.5 -16h-80q-23 0 -26 23l-217 1810q-5 17 -1 33z" />
<glyph unicode="]" horiz-adv-x="870" d="M-47 -385l16 78q4 20 25 20h229l346 1628h-245q-21 0 -15 29l17 78q4 20 24 20h352q43 0 43 -26q0 -5 -3 -18t-5 -23l-381 -1786q-4 -19 -11 -24t-19 -5h-359q-20 0 -14 29z" />
<glyph unicode="^" d="M170 707q0 3 10 26l293 653q3 6 4.5 8.5t7.5 5.5t15 3h112q18 0 27 -17l293 -653q10 -22 10 -26q0 -12 -20 -17l-99 -28q-6 -3 -10 -3q-13 0 -20 15l-238 528l-236 -528q-9 -19 -30 -12l-99 28q-20 5 -20 17z" />
<glyph unicode="_" d="M0 -154h1024v-102h-1024v102z" />
<glyph unicode="`" d="M414 1309q0 6 8 14l100 104q15 15 23 15q12 0 16 -8l211 -226q6 -6 6 -12t-8 -14l-45 -45q-11 -11 -20 -11q-1 0 -15 7l-268 163q-8 5 -8 13z" />
<glyph unicode="a" horiz-adv-x="985" d="M80 272q0 114 30.5 237.5t77.5 217.5q42 85 94.5 145t105 88.5t95.5 40t84 11.5q118 0 199 -99l10 -12l29 64q7 18 18 18h90q16 0 16 -17q0 -4 -1 -10l-140 -643q-18 -84 -18 -161q0 -48 7.5 -74.5t8.5 -40.5v-8q-2 -10 -16 -17l-88 -37q-23 -8 -33 11q-22 39 -22 129 q0 46 8 75h-4q-66 -112 -149.5 -165.5t-170.5 -53.5q-27 0 -53.5 5.5t-60 25t-58.5 50.5t-42 88t-17 132zM236 281q0 -172 124 -172q110 0 199 117t125 282l59 278l-2 2q-86 86 -180 86q-41 0 -81 -18t-86.5 -71.5t-82.5 -139.5q-32 -78 -53.5 -179.5t-21.5 -184.5z" />
<glyph unicode="b" horiz-adv-x="985" d="M78 102q0 3 4 19l276 1300q6 29 21 33l108 27q5 1 10 1q7 0 11 -2q8 -4 6 -18l-104 -489q-15 -64 -33 -121h4q47 67 122 113.5t167 46.5q237 0 237 -277q0 -76 -15.5 -169.5t-53.5 -200t-92 -193t-139.5 -144t-188.5 -57.5q-63 0 -144.5 23t-138.5 54.5t-57 53.5z M236 160l20 -10q100 -52 162 -52q85 0 163 89t124.5 233t46.5 299q0 78 -35.5 116.5t-95.5 38.5q-96 0 -181 -84.5t-114 -216.5z" />
<glyph unicode="c" horiz-adv-x="804" d="M66 313q0 98 19.5 194.5t62.5 188t104 161.5t151 112.5t197 42.5q84 0 160 -27q86 -31 86 -59q0 -11 -8 -23l-43 -69q-10 -15 -19 -15q-11 0 -45 19q-62 36 -139 36q-177 0 -273 -167q-46 -81 -72 -188t-26 -204q0 -24 2.5 -45t13 -52.5t29 -53.5t55 -38.5t85.5 -16.5 q21 0 40 2.5t36.5 7.5t30 9.5t28 13.5t22.5 13t21.5 13.5t17.5 11.5q5 3 11.5 7t10.5 6.5t8.5 4t8.5 1.5q9 0 14 -9l31 -71q4 -8 4 -19q0 -18 -47 -45q-127 -84 -283 -84q-72 0 -126.5 22t-85.5 56t-50 81.5t-25.5 90.5t-6.5 92z" />
<glyph unicode="d" horiz-adv-x="989" d="M68 274q0 203 59 370.5t170 267.5t254 100q105 0 199 -58l16 -10l102 477q6 29 21 33l108 27q5 1 10 1q7 0 11 -2q6 -3 7 -12q0 -3 -1 -6l-246 -1149q-12 -52 -12 -118q0 -64 14 -134l2 -10q4 -14 -16 -24l-86 -37q-22 -11 -35 16q-22 46 -22 150v24h-5q-22 -35 -50 -67 t-69 -66.5t-94.5 -55t-111.5 -20.5q-44 0 -80 13t-59 32.5t-40 49t-25.5 55.5t-13.5 58.5t-6 52.5t-1 42zM223 272q0 -32 3.5 -55.5t14 -50.5t35 -42t62.5 -15q110 0 197 94q94 99 133 282l69 328l-18 12q-70 49 -152 49q-69 0 -130 -36t-109.5 -107t-76.5 -189t-28 -270z " />
<glyph unicode="e" horiz-adv-x="911" d="M68 346q0 191 72.5 345t191.5 237.5t258 83.5q121 0 194.5 -67.5t73.5 -194.5q0 -359 -622 -359h-9q-4 -36 -4 -53q0 -74 25 -131q48 -98 168 -98q58 0 129.5 24t130.5 64q28 18 33 18q9 0 18 -14l49 -74q4 -4 4 -10q0 -13 -59 -54q-62 -42 -148.5 -67t-169.5 -25 q-98 0 -153 27t-94 70q-49 56 -68.5 120t-19.5 158zM244 518q20 -1 40 -1q84 -1 170 13q106 16 169 58q92 60 92 155q0 59 -35.5 100.5t-108.5 41.5q-32 0 -64.5 -7.5t-73.5 -31.5t-75 -62.5t-65.5 -107t-48.5 -158.5z" />
<glyph unicode="f" horiz-adv-x="645" d="M-268 -365l28 84q10 16 15 17q5 0 15.5 -3t21.5 -5q45 -9 84 -9q47 0 84 16t59.5 39t39 58t24 61.5t14.5 61.5l176 909h-143q-17 0 -17 13q0 8 4 24l13 57l1 4l1.5 4.5l1.5 4.5t3 4.5t4.5 3.5t6 3t8.5 1h143l41 197q6 28 8.5 40t11 42t16 46t22 43t30.5 42.5t40 35 t51.5 29.5t64.5 17.5t80 7.5q103 0 182 -33q22 -9 32 -17q10 -7 10 -11v-1q-1 -4 -1 -8l-37 -88l-2 -2q-1 -2 -2.5 -3.5t-4.5 -3t-7 -1.5q-5 0 -10.5 2.5t-21.5 9.5t-38 14q-62 23 -112 23q-36 0 -63.5 -11.5t-44 -29t-28 -44.5t-17.5 -51t-13 -56q-1 -7 -2 -11l-37 -178 h289q16 0 16 -14q0 -3 -2 -10l-2 -7l-25 -63q-1 -2 -2 -5t-2 -4.5t-2 -4.5t-2.5 -4t-3.5 -2.5t-4.5 -2.5t-6 -1.5t-7.5 -0.5h-273l-174 -921q-8 -40 -16 -72t-23.5 -71t-34.5 -68.5t-48 -58.5t-65 -48.5t-85.5 -31t-108.5 -11.5q-67 0 -127 17q-16 5 -22 13q-7 8 -7 13t3 10 z" />
<glyph unicode="g" horiz-adv-x="974" d="M-35 -328q0 1 8 25l35 86q6 12 21 12q4 0 9.5 -2t11 -4.5t15 -7t17.5 -8.5q138 -66 235 -66q46 0 83 13t62 34t45 53.5t32 65t22 75t15.5 77t13 78t14.5 71.5l8 35l-4 4q-126 -213 -299 -213q-27 0 -54 6t-60.5 25t-58 50.5t-41.5 88t-17 131.5q0 159 54 324t138 260 q111 127 283 127q67 0 120.5 -23.5t119.5 -73.5q53 91 90 91q11 0 20 -9l53 -51q9 -9 9 -14t-2.5 -9t-8 -10t-6.5 -8q-2 -2 -13 -15.5t-14.5 -19t-13.5 -20.5t-15.5 -28t-13.5 -32.5t-14 -43.5t-12 -52l-164 -841q-28 -140 -135 -211.5t-250 -71.5q-136 0 -289 68 q-49 20 -49 34zM233 305q0 -168 113 -168q72 0 140.5 56t114.5 140t65 175l61 291q-83 75 -195 75q-88 0 -151 -75q-61 -73 -104.5 -230t-43.5 -264z" />
<glyph unicode="h" d="M66 27l296 1394q6 29 21 33l109 27q5 1 10 1q7 0 11 -2q8 -4 5 -18l-108 -510q-7 -38 -48 -153l5 -4q147 217 366 217q94 0 142.5 -44.5t48.5 -119.5q0 -51 -21 -143l-145 -685q-5 -20 -25 -20h-106q-20 0 -15 27l144 678q12 60 12 81q0 36 -20.5 62t-71.5 26 q-85 0 -163.5 -57t-131.5 -149.5t-76 -200.5l-94 -447q-5 -20 -25 -20h-106q-15 0 -15 17q0 4 1 10z" />
<glyph unicode="i" horiz-adv-x="530" d="M108 874q-1 4 -1 7q0 5 2 10l16 70q4 22 29 22h270q23 0 27.5 -14t-0.5 -23l-197 -926q-5 -20 -25 -20h-106q-19 0 -14 27l178 837h-162q-15 0 -17 10zM342 1354q0 47 33 80.5t82 33.5q47 0 80.5 -33.5t33.5 -80.5q0 -49 -33.5 -82t-80.5 -33t-81 34t-34 81z" />
<glyph unicode="j" horiz-adv-x="530" d="M-328 -350q0 4 3 9t3 7l37 80q6 14 19 14q10 0 37 -14q80 -39 133 -39q34 0 62 11.5t48.5 36t35 49t26.5 63t18.5 64.5t15.5 67q2 9 3 14l182 852h-162q-15 0 -17.5 10t1.5 17l16 70q4 22 29 22h270q23 0 27.5 -14t-0.5 -23l-211 -995q-9 -40 -16.5 -70t-22.5 -71.5 t-32 -72.5t-43.5 -64.5t-58 -54.5t-75 -34.5t-94.5 -13.5q-69 0 -151.5 27t-82.5 53zM350 1354q0 47 33 80.5t82 33.5q47 0 81 -33.5t34 -80.5q0 -49 -34 -82t-81 -33t-81 34t-34 81z" />
<glyph unicode="k" horiz-adv-x="927" d="M63 27l297 1394q6 29 21 33l108 27q5 1 10 1q7 0 11 -2q8 -4 6 -18l-188 -884l4 -5l495 441q8 8 17 8q8 0 16 -8l37 -31l33 -27q8 -8 8 -14q0 -4 -8 -12l-453 -379l309 -496q9 -13 -10 -24l-84 -51q-18 -9 -20 -9q-12 0 -19 13l-331 561l-113 -525q-5 -20 -25 -20h-106 q-16 0 -16 17q0 5 1 10z" />
<glyph unicode="l" horiz-adv-x="522" d="M86 129q0 73 33 223l227 1069q6 29 21 33l108 27q5 1 10 1q7 0 11 -2q6 -3 7 -12q0 -3 -1 -6l-232 -1079q-28 -131 -28 -201q0 -73 55 -73q29 0 84 24q23 10 27 10q9 0 12 -14l14 -90q2 -18 -33 -33q-72 -35 -149 -35q-166 0 -166 158z" />
<glyph unicode="m" horiz-adv-x="1478" d="M66 27l145 688q14 70 14 116q0 44 -8 80q-1 6 -3 13l-3 10.5t-1.5 8t-0.5 7.5q0 15 18 21l70 30q22 11 29 11q8 0 15.5 -8.5t14 -36t6.5 -70.5q0 -37 -2 -55l-2 -25h4q55 84 138 139.5t182 55.5q86 0 130.5 -45.5t49.5 -116.5v-33h4q21 33 49 63.5t68.5 62t95 50.5 t113.5 19q91 0 138.5 -44.5t47.5 -119.5q0 -45 -20 -143l-146 -685q-5 -20 -24 -20h-107q-19 0 -14 27l143 678q13 64 13 88q0 35 -22 58t-66 23q-67 0 -121 -30t-86 -70t-58.5 -105.5t-38 -110t-26.5 -110.5q-1 -7 -2 -10l-92 -418q-5 -20 -25 -20h-106q-20 0 -15 27 l144 678q12 56 12 83q0 19 -4.5 35.5t-25.5 33.5t-58 17q-95 0 -164 -63q-70 -63 -106 -149.5t-58 -194.5l-94 -447q-5 -20 -25 -20h-106q-15 0 -15 17q0 4 1 10z" />
<glyph unicode="n" d="M66 27l145 688q14 56 14 125q0 25 -8 71q-2 11 -5 22.5t-3 16.5q0 6 2 10t3.5 5t7.5 3l5 3l86 37q9 2 15 4h2q6 0 12 -8q8 -10 14 -33q13 -44 13 -84q0 -22 -4 -68l-3 -24h5q147 217 366 217q102 0 146.5 -49t44.5 -123q0 -38 -21 -135l-145 -685q-5 -20 -25 -20h-106 q-20 0 -15 27l144 678q12 58 12 88q0 81 -92 81q-68 0 -141 -42t-134 -136q-72 -111 -96 -229l-94 -447q-5 -20 -25 -20h-106q-15 0 -15 17q0 4 1 10z" />
<glyph unicode="o" horiz-adv-x="985" d="M68 313q0 134 35 258t94 215q43 66 97 113t109 70.5t102.5 33t94.5 9.5q153 0 229 -93.5t76 -252.5q0 -117 -32.5 -238.5t-94.5 -220.5q-148 -236 -409 -236q-76 0 -133 23.5t-88 58.5t-50 84t-24.5 89.5t-5.5 86.5zM223 317q0 -219 178 -219q64 0 134 42.5t120 131.5 q44 80 69.5 190t25.5 202q0 67 -17 113.5t-46 68.5t-57 30.5t-61 8.5q-71 0 -139 -42t-117 -132q-41 -77 -65.5 -187.5t-24.5 -206.5z" />
<glyph unicode="p" horiz-adv-x="978" d="M-31 -414l232 1084q12 58 12 131q0 48 -20 104q-2 7 -5 14t-4.5 10t-1.5 5q0 5 3 8.5t6 5.5t10.5 5t11.5 5l76 35q12 6 20 6q18 0 34.5 -48.5t25.5 -96.5q136 158 286 158q104 0 168 -70.5t64 -232.5q0 -115 -26 -253t-75 -237q-30 -61 -69.5 -107.5t-77 -72.5t-78.5 -42 t-71 -21t-58 -5q-24 0 -48.5 3.5t-42 8t-36.5 12t-29.5 12.5t-24 12t-15.5 8l-23 12l-86 -408q-3 -17 -7.5 -23t-15.5 -9l-108 -27q-5 -2 -11 -2h-8q-9 2 -9 11q0 2 1 5zM242 170l12 -8q76 -53 166 -53q146 0 227 170q42 90 63 205t21 216q0 35 -3 59t-14 53.5t-37 45.5 t-67 16q-92 0 -176 -95.5t-123 -280.5z" />
<glyph unicode="q" horiz-adv-x="968" d="M72 276q0 140 34 277t99 242q136 217 362 217q32 0 61 -5.5t48 -12t40 -19t30 -19t24.5 -20t17.5 -14.5l11 -9l8 13q58 86 76 86l12 -6l66 -43q8 -8 8 -15q0 -6 -3.5 -11.5t-11.5 -15t-14 -18.5q-59 -87 -82 -213l-225 -1059q-3 -17 -7.5 -23t-15.5 -9l-108 -27 q-5 -2 -11 -2h-8q-11 3 -8 16l119 559l-4 5q-133 -179 -299 -179q-101 0 -160 77.5t-59 227.5zM227 299q0 -190 119 -190q104 0 192 96t124 262l73 342q-36 28 -86 46.5t-94 18.5q-144 0 -227 -149q-47 -86 -74 -200.5t-27 -225.5z" />
<glyph unicode="r" horiz-adv-x="636" d="M70 27l137 645q16 80 16 129q0 55 -10 96q-10 38 -10 47q0 16 20 25l82 35q1 0 6 3t7.5 3.5t7.5 1t8 -2t7 -6.5t8 -12t7 -20q13 -47 13 -107q0 -17 -4 -45l-3 -14h5q49 94 128.5 150.5t157.5 56.5q23 0 49.5 -7t26.5 -22q0 -6 -6 -18l-41 -88q-8 -15 -14 -15 q-1 0 -2.5 0.5l-6 2l-10.5 3.5q-12 6 -37 6q-100 0 -204 -147q-62 -91 -99 -260l-94 -447q-5 -20 -25 -20h-106q-15 0 -15 17q0 4 1 10z" />
<glyph unicode="s" horiz-adv-x="757" d="M-31 68q0 6 8 24l33 70q1 1 2.5 4.5t3.5 5.5l4.5 4.5t6 4t8.5 1.5q7 0 16 -5t26.5 -15t35.5 -17q80 -36 172 -36q89 0 136.5 50t47.5 115q0 33 -10 59.5t-35 51t-42.5 38t-57.5 40.5q-28 19 -38.5 26.5t-34.5 26t-34 29.5t-26 31.5t-23 38.5t-12.5 43t-5.5 53 q0 129 93 215t246 86q127 0 207 -49q27 -15 27 -35q0 -7 -4 -15l-33 -63q-10 -21 -27 -21q-4 0 -9 2t-14.5 6.5t-17.5 8.5q-75 28 -141 28q-84 0 -128 -41.5t-44 -103.5q0 -52 30.5 -84t104.5 -80q31 -21 41 -28t35 -25t33 -27t25 -27t23 -32.5t14.5 -35t11 -43.5t2.5 -50 q0 -146 -101.5 -236t-259.5 -90q-65 0 -133.5 15.5t-116.5 42.5q-2 1 -11.5 7t-16 10t-12 10t-5.5 12z" />
<glyph unicode="t" horiz-adv-x="681" d="M96 877q0 10 4 26l13 55l1 4l1.5 4.5l1.5 4.5t3 4.5t4.5 3.5t6 3t8.5 1h148l59 283q6 17 21 22l108 31q7 2 13 2q12 1 14 -9q3 -14 -4 -26l-64 -303h279q16 0 16 -14q0 -5 -8 -21l-33 -67q-1 -1 -2.5 -5t-3.5 -6t-7 -4t-13 -2h-252l-121 -557q-10 -48 -10 -102 q0 -58 23 -77t60 -19q76 0 158 41q41 18 45 18q13 0 15 -14l14 -91q1 -7 -6 -15t-13 -11.5t-20 -11.5q-43 -23 -116 -38.5t-122 -15.5q-51 0 -89 15.5t-57.5 36.5t-31 50.5t-14 50.5t-2.5 44q0 37 18 129l121 567h-149q-17 0 -17 13z" />
<glyph unicode="u" horiz-adv-x="1021" d="M94 186q0 25 3 45.5t9 45.5t7 28l137 645q1 3 2 9t1.5 8t3 6t6.5 6t11 4l105 27q5 2 10 2q3 0 9 -2q10 -2 8 -15l-134 -647q-2 -8 -6.5 -28.5t-7.5 -33t-5.5 -31t-2.5 -32.5q0 -38 12 -63.5t31.5 -35t33 -12.5t27.5 -3q53 0 108.5 26.5t92.5 57.5q44 38 76.5 99.5 t44 103.5t24.5 102l99 452q1 3 2 9t1.5 8t3 6t6.5 6t11 4l105 27q4 2 9 2q3 0 9 -2q8 -2 9 -10q0 -2 -1 -5l-155 -727q-15 -64 -15 -94q0 -17 11 -74q3 -14 7.5 -26.5t6.5 -19t2 -11.5q0 -7 -18 -16l-86 -37q-28 -12 -44 23t-16 75q0 33 6 64l2 12h-4q-60 -84 -149.5 -138.5 t-198.5 -54.5q-102 0 -155.5 62t-53.5 153z" />
<glyph unicode="v" horiz-adv-x="833" d="M104 956q2 10 17 13l67 14l43 10q16 4 19 4q12 0 12 -14l62 -639q7 -98 8 -135h4q11 27 55 108l354 670q1 1 2 3l1.5 3t2.5 2.5t4.5 1.5t6.5 -0.5t10 -1.5l105 -24q12 -4 12 -14q0 -7 -6 -17l-537 -940q-7 -14 -24 -14h-80q-19 0 -21 22l-115 924q-3 9 -3 16q0 4 1 8z " />
<glyph unicode="w" horiz-adv-x="1251" d="M145 948q0 21 19 25l108 22q6 1 10 1q17 0 17 -15l-14 -791h4q6 22 41 101l332 676q8 16 26 16h82q16 0 16 -16l11 -785h4q16 51 51 131l289 672q5 12 17 12q4 0 9 -2l101 -24q12 -4 12 -14q0 -6 -4 -13l-461 -942q-8 -16 -27 -16h-79q-17 0 -17 18l-22 617l-2 120h-4 q-15 -51 -50 -120l-317 -619q-8 -16 -25 -16h-77q-9 0 -13 2.5t-5 6t-1 9.5z" />
<glyph unicode="x" horiz-adv-x="833" d="M-90 43q0 8 8 16l420 451l-193 412q-1 3 -3.5 7.5t-2.5 6.5q0 8 13 14l86 33l20 8q15 6 18 6q9 0 13 -12l123 -291l24 -63q7 14 15 25t18 22t14 16l250 293q11 13 27 6l106 -43q8 -4 8 -10q0 -8 -8 -16l-379 -414l209 -449q4 -8 4 -14q0 -12 -12 -16l-117 -41 q-8 -2 -20 -2q-2 0 -3 2t-1.5 5.5t-1.5 4.5l-139 328l-21 55l-35 -47l-299 -344q-6 -6 -10 -6t-14 4l-107 41q-10 5 -10 12z" />
<glyph unicode="y" horiz-adv-x="876" d="M-184 -344l8 16l49 82q5 10 21 10l22 -12q1 0 17.5 -9.5t25 -13t25.5 -10t33.5 -9.5t33.5 -3q35 0 67.5 14t53.5 31t43 44.5t29.5 40.5t19.5 34l70 129h-74h-4h-5t-4.5 1t-4.5 3t-3.5 6t-2.5 10l-138 918q0 2 0.5 4.5t2 4t4 2.5t4 2t3.5 2t3 1l88 29l22 8q12 6 19 6 q8 0 12 -16l117 -901h4l393 905q6 12 12 12q2 0 9 -2t8 -2l96 -39q12 -3 12 -12q0 -4 -2.5 -9l-3.5 -7l-383 -856q-83 -186 -122 -251q-67 -113 -148 -175q-101 -74 -215 -74q-94 0 -187 55q-30 17 -30 31z" />
<glyph unicode="z" horiz-adv-x="833" d="M-38 8q-2 3 -1 7q0 5 2 12l19 79l659 750h-428q-4 0 -7 0.5t-5 2t-3.5 3t-2 4.5t-0.5 4.5t0.5 5.5t1 6t1.5 6.5t1 6.5l14 68q4 20 25 20h589q17 0 17 -14q0 -5 -2 -11l-19 -81l-645 -750h502q14 0 14 -18q0 -9 -8 -21l-43 -65q-14 -23 -37 -23h-629q-6 0 -8.5 1t-6.5 7z " />
<glyph unicode="{" horiz-adv-x="948" d="M163.5 493.5q-1.5 14.5 4.5 24.5l14 64q0 1 0.5 3.5t1 3.5t1 3.5t1 3.5t2 3t3.5 3l4 2t5 1.5t7 0.5h49q57 0 97.5 15t63.5 44t35 57.5t21 68.5l78 364q8 36 15.5 63t23 62t34.5 59.5t50 50.5t70 42t94.5 26t122.5 10h36q6 0 10 -0.5t8.5 -4.5t2.5 -11l-17 -86 q-1 -6 -2.5 -10.5t-3.5 -7t-3.5 -4.5t-5 -2.5t-4.5 -0.5h-5.5h-5.5h-58q-55 0 -94.5 -15t-62 -44t-34 -57.5t-20.5 -69.5l-77 -364q-40 -196 -201 -250q42 -18 74 -59.5t32 -102.5q0 -13 -12 -82l-86 -408q-8 -32 -8 -67q0 -58 30.5 -83.5t112.5 -25.5h58q30 0 18 -41 l-14 -61q-3 -13 -9 -18.5t-9.5 -6t-12.5 -0.5h-39q-43 0 -78 3.5t-77 16t-70 34.5t-47 61.5t-19 93.5q0 18 13 94l86 408q8 39 8 65q0 117 -146 117h-45q-19 0 -20.5 14.5z" />
<glyph unicode="|" horiz-adv-x="802" d="M369 -483v1990v3v4t0.5 4t1 4.5t1.5 4t3 4t5 3t6.5 2t8.5 0.5h94q27 0 27 -29v-1990q0 -29 -27 -29h-94q-5 0 -8.5 0.5t-6.5 2t-5 3t-3 4t-1.5 4t-1 4.5t-0.5 4v4v3z" />
<glyph unicode="}" horiz-adv-x="948" d="M-72 -397l17 86q1 7 3.5 12t4 7.5t5 3.5t5 1h6h6.5h58q55 0 94.5 15t62 44t34 58t20.5 70l78 364q40 197 200 250q-42 18 -74 59.5t-32 102.5q0 13 12 82l86 407q8 32 8 68q0 58 -30.5 83t-112.5 25h-57q-31 0 -19 41l14 62q3 12 9 18t9 6h13h39q43 0 78 -3.5t77 -16 t70 -34t47 -61t19 -93.5q0 -25 -12 -95l-86 -407q-9 -44 -9 -66q0 -117 146 -117h45q19 0 20.5 -13.5t-4.5 -24.5l-14 -64q0 -1 -0.5 -3.5t-1 -3.5t-1 -3.5t-1 -3.5t-2 -3t-3.5 -3l-4 -2t-5 -1.5t-7 -0.5h-49q-57 0 -97.5 -15t-63.5 -44t-35 -57.5t-21 -68.5l-78 -364 q-8 -37 -15.5 -63.5t-23 -61.5t-34.5 -60t-50 -51t-69.5 -42t-94 -26t-122.5 -10h-37q-6 0 -10.5 0.5t-8.5 5t-2 11.5z" />
<glyph unicode="~" horiz-adv-x="1007" d="M61 457q0 11 56 69q135 138 274 138q43 0 82 -11.5t60 -23t53 -33.5q6 -4 20.5 -13t19 -12t15.5 -9.5t15.5 -8.5t13.5 -6.5t14.5 -5.5t14 -3t16.5 -2.5t18 -0.5q83 0 156 67q12 11 28 27q23 22 28.5 24t17.5 -7q2 -2 4 -3l49 -35q1 -1 3.5 -2t4 -2t3 -3.5t1.5 -6.5 q0 -8 -22 -35q-143 -172 -308 -172q-91 0 -174 57q-2 1 -14 9.5t-15.5 11t-15 10.5t-17.5 10.5t-17.5 8.5t-19.5 8.5t-19.5 6t-22.5 4.5t-23 1q-84 0 -159 -65q-14 -12 -24 -24.5t-14.5 -18t-8.5 -5.5q-24 0 -31 5l-49 34q-1 1 -4 2l-3 1.5t-2.5 1.5t-2 2.5t-1 4t-0.5 5.5z " />
<glyph unicode="&#xa3;" d="M42 11.5q-2 11.5 5 31.5l14 68q0 1 0.5 4.5t1 5l1.5 4.5t3 5t5.5 3.5t8.5 2.5t11 1h174l8 21q108 269 99 434l-2 39h-189q-6 0 -10 0.5t-8 4.5t-2 11l18 96q3 12 9.5 18t10 6.5t11.5 0.5h158l-2 80q-4 201 106 334q136 164 381 164q143 0 250 -56q14 -7 20 -10.5 t12.5 -10.5t6.5 -14q0 -2 -1 -4l-3 -6l-4 -8l-35 -72q-6 -12 -19 -12q-8 0 -28 10q-98 56 -209 56q-180 0 -269 -132q-33 -50 -47 -116t-14 -170v-33h279q20 0 20 -14q0 -3 -1.5 -11t-2.5 -14l-14 -74q-2 -17 -9 -20q-8 -4 -22 -4h-244v-35q0 -133 -32.5 -257.5 t-63.5 -184.5l-8 -17h545q22 0 22 -16q0 -13 -8 -21l-51 -82q-11 -18 -31 -18h-830q-19 0 -21 11.5z" />
<glyph unicode="&#xa8;" d="M377 1280q0 41 31.5 72.5t72.5 31.5t73 -31.5t32 -72.5q0 -42 -32 -73t-73 -31t-72.5 31.5t-31.5 72.5zM750 1280q0 41 31.5 72.5t72.5 31.5t72.5 -31.5t31.5 -72.5q0 -42 -32 -73t-72 -31q-41 0 -72.5 31.5t-31.5 72.5z" />
<glyph unicode="&#xa9;" horiz-adv-x="1007" d="M82 944q0 173 124.5 297.5t297.5 124.5t297.5 -124.5t124.5 -297.5t-124.5 -297.5t-297.5 -124.5t-297.5 124.5t-124.5 297.5zM172 944q0 -136 98 -234t234 -98t234 98t98 234t-98 234t-234 98t-234 -98t-98 -234zM344 952q0 75 25 140q39 98 149 98q67 0 115 -31 q21 -12 12 -29l-18 -30q-7 -13 -13 -13q-2 0 -20 9q-40 20 -72 20q-54 0 -65 -67q-6 -37 -6 -86q0 -65 12 -115q15 -62 74 -62q37 0 73 27q13 8 21 -6l20 -37q7 -12 -4 -18q-49 -39 -119 -39q-99 0 -147 80q-37 62 -37 159z" />
<glyph unicode="&#xab;" horiz-adv-x="1060" d="M104 487q0 4 1.5 6.5t3 4l4.5 4.5l4 4l438 438q12 12 20 12q5 0 17 -6l61 -39q11 -5 11 -16q0 -7 -9 -16l-362 -400l174 -385l2.5 -5t2.5 -5.5t1 -5.5q0 -14 -18 -21l-58 -26q-4 -1 -8 -3.5t-6.5 -3.5t-5.5 -1q-7 0 -15 12l-251 434q-7 14 -7 18zM483 487q0 4 1.5 6.5 t3 4l4.5 4.5l4 4l438 438q12 12 20 12q5 0 17 -6l61 -39q10 -5 10 -16q0 -8 -8 -16l-362 -400l174 -385q0 -2 3 -7t3 -9q0 -14 -18 -21l-58 -26q-4 -1 -8 -3.5t-6.5 -3.5t-5.5 -1q-7 0 -15 12l-252 434q-6 12 -6 18z" />
<glyph unicode="&#xac;" d="M45 614v91q0 10 1 16t4.5 8.5t5 3.5t8 0.5t8.5 -0.5h876q3 0 7.5 0.5t6.5 0.5t5 -1t4.5 -2.5t3 -4.5t2 -8.5t0.5 -12.5v-371q0 -29 -27 -29h-94q-27 0 -27 29v252h-757h-6.5h-7t-5 1.5t-4.5 4.5t-2.5 8.5t-1.5 13.5z" />
<glyph unicode="&#xad;" horiz-adv-x="606" d="M53 453q-2 11 4 28l19 90q4 25 30 25h424q24 0 17 -33l-21 -96q-4 -17 -11 -21t-19 -4h-422q-19 0 -21 11z" />
<glyph unicode="&#xae;" horiz-adv-x="1007" d="M82 944q0 173 124.5 297.5t297.5 124.5t297.5 -124.5t124.5 -297.5t-124.5 -297.5t-297.5 -124.5t-297.5 124.5t-124.5 297.5zM172 944q0 -136 98 -234t234 -98t234 98t98 234t-98 234t-234 98t-234 -98t-98 -234zM365 739v420q0 21 20 21h141q57 0 96.5 -33t39.5 -94 q0 -76 -78 -123l108 -178q7 -12 5 -20.5t-11 -10.5l-55 -6q-19 -2 -31 18l-108 187h-37v-181q0 -20 -21 -20h-49q-20 0 -20 20zM455 985h47q31 0 50 17t19 51q0 30 -19 45.5t-50 15.5h-47v-129z" />
<glyph unicode="&#xb1;" d="M45 18q0 12 4.5 18.5t9 7.5t11.5 1h882q7 0 11.5 -1t9 -7.5t4.5 -18.5v-96q0 -24 -25 -24h-882q-16 0 -20.5 6.5t-4.5 17.5v96zM45 471v98q0 25 25 25h366v364q0 25 25 25h98q25 0 25 -25v-364h368q25 0 25 -25v-98q0 -25 -25 -25h-368v-299q0 -24 -25 -24h-98 q-25 0 -25 24v299h-366q-25 0 -25 25z" />
<glyph unicode="&#xb4;" d="M494 1188q0 9 10 16l317 232q9 6 17 6q12 0 20 -15l57 -102q7 -12 7 -16q0 -13 -11 -17l-358 -162q-12 -4 -14 -4q-8 0 -15 11l-28 43q-2 2 -2 8z" />
<glyph unicode="&#xbb;" horiz-adv-x="1060" d="M0 84q0 8 8 16l363 400l-174 385q-1 2 -4 7.5t-3 8.5q0 13 19 21l57 26q20 8 21 8q6 0 14 -12l252 -434q6 -12 6 -18q0 -7 -12 -19l-438 -438q-12 -12 -21 -12q-4 0 -16 6l-62 39q-10 5 -10 16zM379 84q0 8 8 16l363 400l-175 385q-1 1 -3.5 7t-2.5 9q0 13 19 21l57 26 q20 8 21 8q6 0 14 -12l252 -434q6 -12 6 -18q0 -7 -12 -19l-439 -438q-12 -12 -20 -12q-4 0 -16 6l-62 39q-10 5 -10 16z" />
<glyph unicode="&#xf7;" d="M45 475v90q0 9 1 14.5t2 8.5t4.5 4.5t5 2t7 0t7.5 -0.5h874q9 0 14.5 -1t8.5 -2t4.5 -5t2 -5.5t0 -7.5t-0.5 -8v-90v-5v-7t-1 -5t-3 -5t-5 -3.5t-8 -3t-12 -0.5h-874h-6h-5.5t-4.5 1t-5 3t-3 5t-2.5 8t-0.5 12zM395 166q0 50 32.5 82.5t82.5 32.5t82.5 -32.5t32.5 -82.5 q0 -49 -34 -82t-81 -33q-49 0 -82 33.5t-33 81.5zM395 874q0 50 32.5 82.5t82.5 32.5t82.5 -32.5t32.5 -82.5q0 -49 -34 -81.5t-81 -32.5q-49 0 -82 33t-33 81z" />
<glyph unicode="&#x192;" d="M-215 -365l37 89q4 12 14 12q3 0 8 -1t13.5 -3t17.5 -4q52 -9 72 -9q50 0 91.5 17.5t66 41t45.5 60t30 62t19 59.5l245 905h-139q-29 0 -16 33l20 64q7 22 21 22h147l58 203q12 41 25 73.5t40.5 74t62 68.5t91 46.5t125.5 19.5q118 0 192 -34q38 -17 29 -33l-45 -92 q-3 -9 -17 -9q-5 0 -34 11q-74 30 -138 30q-49 0 -84 -15.5t-56.5 -46t-32 -55t-21.5 -63.5l-49 -178h288q17 0 17 -14q0 -9 -4 -17l-29 -63q-7 -16 -13.5 -20.5t-19.5 -4.5h-272l-250 -911q-9 -31 -12 -42.5t-15.5 -47.5t-22.5 -55t-29.5 -53t-39 -53.5t-49.5 -44.5 t-63 -38.5t-77 -23t-93 -9.5q-31 0 -97 8q-48 6 -57 17q-7 9 0 24z" />
<glyph unicode="&#x401;" horiz-adv-x="978" d="M86 14l291 1368q4 21 24 21h623q27 0 27 -14q0 -9 -9 -23l-47 -96q-3 -7 -6 -8.5t-16 -1.5h-463l-94 -457h401q17 0 20.5 -8.5t-1.5 -22.5l-17 -88q-2 -12 -8.5 -18t-10 -6.5t-12.5 -0.5h-403l-111 -516h494q25 0 25 -14q0 -5 -7 -29l-18 -77q-6 -23 -29 -23h-637 q-7 0 -12 4t-4 10zM436 1604q0 44 32.5 76t76.5 32q45 0 76.5 -32.5t31.5 -75.5q0 -44 -31.5 -76.5t-76.5 -32.5q-44 0 -76.5 32.5t-32.5 76.5zM821 1604q0 44 32.5 76t76.5 32t76 -32t32 -76t-32 -76.5t-76 -32.5t-76.5 32.5t-32.5 76.5z" />
<glyph unicode="&#x402;" horiz-adv-x="1177" d="M145 1296l17 82q4 25 31 25h792q27 0 27 -14q0 -9 -8 -25l-43 -84q-6 -14 -25 -14h-326l-96 -453q151 68 295 68q32 0 61.5 -3.5t73.5 -20.5t75 -45.5t54 -84.5t23 -131q0 -134 -53.5 -289.5t-133.5 -232.5q-109 -103 -274 -103q-61 0 -127 23q-34 11 -43 21t-4 22l39 88 q11 27 30 27q3 0 7.5 -1.5t8.5 -4t11.5 -7t15.5 -8.5q49 -22 91 -22q93 0 157 81q46 60 76.5 178.5t30.5 198.5q0 176 -193 176q-121 0 -250 -67l-137 -651q-8 -25 -31 -25h-110q-25 0 -19 31l263 1235h-289q-23 0 -17 30z" />
<glyph unicode="&#x403;" horiz-adv-x="933" d="M86 31l287 1347q4 25 30 25h621q23 0 23 -17q0 -3 -3.5 -9.5t-5.5 -10.5l-47 -94q-5 -12 -16 -12h-469l-260 -1235q-8 -25 -31 -25h-111q-24 0 -18 31zM645 1575q0 4 2 6t5.5 4.5t4.5 3.5l342 211q12 6 17 6q7 0 16 -14l58 -104q4 -8 4 -13q0 -13 -17 -20l-368 -148 q-8 -4 -17 -4t-14 10l-29 48q-4 8 -4 14z" />
<glyph unicode="&#x404;" horiz-adv-x="890" d="M106 387q0 184 42.5 383t119.5 346q47 89 103.5 153t115 98.5t112.5 49.5t110 15q152 0 270 -109q22 -22 22 -33q0 -5 -10 -18l-49 -72q-6 -12 -22 -12q-7 0 -14.5 5.5t-19 16t-20.5 17.5q-90 67 -172 67q-183 0 -301 -286q-38 -94 -63 -211h407q23 0 19 -25l-19 -88 q-3 -12 -9 -18t-9.5 -6.5t-11.5 -0.5h-406q-27 -147 -27 -288q0 -70 16 -122t37.5 -78t51 -41t48 -18t36.5 -3q87 0 211 86q6 5 15.5 12t14.5 10.5t11 6.5t10 3q13 0 20 -18l31 -70q12 -24 -18 -45q-171 -123 -336 -123q-63 0 -113.5 19.5t-82.5 49.5t-56 72t-36 79.5 t-18.5 81t-8 67.5t-1.5 47z" />
<glyph unicode="&#x405;" horiz-adv-x="948" d="M14 86q0 7 11 25l41 71q1 1 2 3.5t2 4.5t2 4.5t3 4l4 3t5 2.5t6 1q6 0 13 -4t24.5 -15.5t38.5 -23.5q97 -53 199 -53q140 0 213 81.5t73 198.5q0 53 -15.5 97t-45.5 79t-57 58.5t-68 54.5q-4 3 -6.5 4.5t-6 4.5t-6.5 5q-4 3 -13 10q-39 30 -60 47t-54.5 52t-51.5 66 t-32 77.5t-14 97.5q0 58 16.5 113.5t52.5 106t88 88t128.5 60t167.5 22.5q158 0 280 -76q25 -14 25 -29q0 -5 -4 -13l-4 -7l-58 -90q-5 -9 -14 -9q-8 0 -41 21q-101 65 -207 65q-132 0 -197 -73t-65 -177q0 -31 8.5 -57t18.5 -44t38 -44t46.5 -41t64.5 -49q48 -36 76 -59 t66.5 -63t59.5 -77t36.5 -90t15.5 -112q0 -195 -128.5 -316t-334.5 -121q-81 0 -166.5 20.5t-146.5 59.5q-29 19 -29 35z" />
<glyph unicode="&#x406;" horiz-adv-x="690" d="M-35 31l17 71v3q1 3 1 3.5t1 3t1.5 3.5t2 3t2.5 3t3 2.5t4.5 2t5.5 1t7 0.5h187l243 1149h-188q-22 0 -16 31l14 71q4 25 31 25h534q22 0 16 -31l-14 -72q-4 -24 -31 -24h-186l-244 -1149h187q24 0 18 -31l-14 -71q-6 -25 -31 -25h-532q-24 0 -19 31z" />
<glyph unicode="&#x407;" horiz-adv-x="690" d="M-35 31l17 71v3q1 3 1 3.5t1 3t1.5 3.5t2 3t2.5 3t3 2.5t4.5 2t5.5 1t7 0.5h187l243 1149h-188q-22 0 -16 31l14 71q4 25 31 25h534q22 0 16 -31l-14 -72q-4 -24 -31 -24h-186l-244 -1149h187q24 0 18 -31l-14 -71q-6 -25 -31 -25h-532q-24 0 -19 31zM293 1645 q0 44 31 75t75 31t75.5 -31t31.5 -75t-31.5 -75.5t-75.5 -31.5t-75 31.5t-31 75.5zM670 1645q0 44 31 75t75 31t75.5 -31t31.5 -75t-31.5 -75.5t-75.5 -31.5t-75 31.5t-31 75.5z" />
<glyph unicode="&#x408;" horiz-adv-x="897" d="M-20 246q0 71 8 110q4 21 10 32t11.5 13t15.5 2h106q14 0 14 -16q0 -7 -2 -13.5t-4 -25.5q-4 -20 -4 -57q0 -182 154 -182q55 0 96.5 20.5t67.5 59.5t41.5 80.5t27.5 97.5l193 909h-365q-16 0 -16 14q0 11 6 31l16 61q4 21 25 21h498q23 0 16 -33l-199 -936 q-10 -48 -18.5 -82.5t-26.5 -86t-38 -89t-53 -78.5t-72 -67t-94 -43t-120 -17q-76 0 -134.5 23.5t-92 63t-50.5 87.5t-17 101z" />
<glyph unicode="&#x409;" horiz-adv-x="1718" d="M-92 -10l2 106q0 39 29 41l22 2q78 7 138 50.5t116 154.5q113 221 229 752l62 282q4 25 31 25h643q22 0 16 -31l-119 -565h170q27 0 47.5 -1t63 -7t74 -17t70.5 -35t64 -56.5t42.5 -84.5t17.5 -117q0 -143 -64.5 -255.5t-154.5 -167.5q-40 -25 -82 -39.5t-99.5 -20 t-82 -6t-94.5 -0.5h-279q-26 0 -18 31l262 1235h-381l-68 -301q-60 -264 -129 -471q-30 -88 -58.5 -155.5t-82.5 -151t-117 -130.5q-115 -86 -241 -86q-29 0 -29 19zM934 137h180q30 0 47 1t51.5 7t67.5 22t63 42q58 51 86.5 127.5t28.5 140.5q0 44 -12 78.5t-35 54.5 t-46 33t-55 18.5t-52 7t-46 1.5h-163z" />
<glyph unicode="&#x40a;" horiz-adv-x="1683" d="M86 31l287 1347q4 25 30 25h111q22 0 16 -31l-120 -575h471l123 581q4 25 30 25h111q22 0 16 -31l-119 -565h170q27 0 47.5 -1t63 -7t74 -17t70.5 -35t64 -56.5t42.5 -84.5t17.5 -117q0 -143 -64.5 -255.5t-154.5 -167.5q-40 -25 -82 -39.5t-99.5 -20t-82 -6t-94.5 -0.5 h-279q-26 0 -18 31l133 628h-471l-133 -634q-8 -25 -31 -25h-111q-24 0 -18 31zM899 137h180q30 0 47 1t52 7t68 22t63 42q57 51 85.5 127.5t28.5 140.5q0 45 -12 79t-34.5 54t-46 33t-55 18.5t-51.5 7t-46 1.5h-164z" />
<glyph unicode="&#x40b;" horiz-adv-x="1193" d="M145 1296l17 82q4 25 31 25h792q27 0 27 -14q0 -9 -8 -25l-43 -84q-6 -14 -25 -14h-326l-96 -453q62 31 148 49.5t151 18.5q125 0 207 -65t82 -181q0 -30 -12 -92l-109 -518q-4 -25 -31 -25h-110q-23 0 -17 31l107 512q8 46 8 65q0 67 -46.5 101t-127.5 34 q-121 0 -279 -67l-137 -651q-8 -25 -31 -25h-110q-25 0 -19 31l263 1235h-289q-23 0 -17 30z" />
<glyph unicode="&#x40c;" horiz-adv-x="1146" d="M86.5 9.5q-2.5 9.5 1.5 15.5l285 1353q4 25 30 25h111q17 0 19.5 -9.5t-1.5 -15.5l-122 -581h151q64 0 108 36.5t91 143.5l65 151q25 59 38 87t43 72.5t63 70.5q67 53 170 67l26 5q14 2 22 -1.5t10 -7.5t3 -12l8 -92q1 -9 -1 -15t-7.5 -9.5t-8.5 -5t-11 -3.5t-9 -2 l-28 -6q-56 -11 -86 -35q-38 -34 -90 -156l-49 -114q-27 -63 -56.5 -109.5t-58 -73.5t-49 -40.5t-45.5 -24.5q103 -53 114 -182l27 -269q7 -83 20 -104q20 -30 72 -37l37 -6q1 0 5 -1t7 -2t6.5 -3.5t5.5 -5.5t1.5 -8.5t-3.5 -12.5l-47 -98q-10 -21 -25.5 -24t-43.5 5l-21 5 q-20 4 -33.5 8t-33.5 12.5t-37 23.5t-31 37q-11 16 -18 34.5t-11 44t-5.5 40t-3.5 49t-3 45.5l-16 207q-4 58 -18 95.5t-37 54.5t-45.5 22.5t-55.5 5.5h-135l-133 -634q-4 -25 -31 -25h-111q-17 0 -19.5 9.5zM707 1575q0 4 2 6t5.5 4.5t4.5 3.5l342 211q12 6 16 6 q8 0 17 -14l57 -104q4 -8 4 -13q0 -13 -16 -20l-369 -148q-8 -4 -16 -4q-10 0 -15 10l-28 48q-4 8 -4 14z" />
<glyph unicode="&#x40e;" horiz-adv-x="960" d="M-61 77.5q2 5.5 8 14.5l61 88q10 15 23 15q9 0 17.5 -7t20 -20t21.5 -21q51 -38 100 -38q26 0 50 8t41.5 17.5t37.5 31.5t30.5 34.5t27.5 42t22 39t21 40.5l37 73h-64q-14 0 -19.5 5t-8.5 24l-166 926q-5 9 -1.5 22t27.5 19l94 26q21 7 28 -1q5 -7 7 -19l121 -662 l33 -241h6q32 78 115 249l323 648l6 12q8 16 19.5 19t19.5 -1l97 -20q20 -5 20 -21q0 -4 -10 -22l-569 -1112q-73 -141 -161.5 -208t-215.5 -67q-104 0 -187 60q-21 15 -27.5 28t-4.5 18.5zM451 1722q0 30 20 33l86 14q3 0 8 1.5t8 1.5q13 0 13 -19v-16q0 -107 98 -107 q117 0 166 107q3 7 5.5 13.5t3.5 9.5t3 5q8 8 29 4l88 -14q16 -4 16 -20q0 -25 -47 -95q-83 -116 -260 -116q-45 0 -77 4t-71.5 25t-62.5 59q-26 45 -26 110z" />
<glyph unicode="&#x40f;" horiz-adv-x="1222" d="M86.5 9.5q-2.5 9.5 1.5 15.5l287 1353q3 12 9.5 18t10 6.5t11.5 0.5h112q16 0 19.5 -8.5t-0.5 -16.5l-263 -1235h512l263 1235q3 12 9 18t9.5 6.5t11.5 0.5h113q16 0 19 -8.5t-1 -16.5l-286 -1353q-4 -25 -31 -25h-313l-74 -350q-4 -25 -31 -25h-110q-17 0 -20 9.5 t1 15.5l74 350h-314q-17 0 -19.5 9.5z" />
<glyph unicode="&#x410;" horiz-adv-x="1101" d="M-37 18q0 7 8 23l691 1343q1 1 3 5.5t4 6.5t6.5 4.5t10.5 2.5h113q16 0 20 -5.5t6 -21.5l127 -1339q0 -5 1 -14t1 -11q0 -12 -16 -12h-127q-21 0 -23 25l-32 397h-439l-202 -402q-1 -1 -3 -4.5t-3 -5t-3 -4t-4 -3.5t-5 -2t-7 -1h-106q-21 0 -21 18zM385 559h358l-34 455 q-7 86 -7 194h-4q-47 -124 -82 -194z" />
<glyph unicode="&#x411;" horiz-adv-x="1064" d="M86 31l287 1347q4 25 30 25h619q20 0 20 -6q0 -15 -2 -19l-51 -94q-12 -24 -37 -24h-440l-96 -453h170q34 0 66 -2.5t71.5 -11.5t72 -22.5t65 -38.5t54.5 -57t36 -80t14 -106q0 -142 -65 -255t-155 -168q-40 -25 -82 -39.5t-99.5 -20t-82 -6t-94.5 -0.5h-283 q-24 0 -18 31zM272 137h181q30 0 47 1t51.5 7t67.5 22t63 42q58 50 86.5 126.5t28.5 135.5q0 47 -12.5 83t-36 56.5t-46.5 33.5t-56 18t-51 6.5t-44 1.5h-164z" />
<glyph unicode="&#x412;" horiz-adv-x="1105" d="M86 14l291 1368q4 21 24 21h250q51 0 83 -1t79.5 -6t78 -14.5t65.5 -28.5t55 -45.5t33.5 -66.5t13.5 -92q0 -152 -79 -258.5t-204 -153.5v-4q85 -21 137 -91.5t52 -172.5q0 -131 -63 -239.5t-154 -163.5q-41 -25 -83 -39.5t-99 -20t-81.5 -6t-95.5 -0.5h-287q-7 0 -12 4 t-4 10zM274 137h181q32 0 49 1t51 6.5t65.5 21.5t61.5 41q62 50 88.5 121.5t26.5 126.5q0 190 -236 190h-180zM412 782h129q152 0 229 68q59 52 90 121.5t31 130.5q0 43 -12.5 74.5t-30 48t-43.5 26.5t-47 12.5t-47 2.5h-197z" />
<glyph unicode="&#x413;" horiz-adv-x="933" d="M86 31l287 1347q4 25 30 25h621q23 0 23 -17q0 -3 -3.5 -9.5t-5.5 -10.5l-47 -94q-5 -12 -16 -12h-469l-260 -1235q-8 -25 -31 -25h-111q-24 0 -18 31z" />
<glyph unicode="&#x414;" horiz-adv-x="1208" d="M-164 -344l94 444q1 7 2.5 12t4 9t4 7t5.5 4.5t5.5 2.5t6.5 1.5t6.5 0.5h8h7.5h69q155 222 244 465.5t168 630.5l26 129q6 27 13 34t22 7h643q23 0 17 -31l-262 -1235h112q29 0 33 -4q3 -3 3.5 -7t0 -7.5t-2 -9.5t-1.5 -9l-94 -450q-8 -25 -31 -25h-111q-24 0 -18 31 l74 344h-815l-74 -350q-8 -25 -31 -25h-110q-25 0 -19 31zM215 137h545l239 1129h-383l-49 -238q-102 -492 -352 -891z" />
<glyph unicode="&#x415;" horiz-adv-x="978" d="M86 14l291 1368q4 21 24 21h623q27 0 27 -14q0 -9 -9 -23l-47 -96q-3 -7 -6 -8.5t-16 -1.5h-463l-94 -457h401q17 0 20.5 -8.5t-1.5 -22.5l-17 -88q-2 -12 -8.5 -18t-10 -6.5t-12.5 -0.5h-403l-111 -516h494q25 0 25 -14q0 -5 -7 -29l-18 -77q-6 -23 -29 -23h-637 q-7 0 -12 4t-4 10z" />
<glyph unicode="&#x416;" horiz-adv-x="1656" d="M-45 92v5v5.5t1 5.5t3 5.5t6 4t10 4.5t15 3l41 6q52 8 84 37q7 6 13 14t10.5 13.5t11 17.5t9 17t11 21.5t10.5 20.5l135 279q65 137 203 184q-16 9 -28.5 19.5t-22 23.5t-16.5 23t-12.5 27t-8.5 26t-5.5 30t-3.5 28.5t-2.5 31.5t-2.5 31l-10 110q-1 14 -2.5 40t-3 37.5 t-4 28t-6.5 27t-11 19.5q-23 31 -70 39l-30 6q-7 1 -12 3t-8.5 4t-5 5l-2 4t0.5 5t1 4.5t3 4.5l2 5l43 92q8 19 18.5 22.5t24.5 -1.5l18 -5q35 -8 53 -13.5t44.5 -22t42.5 -41.5q21 -31 29.5 -78t15.5 -142l12 -151q1 -6 2 -22l1.5 -24t3 -23.5t5.5 -24.5t9 -22t13.5 -21 t19 -17t26 -14t34 -8.5t42.5 -3.5h86l123 581q4 25 30 25h111q17 0 19.5 -9.5t-1.5 -15.5l-122 -581h110q64 0 108 36.5t91 143.5l65 151q25 59 38 87t43 72.5t63 70.5q67 53 170 67l26 5q14 2 22 -1.5t10 -7.5t3 -12l8 -92q1 -9 -1 -15t-7.5 -9.5t-8.5 -5t-11 -3.5t-9 -2 l-28 -6q-56 -11 -86 -35q-38 -34 -90 -156l-50 -114q-47 -111 -97 -164t-107 -80q96 -47 110 -180l27 -275q1 -10 3 -29t3 -26.5t2.5 -18.5t4.5 -17.5t7 -12.5q20 -30 72 -37l37 -6q1 0 5 -1t7 -2t6.5 -3.5t5.5 -5.5t1.5 -8.5t-3.5 -12.5l-47 -98q-10 -21 -25.5 -24t-43.5 5 l-21 5q-20 4 -33.5 8t-33.5 12.5t-37 23.5t-31 37q-11 16 -18 34.5t-11 44t-5.5 40t-3.5 49t-3 45.5l-16 207q-6 80 -22.5 118.5t-41.5 49t-76 10.5h-110l-133 -634q-4 -25 -31 -25h-111q-17 0 -19.5 9.5t1.5 15.5l133 634h-110q-38 0 -69.5 -12t-50 -25.5t-38.5 -44 t-27 -45t-24 -51.5l-97 -207q-5 -10 -17 -37.5t-16.5 -37t-15 -30.5t-16 -31t-15 -25t-18 -26t-18.5 -21q-62 -64 -191 -86l-24 -5q-32 -8 -46.5 -6t-15.5 25z" />
<glyph unicode="&#x417;" horiz-adv-x="935" d="M-35 129q0 1 15 23l59 65q12 12 18 12q8 0 41 -30q28 -26 51 -42t66.5 -32t91.5 -16q130 0 225 108.5t95 261.5q0 33 -6.5 60.5t-20.5 45.5t-27.5 31.5t-35.5 21.5t-35.5 12.5t-37.5 6l-32 2t-26 0.5h-76q-23 0 -19 25l19 88q5 18 16 23q4 2 16 2h48q73 0 132 22 t95.5 56.5t60.5 79t33.5 85.5t9.5 80q0 83 -45.5 128.5t-117.5 45.5q-89 0 -183 -57q-24 -14 -45.5 -31t-31.5 -24.5t-17 -7.5t-12 10l-41 71q-13 22 33 58q31 25 70 48.5t114 47t153 23.5q55 0 99.5 -12t74 -30.5t51 -45t33 -51.5t18.5 -53.5t9 -47.5t2 -37 q0 -132 -75 -246.5t-205 -160.5q15 -4 29.5 -10t42 -25.5t47.5 -45t35.5 -73t15.5 -105.5q0 -69 -19.5 -140t-61.5 -139.5t-101 -121t-145.5 -85t-186.5 -32.5q-92 0 -171.5 31t-125.5 88q-19 24 -19 39z" />
<glyph unicode="&#x418;" horiz-adv-x="1259" d="M86 31l287 1347q4 25 30 25h111q22 0 16 -31l-202 -956q-24 -100 -60 -183h4q54 105 88 154l693 997q7 10 12.5 14t9 4.5t12.5 0.5h144q22 0 16 -31l-284 -1347q-8 -25 -31 -25h-111q-24 0 -18 31l213 1003q24 101 59 183h-4q-30 -68 -88 -154l-723 -1043 q-15 -20 -37 -20h-119q-24 0 -18 31z" />
<glyph unicode="&#x419;" horiz-adv-x="1259" d="M86 31l287 1347q4 25 30 25h111q22 0 16 -31l-202 -956q-24 -100 -60 -183h4q54 105 88 154l693 997q7 10 12.5 14t9 4.5t12.5 0.5h144q22 0 16 -31l-284 -1347q-8 -25 -31 -25h-111q-24 0 -18 31l213 1003q24 101 59 183h-4q-30 -68 -88 -154l-723 -1043 q-15 -20 -37 -20h-119q-24 0 -18 31zM602 1675q0 37 6 43q4 4 23 8l69 13q22 4 28.5 0t6.5 -15v-20q0 -125 99 -125q17 0 34.5 4.5t43 17t48.5 44.5t37 79q3 12 8 15t23 0l82 -13q1 0 5 -1t5.5 -1.5t4.5 -2t4 -4.5t1 -7q0 -12 -11.5 -38.5t-20.5 -41.5q-92 -160 -279 -160 q-102 0 -159.5 54.5t-57.5 150.5z" />
<glyph unicode="&#x41a;" horiz-adv-x="1146" d="M86.5 9.5q-2.5 9.5 1.5 15.5l285 1353q4 25 30 25h111q17 0 19.5 -9.5t-1.5 -15.5l-122 -581h151q64 0 108 36.5t91 143.5l65 151q25 59 38 87t43 72.5t63 70.5q67 53 170 67l26 5q14 2 22 -1.5t10 -7.5t3 -12l8 -92q1 -9 -1 -15t-7.5 -9.5t-8.5 -5t-11 -3.5t-9 -2 l-28 -6q-56 -11 -86 -35q-38 -34 -90 -156l-49 -114q-27 -63 -56.5 -109.5t-58 -73.5t-49 -40.5t-45.5 -24.5q103 -53 114 -182l27 -269q7 -83 20 -104q20 -30 72 -37l37 -6q1 0 5 -1t7 -2t6.5 -3.5t5.5 -5.5t1.5 -8.5t-3.5 -12.5l-47 -98q-10 -21 -25.5 -24t-43.5 5l-21 5 q-20 4 -33.5 8t-33.5 12.5t-37 23.5t-31 37q-11 16 -18 34.5t-11 44t-5.5 40t-3.5 49t-3 45.5l-16 207q-4 58 -18 95.5t-37 54.5t-45.5 22.5t-55.5 5.5h-135l-133 -634q-4 -25 -31 -25h-111q-17 0 -19.5 9.5z" />
<glyph unicode="&#x41b;" horiz-adv-x="1208" d="M-92 -10l2 106q0 39 29 41l22 2q78 7 138 50.5t116 154.5q113 221 229 752l62 282q4 25 31 25h643q22 0 16 -31l-285 -1347l-1 -3q-1 -2 -1.5 -3.5t-1.5 -4t-2.5 -4t-3.5 -4t-5 -3.5t-6.5 -2t-8.5 -1h-111q-24 0 -18 31l262 1235h-381l-68 -301q-60 -264 -129 -471 q-30 -88 -58.5 -155.5t-82.5 -151t-117 -130.5q-115 -86 -241 -86q-29 0 -29 19z" />
<glyph unicode="&#x41c;" horiz-adv-x="1327" d="M40.5 10.5q-1.5 10.5 4.5 22.5l363 1347q3 11 9 16.5t9.5 6t11.5 0.5h109q13 0 19 -3.5t7 -7t2 -14.5l84 -708q3 -20 5 -109h4q13 50 47 109l385 714q1 3 3 8t3 6t4.5 3t8 2h14.5h129q22 0 20 -14l-2 -17l-209 -1347q-1 -9 -2.5 -13t-6.5 -8t-13 -4h-117q-10 0 -14.5 6.5 t-4.5 11.5q0 2 1 7t1 8l191 1048q9 50 14 70l8 35l-4 4q-21 -62 -47 -109l-397 -735q-9 -18 -27 -18h-71q-4 0 -7 0.5t-5 3t-3 3.5t-2.5 4.5t-1.5 4.5t-1 6l-1 4l-76 727q-8 74 -8 117h-4q-11 -84 -18 -117l-254 -1056q-2 -8 -3 -11.5t-8 -8.5t-18 -5h-111q-19 0 -20.5 10.5 z" />
<glyph unicode="&#x41d;" horiz-adv-x="1173" d="M86 31l287 1347q4 25 30 25h111q22 0 16 -31l-120 -575h471l123 581q4 25 30 25h111q22 0 16 -31l-284 -1347q-8 -25 -31 -25h-111q-24 0 -18 31l133 628h-471l-133 -634q-8 -25 -31 -25h-111q-24 0 -18 31z" />
<glyph unicode="&#x41e;" horiz-adv-x="1099" d="M106 377q0 176 34 366t100 332q43 92 97.5 161t104 105t105 58t93 27.5t75.5 5.5q71 0 128 -17.5t93.5 -43t63 -65.5t39.5 -74.5t20 -81.5t8.5 -74t1.5 -64q0 -213 -42.5 -407t-117.5 -333q-44 -81 -99.5 -140.5t-103 -89t-101.5 -47t-85.5 -21t-64.5 -3.5 q-68 0 -122.5 16.5t-90 41.5t-62 62.5t-40.5 72t-22 78t-10 72.5t-2 63zM274 360q0 -251 197 -251q54 0 98 17.5t76 51.5t52.5 65.5t43.5 78.5q79 162 119.5 353t40.5 357q0 25 -1 43.5t-5 48t-11.5 50.5t-22 45t-34.5 39.5t-51.5 25.5t-70.5 10q-83 0 -155.5 -53 t-137.5 -194q-63 -139 -100.5 -333.5t-37.5 -353.5z" />
<glyph unicode="&#x41f;" horiz-adv-x="1161" d="M86 31l287 1347q4 25 30 25h730q22 0 16 -31l-285 -1347l-1 -3q-1 -2 -1.5 -3.5t-1.5 -4t-2.5 -4t-3.5 -4t-5 -3.5t-6.5 -2t-8.5 -1h-111q-24 0 -18 31l262 1235h-459l-262 -1241q-8 -25 -31 -25h-111q-24 0 -18 31z" />
<glyph unicode="&#x420;" horiz-adv-x="1058" d="M86 31l287 1347q4 25 30 25h316q35 0 63 -2t63.5 -9t63 -19.5t55 -34.5t45.5 -52.5t29 -75.5t11 -102q0 -128 -54 -241t-133 -177q-115 -94 -332 -94h-163l-121 -571q-8 -25 -31 -25h-111q-24 0 -18 31zM395 733h144q159 0 235 68q49 43 78 119.5t29 154.5q0 53 -12.5 91 t-28.5 57t-41 29.5t-41 12t-37 1.5h-213z" />
<glyph unicode="&#x421;" horiz-adv-x="890" d="M106 387q0 184 42.5 383t119.5 346q47 89 103.5 153t115 98.5t112.5 49.5t110 15q152 0 270 -109q22 -22 22 -33q0 -5 -10 -18l-49 -72q-6 -12 -22 -12q-7 0 -14.5 5.5t-19 16t-20.5 17.5q-90 67 -172 67q-185 0 -301 -286q-51 -125 -85 -313t-34 -324q0 -70 16 -122 t37.5 -78t51 -41t48 -18t36.5 -3q87 0 211 86q6 5 15.5 12t14.5 10.5t11 6.5t10 3q13 0 20 -18l31 -70q12 -24 -18 -45q-171 -123 -336 -123q-63 0 -113.5 19.5t-82.5 49.5t-56 72t-36 79.5t-18.5 81t-8 67.5t-1.5 47z" />
<glyph unicode="&#x422;" horiz-adv-x="870" d="M182 1296l17 82q4 25 30 25h795q27 0 27 -14q0 -5 -9 -23l-45 -88q-1 -3 -2.5 -5t-3 -3.5t-2.5 -2t-3 -1t-3 -0.5h-4h-4h-303l-262 -1241q-8 -25 -31 -25h-111q-24 0 -18 31l262 1235h-313q-23 0 -17 30z" />
<glyph unicode="&#x423;" horiz-adv-x="960" d="M-61 77.5q2 5.5 8 14.5l61 88q10 15 23 15q9 0 17.5 -7t20 -20t21.5 -21q51 -38 100 -38q26 0 50 8t41.5 17.5t37.5 31.5t30.5 34.5t27.5 42t22 39t21 40.5l37 73h-64q-14 0 -19.5 5t-8.5 24l-166 926q-5 9 -1.5 22t27.5 19l94 26q21 7 28 -1q5 -7 7 -19l121 -662 l33 -241h6q32 78 115 249l323 648l6 12q8 16 19.5 19t19.5 -1l97 -20q20 -5 20 -21q0 -4 -10 -22l-569 -1112q-73 -141 -161.5 -208t-215.5 -67q-104 0 -187 60q-21 15 -27.5 28t-4.5 18.5z" />
<glyph unicode="&#x424;" horiz-adv-x="1251" d="M102 569q0 94 23.5 198t60.5 185q30 68 69 122t80.5 87.5t82.5 56.5t83 34t73 15.5t61 4.5h57l41 188l1 4q0 3 0.5 4t1.5 4t2 4l3.5 3.5t5 3t6.5 1.5t9 1h110q27 0 21 -25l-41 -188h35q158 0 246 -88q90 -90 90 -244q0 -78 -21.5 -186.5t-50.5 -180.5 q-61 -148 -182 -242.5t-281 -94.5h-57l-43 -211q-4 -25 -31 -25h-111q-17 0 -19.5 9.5t1.5 15.5l43 211h-51q-53 0 -119.5 25t-105.5 61q-93 86 -93 247zM270 559q0 -80 35 -127q20 -26 56.5 -44.5t76.5 -18.5h62l164 770h-37q-29 0 -59.5 -6.5t-74.5 -26t-85 -67 t-68 -117.5q-27 -71 -48.5 -183.5t-21.5 -179.5zM659 369h37q59 0 109 20.5t80 47.5t55 65t35 60t18 46q62 174 62 328q0 104 -49.5 153.5t-120.5 49.5h-62z" />
<glyph unicode="&#x425;" horiz-adv-x="962" d="M-92 45q0 11 10 21l508 667l-201 600q-8 21 -8 25v4q1 3 2 5t3 3t3.5 2t5 2t5.5 2l75 27l27 10q1 0 2 1q24 8 32 -9q0 -2 1 -4l141 -424l33 -107q9 16 19 35.5t14 27t13 20.5t23 32l310 410q1 2 4 6.5l5 7.5t6 5.5t9 2.5q3 0 11 -2.5t10 -3.5l92 -35q16 -5 16 -16 q0 -6 -12 -21l-467 -606l234 -674q6 -10 3 -17t-3.5 -8.5t-7.5 -3.5l-7 -3l-102 -37q-23 -4 -27 -1.5t-8 13.5l-162 471q-25 71 -33 107l-421 -570q-1 -2 -4.5 -5t-4.5 -5q-1 -1 -4 -5t-5.5 -6.5t-6.5 -2.5q-3 0 -5.5 1l-7.5 3l-10 4l-96 35q-14 3 -14 16z" />
<glyph unicode="&#x426;" horiz-adv-x="1175" d="M88 31l287 1347q8 25 31 25h108q24 0 18 -31l-262 -1235h459l264 1241q8 25 31 25h109q24 0 18 -31l-262 -1235h112q29 0 33 -4q3 -3 3.5 -7t0 -7.5t-2 -9.5t-1.5 -9l-94 -450q-8 -25 -31 -25h-110q-25 0 -19 31l74 344h-750q-22 0 -16 31z" />
<glyph unicode="&#x427;" horiz-adv-x="1120" d="M205 815q0 35 10 80l102 483q4 25 31 25h111q22 0 16 -31l-100 -477q-6 -27 -6 -53q0 -28 5.5 -50t22 -46t53 -38t91.5 -14q121 0 278 68l131 616q4 25 31 25h111q22 0 16 -31l-285 -1347l-1 -3q-1 -2 -1.5 -3.5t-1.5 -4t-2.5 -4t-3.5 -4t-5 -3.5t-6.5 -2t-8.5 -1h-111 q-24 0 -18 31l127 594q-160 -68 -291 -68q-80 0 -139.5 22t-92 60t-48 82t-15.5 94z" />
<glyph unicode="&#x428;" horiz-adv-x="1656" d="M86 31l287 1347q4 25 30 25h111q22 0 16 -31l-262 -1235h398l264 1241q4 25 31 25h110q22 0 16 -31l-262 -1235h398l264 1241q4 25 31 25h110q23 0 17 -31l-285 -1347q-8 -25 -31 -25h-1225q-24 0 -18 31z" />
<glyph unicode="&#x429;" horiz-adv-x="1671" d="M86 31l287 1347q4 25 30 25h111q22 0 16 -31l-262 -1235h398l264 1241q4 25 31 25h110q22 0 16 -31l-262 -1235h398l264 1241q4 25 31 25h110q23 0 17 -31l-263 -1235h113q29 0 33 -4q3 -3 3.5 -7t0 -7.5t-2 -9.5t-1.5 -9l-92 -434l-2 -16q-1 -11 -10.5 -18t-20.5 -7 h-111q-24 0 -18 31l74 344h-1244q-24 0 -18 31z" />
<glyph unicode="&#x42a;" horiz-adv-x="1179" d="M102 1276q0 5 4 9t7 11l45 95q6 12 18 12h465q16 0 19 -8.5t-1 -16.5l-120 -571h170q27 0 47.5 -1t62.5 -7t73.5 -17t70.5 -35t64 -56.5t42.5 -84.5t17.5 -117q0 -143 -64.5 -255.5t-154.5 -167.5q-40 -25 -82 -39.5t-99.5 -20t-82 -6t-94.5 -0.5h-279q-24 0 -18 31 l262 1229h-348q-25 0 -25 16zM395 137h180q30 0 47 1t52 7t68 22t63 42q58 51 86.5 127.5t28.5 140.5q0 44 -12 78.5t-35 54.5t-46 33t-55 18.5t-52 7t-46 1.5h-164z" />
<glyph unicode="&#x42b;" horiz-adv-x="1509" d="M86 31l287 1347q4 25 30 25h111q22 0 16 -31l-118 -565h170q27 0 47.5 -1t63 -7t74 -17t70.5 -35t64 -56.5t42.5 -84.5t17.5 -117q0 -142 -65 -255t-155 -168q-40 -25 -82 -39.5t-99.5 -20t-82 -6t-94.5 -0.5h-279q-26 0 -18 31zM268 137h181q30 0 47 1t51.5 7t67.5 22 t63 42q58 51 86.5 127.5t28.5 140.5q0 44 -12 78.5t-35 54.5t-46 33t-55 18.5t-52 7t-46 1.5h-164zM1053 31l286 1347q4 25 31 25h111q22 0 16 -31l-285 -1347l-1 -3q-1 -2 -1.5 -3.5t-1.5 -4t-2.5 -4t-3.5 -4t-5 -3.5t-6.5 -2t-8.5 -1h-111q-24 0 -18 31z" />
<glyph unicode="&#x42c;" horiz-adv-x="1052" d="M86 31l287 1347q4 25 30 25h111q22 0 16 -31l-118 -565h170q27 0 47.5 -1t63 -7t74 -17t70.5 -35t64 -56.5t42.5 -84.5t17.5 -117q0 -142 -65 -255t-155 -168q-40 -25 -82 -39.5t-99.5 -20t-82 -6t-94.5 -0.5h-279q-26 0 -18 31zM268 137h181q30 0 47 1t51.5 7t67.5 22 t63 42q58 51 86.5 127.5t28.5 140.5q0 44 -12 78.5t-35 54.5t-46 33t-55 18.5t-52 7t-46 1.5h-164z" />
<glyph unicode="&#x42d;" horiz-adv-x="956" d="M-35 129q0 4 15 23l55 65q12 12 16 12q7 0 33 -26q94 -94 199 -94q126 0 235 131q111 135 168 368l12 51h-403q-23 0 -19 25l19 88q3 12 9.5 18t10 6.5t11.5 0.5h403l8 37q6 28 13.5 96.5t7.5 109.5q0 112 -49 183t-150 71q-92 0 -184 -57q-24 -15 -43.5 -28.5t-27.5 -20 t-14 -10.5t-11 -4q-8 0 -13 10l-41 71q-14 24 33 58q70 57 164 88t182 31q151 0 236.5 -107t85.5 -293q0 -155 -51.5 -366.5t-122.5 -348.5q-52 -101 -116 -172.5t-130.5 -107.5t-125.5 -51t-120 -15q-83 0 -158.5 34.5t-117.5 84.5q-19 24 -19 39z" />
<glyph unicode="&#x42e;" horiz-adv-x="1579" d="M86 31l287 1347q4 25 30 25h111q22 0 16 -31l-120 -575h229q9 45 21 90.5t36 111t53.5 122t74 115.5t96.5 101t123 68.5t151 26.5q71 0 128 -17.5t93.5 -43t63 -66t39.5 -75t20 -81.5t8.5 -74t1.5 -63q0 -213 -42 -407.5t-117 -332.5q-44 -81 -99.5 -140.5t-103 -89 t-102 -47t-86 -21t-64.5 -3.5q-176 0 -266 121q-74 102 -74 326q0 138 18 241h-233l-133 -634q-8 -25 -31 -25h-111q-24 0 -18 31zM754 360q0 -251 196 -251q54 0 98 17.5t76.5 51.5t53 66t43.5 78q79 161 119 352t40 358q0 26 -0.5 43.5t-4.5 47.5t-11.5 50.5t-22 45 t-35 39.5t-52.5 25.5t-72 10.5q-52 0 -96.5 -17.5t-98 -75t-96.5 -154.5q-60 -133 -98.5 -330.5t-38.5 -356.5z" />
<glyph unicode="&#x42f;" horiz-adv-x="1116" d="M-41.5 105.5q0.5 6.5 9.5 11.5t26 8l43 6q55 6 90 47q15 15 57 94l135 258q61 113 170 166q-107 28 -166 106.5t-59 178.5q0 87 43.5 170.5t106.5 136.5q68 56 163.5 85.5t194.5 29.5h309q23 0 17 -31l-285 -1347q-8 -25 -31 -25h-110q-25 0 -19 31l129 604h-96 q-60 0 -105 -25t-69 -58.5t-53 -90.5l-113 -225q-5 -9 -17 -34.5t-19.5 -39t-19 -33.5t-23 -35.5t-23.5 -27.5q-62 -64 -191 -86l-24 -5q-28 -7 -44.5 -4.5t-17.5 23.5l-8 98q-1 7 -0.5 13.5zM432 977q0 -98 67 -151.5t173 -53.5h139l104 488h-165q-74 0 -132 -20t-92 -50 t-56 -69.5t-30 -74.5t-8 -69z" />
<glyph unicode="&#x430;" horiz-adv-x="985" d="M80 272q0 114 30.5 237.5t77.5 217.5q42 85 94.5 145t105 88.5t95.5 40t84 11.5q118 0 199 -99l10 -12l29 64q7 18 18 18h90q20 0 15 -27l-140 -643q-18 -84 -18 -161q0 -48 7.5 -74.5t8.5 -40.5v-8q-2 -10 -16 -17l-88 -37q-23 -8 -33 11q-22 39 -22 129q0 46 8 75h-4 q-66 -112 -149.5 -165.5t-170.5 -53.5q-27 0 -53.5 5.5t-60 25t-58.5 50.5t-42 88t-17 132zM236 281q0 -172 124 -172q110 0 199 117t125 282l59 278l-2 2q-86 86 -180 86q-41 0 -81 -18t-86.5 -71.5t-82.5 -139.5q-32 -78 -53.5 -179.5t-21.5 -184.5z" />
<glyph unicode="&#x431;" horiz-adv-x="1003" d="M82 348q0 220 90 494q39 120 92 210t117.5 148t122 92.5t133.5 65.5l381 158q8 6 21.5 5.5t17.5 -16.5l22 -78q2 -8 2 -14t-0.5 -8.5t-5.5 -6t-5.5 -4t-8.5 -3.5l-440 -185q-29 -12 -57.5 -27t-73 -47.5t-81 -71t-73 -99.5t-57.5 -132l-19 -63h6q28 42 62 78.5t79 70.5 t101.5 54t116.5 20q41 0 79.5 -9t78.5 -33t70 -61t48.5 -97.5t18.5 -137.5q0 -111 -33 -235.5t-90 -214.5q-42 -66 -96 -113.5t-110 -71.5t-105.5 -34.5t-98.5 -10.5q-150 0 -227.5 98.5t-77.5 278.5zM238 307q0 -209 182 -209q63 0 134 41.5t120 128.5q42 76 66 182t24 197 q0 23 -2 44.5t-12.5 55t-28.5 57t-53.5 41t-83.5 17.5q-154 0 -258 -184q-88 -155 -88 -371z" />
<glyph unicode="&#x432;" horiz-adv-x="954" d="M80 80l119 565q41 204 159 291q51 37 118.5 56.5t131.5 19.5q124 0 196.5 -64t72.5 -166q0 -87 -54 -160t-149 -106q71 -23 109 -76t38 -125q0 -73 -30.5 -142t-83.5 -114q-102 -88 -301 -88q-88 0 -183 18t-133 52q-16 13 -10 39zM238 129l36 -10q77 -21 138 -21 q75 0 128 20t79 53t36.5 65.5t10.5 68.5q0 70 -46 104.5t-124 34.5h-191zM332 567h176q101 0 160 55t59 134q0 54 -34.5 91.5t-106.5 37.5q-52 0 -93 -17.5t-64.5 -41t-41 -56.5t-23.5 -53.5t-10 -42.5z" />
<glyph unicode="&#x433;" horiz-adv-x="806" d="M37 197q0 38 6.5 71t22 60.5t31.5 50t43.5 44t49 36.5t58.5 33.5t60 29.5t65 29q133 59 181 103.5t48 111.5q0 119 -133 119q-31 0 -61 -6.5t-47.5 -13t-40 -17t-27.5 -12.5q-32 -13 -35 -13q-8 0 -12 5.5t-4 9.5l-19 75q-3 4 -1 10t7 12.5t24 16.5t50 21q117 39 209 39 q58 0 103 -15.5t71.5 -39t43 -55t22.5 -60.5t6 -60q0 -40 -11 -76t-26.5 -63.5t-44.5 -54t-52 -44t-62.5 -38.5t-63.5 -32t-66 -30q-124 -54 -164 -83q-74 -56 -75 -138q0 -50 34 -87.5t107 -37.5q25 0 52 4.5t53.5 12t44 13.5t39 15t22.5 9q57 24 61 24q12 0 15 -10l22 -78 q5 -16 -2 -26.5t-39 -24.5q-53 -24 -139.5 -45t-163.5 -21q-121 0 -191.5 62.5t-70.5 163.5z" />
<glyph unicode="&#x434;" horiz-adv-x="1017" d="M68 307q0 134 34 255.5t93 209.5q75 111 177.5 165t205.5 54q92 0 157.5 -47t93.5 -135h5q4 45 4 135q0 59 -5.5 106.5t-26 102.5t-54.5 91.5t-96.5 61.5t-147.5 25q-40 0 -70 -6q-18 -3 -36 -7.5t-25 -4.5q-11 0 -16 6t-5 24l-2 68q-1 13 0 20t6.5 11t8.5 5t14 3 q81 18 158 18q51 0 97.5 -9.5t96 -31t89 -61.5t72 -96t50 -140t17.5 -188q0 -178 -51 -387.5t-138 -349.5q-148 -234 -399 -234q-56 0 -102.5 12t-77.5 31.5t-55 48t-37 57.5t-21.5 64t-11 63.5t-2.5 59.5zM223 313q0 -215 180 -215q69 0 136 43t118 135q42 78 66.5 182.5 t24.5 188.5q0 65 -17 110.5t-46.5 67.5t-58.5 30.5t-63 8.5q-150 0 -244 -155q-48 -80 -72 -187.5t-24 -208.5z" />
<glyph unicode="&#x435;" horiz-adv-x="911" d="M68 346q0 191 72.5 345t191.5 237.5t258 83.5q121 0 194.5 -67.5t73.5 -194.5q0 -359 -622 -359h-9q-4 -36 -4 -53q0 -74 25 -131q48 -98 168 -98q58 0 129.5 24t130.5 64q28 18 33 18q9 0 18 -14l49 -74q4 -4 4 -10q0 -13 -59 -54q-62 -42 -148.5 -67t-169.5 -25 q-98 0 -153 27t-94 70q-49 56 -68.5 120t-19.5 158zM244 518q103 -4 209.5 12.5t169.5 57.5q92 60 92 155q0 59 -35.5 100.5t-108.5 41.5q-32 0 -64.5 -7.5t-73.5 -31.5t-75 -62.5t-65.5 -107t-48.5 -158.5z" />
<glyph unicode="&#x436;" horiz-adv-x="1343" d="M-41 80q-2 15 3 20.5t26 8.5l26 4q43 6 62.5 21.5t40.5 55.5l106 197q13 24 22.5 37.5t28 35.5t45 37t60.5 25q-27 12 -45 29.5t-27.5 41.5t-13 42t-6.5 45l-11 88q0 2 -1.5 13t-2 16t-3 16.5t-5 17.5t-7.5 15t-10.5 13.5t-14.5 9t-19 5.5l-35 5q-1 0 -5 0.5t-5.5 1 l-4.5 1.5t-4 2.5t-2 4t0 6t3 8.5l41 92q2 6 2.5 8t7.5 5.5t18 3.5q34 0 71 -15t60 -45q11 -13 18 -27.5t11.5 -35t6 -29.5t4.5 -37t3 -32l9 -74q3 -26 4.5 -36.5t6 -32t11.5 -31.5t18 -22t28 -17t40 -5h78l82 385q5 22 18 25l111 27q2 0 7 1t7 1q7 0 11 -4v-15l-89 -420h80 q93 0 142 111l47 107q37 84 63 118q44 56 109 82q54 21 98 21q6 0 10 -1t6.5 -2t3.5 -3.5t1 -3.5v-4v-3l4 -92q0 -11 -6 -16t-25 -8l-23 -5q-25 -4 -34.5 -7t-23 -16t-22.5 -30.5t-28 -58.5l-39 -82q-14 -30 -24 -47t-30 -44t-48 -45.5t-64 -29.5q88 -30 100 -154l19 -170 l1 -12q2 -12 2.5 -14t3.5 -12t7.5 -13.5t11.5 -9.5t18 -10t25 -6l23 -4q1 0 8 -1t10 -2.5t3 -5.5q0 -5 -5 -20l-43 -92q-7 -17 -32 -17q-46 0 -79 14t-50.5 32.5t-29 53t-14.5 58t-6 64.5l-12 145q-3 38 -11.5 61t-24.5 33t-29.5 12t-38.5 2h-82l-90 -430q-3 -16 -25 -16 h-106q-8 0 -12.5 3.5t-4.5 6v5.5v1l90 430h-80q-47 0 -78.5 -20.5t-64.5 -87.5l-70 -145q-3 -6 -13 -27.5t-12.5 -27t-12 -24t-13.5 -24t-13 -20t-15 -20.5t-16.5 -17t-20 -16.5t-21.5 -12.5t-26 -12q-57 -21 -123 -21h-9t-6.5 1.5t-6.5 5.5t-3 10z" />
<glyph unicode="&#x437;" horiz-adv-x="827" d="M-27 68q0 10 9 24l32 62q1 1 2.5 4.5t3.5 5.5l4.5 4.5t6 4t8.5 1.5t33 -14q105 -62 204 -62q109 0 179.5 63t70.5 148q0 39 -14 67t-32 41.5t-47 21.5t-47 9t-44 1h-63q-27 0 -21 26l14 68q3 15 9.5 21.5t23.5 6.5h49q121 0 183.5 58.5t62.5 134.5q0 21 -5.5 39.5t-19 38 t-43 31.5t-71.5 12q-13 0 -26.5 -1t-25 -2.5t-25 -4.5l-22.5 -5t-22 -6.5t-19.5 -6.5t-20 -7.5t-17.5 -7t-16.5 -7t-14.5 -6.5q-28 -12 -35 -12q-3 0 -6 1t-4.5 3t-2.5 4l-2 4t-1 3l-19 71q-6 24 47 47q138 60 267 60q75 0 128.5 -22t79 -58t36 -70t10.5 -71 q0 -90 -53 -164.5t-154 -106.5q68 -21 103.5 -73t35.5 -121q0 -63 -26 -124t-75.5 -113.5t-132 -85t-184.5 -32.5q-142 0 -246 58q-45 23 -45 39z" />
<glyph unicode="&#x438;" horiz-adv-x="1021" d="M94 186q0 25 3 45.5t9 45.5t7 28l137 645q1 3 2 9t1.5 8t3 6t6.5 6t11 4l105 27q9 3 19.5 0.5t7.5 -15.5l-134 -647q-2 -8 -6.5 -28.5t-7.5 -33t-5.5 -31t-2.5 -32.5q0 -38 12 -63.5t31.5 -35t33 -12.5t27.5 -3q53 0 108.5 26.5t92.5 57.5q44 38 76.5 99.5t44 103.5 t24.5 102l99 452q1 3 2 9t1.5 8t3 6t6.5 6t11 4l105 27q8 3 18.5 0.5t7.5 -15.5l-155 -727q-15 -64 -15 -94q0 -17 11 -74q3 -14 7.5 -26.5t6.5 -19t2 -11.5q0 -7 -18 -16l-86 -37q-28 -12 -44 23t-16 75q0 33 6 64l2 12h-4q-60 -84 -149.5 -138.5t-198.5 -54.5 q-102 0 -155.5 62t-53.5 153z" />
<glyph unicode="&#x439;" horiz-adv-x="1021" d="M94 186q0 25 3 45.5t9 45.5t7 28l137 645q1 3 2 9t1.5 8t3 6t6.5 6t11 4l105 27q9 3 19.5 0.5t7.5 -15.5l-134 -647q-2 -8 -6.5 -28.5t-7.5 -33t-5.5 -31t-2.5 -32.5q0 -38 12 -63.5t31.5 -35t33 -12.5t27.5 -3q53 0 108.5 26.5t92.5 57.5q44 38 76.5 99.5t44 103.5 t24.5 102l99 452q1 3 2 9t1.5 8t3 6t6.5 6t11 4l105 27q8 3 18.5 0.5t7.5 -15.5l-155 -727q-15 -64 -15 -94q0 -17 11 -74q3 -14 7.5 -26.5t6.5 -19t2 -11.5q0 -7 -18 -16l-86 -37q-28 -12 -44 23t-16 75q0 33 6 64l2 12h-4q-60 -84 -149.5 -138.5t-198.5 -54.5 q-102 0 -155.5 62t-53.5 153zM422 1348q0 15 1 24.5t4.5 14.5t5 6.5t9 2.5t9.5 1l69 12q8 2 21 2q3 0 5 -0.5t3.5 -1.5t2.5 -3t2 -3t1 -4v-4v-4.5v-4.5v-30q0 -107 98 -107q119 0 164 146q3 11 8 14t23 0l82 -12q20 -5 20 -17q0 -23 -32 -84q-37 -66 -110 -110.5t-169 -44.5 q-64 0 -110 21t-67.5 55t-30.5 66t-9 65z" />
<glyph unicode="&#x43a;" horiz-adv-x="933" d="M61 16l201 942q5 22 19 25l110 27q2 0 7.5 1t7.5 1q6 0 10 -4v-15l-88 -420h127q92 0 141 111l47 107q41 95 75.5 136t96.5 64q61 21 98 21q6 0 10 -1t6.5 -2t3.5 -3.5t1 -3.5v-4v-3l4 -92q0 -11 -6 -16t-25 -8l-22 -5q-44 -8 -59 -23t-50 -89l-39 -82q-14 -30 -24 -47 t-30 -44t-48 -45.5t-64 -29.5q89 -30 101 -154l18 -170q2 -24 8 -39t17 -22.5t19.5 -10t25.5 -5.5l22 -4q1 0 8 -1t10 -2.5t3 -5.5q0 -8 -4 -20l-43 -92q-7 -17 -33 -17q-58 0 -98 21q-17 9 -29.5 21t-21 32t-13.5 32t-8.5 40t-4 36t-3.5 40l-13 145q-3 38 -11.5 61 t-24.5 33t-29.5 12t-38.5 2h-129l-90 -430q-3 -16 -25 -16h-106q-8 0 -13 4.5t-4 11.5z" />
<glyph unicode="&#x43b;" horiz-adv-x="985" d="M-51 74q0 5 0.5 9.5t2.5 8t3.5 6t4.5 4t4.5 3t5.5 2t5.5 1t5.5 1t5 0.5l18 2q59 6 109.5 45.5t93.5 146.5q84 212 155 588l13 63q3 17 10.5 23t24.5 6h485q28 0 20 -31l-198 -932q-5 -20 -25 -20h-106q-20 0 -15 27l174 829h-253l-5 -18q-71 -312 -127 -488 q-32 -98 -69.5 -170.5t-97.5 -124.5q-97 -84 -216 -84q-26 0 -26 23z" />
<glyph unicode="&#x43c;" horiz-adv-x="1161" d="M27 16l254 949q6 18 22 18h146q4 0 6 -0.5t4.5 -5t3.5 -12.5l69 -445q13 -89 11 -143h6q24 68 67 143l258 445q6 18 23 18h152h2q4 0 6 -0.5t3.5 -4.5t0.5 -13l-146 -949q-3 -16 -20 -16h-119q-14 0 -12 16l127 711q7 43 14 76h-4q-8 -27 -37 -76l-286 -498 q-9 -14 -13.5 -17t-15.5 -3h-76h-4.5h-4t-3 0.5t-3 2t-2 3.5t-2 5.5t-1.5 8.5l-76 498q-6 30 -6 76h-4q-3 -18 -17 -76l-172 -711q-4 -16 -20 -16h-119q-20 0 -12 16z" />
<glyph unicode="&#x43d;" horiz-adv-x="1026" d="M63 27l197 923q1 2 2 8.5t2 8.5t3.5 6t6.5 6t11 4l104 27q9 3 19.5 0.5t7.5 -15.5l-88 -420h395l80 375q1 3 2 9t1.5 8t3 6t6.5 6t11 4l105 27q8 3 18.5 0.5t7.5 -15.5l-206 -975q-5 -20 -25 -20h-106q-20 0 -15 27l88 415h-395l-90 -422q-5 -20 -25 -20h-106 q-20 0 -15 27z" />
<glyph unicode="&#x43e;" horiz-adv-x="985" d="M68 313q0 134 35 258t94 215q43 66 97 113t109 70.5t102.5 33t94.5 9.5q153 0 229 -93.5t76 -252.5q0 -117 -32.5 -238.5t-94.5 -220.5q-148 -236 -409 -236q-76 0 -133 23.5t-88 58.5t-50 84t-24.5 89.5t-5.5 86.5zM223 317q0 -219 178 -219q64 0 134 42.5t120 131.5 q44 80 69.5 190t25.5 202q0 67 -17 113.5t-46 68.5t-57 30.5t-61 8.5q-71 0 -139 -42t-117 -132q-41 -77 -65.5 -187.5t-24.5 -206.5z" />
<glyph unicode="&#x43f;" d="M66 27l145 688q14 56 14 125q0 25 -8 71q-2 11 -5 22.5t-3 16.5q0 6 2 10t3.5 5t7.5 3l5 3l86 37q8 2 14.5 4t14 -8t14.5 -33q13 -44 13 -84q0 -22 -4 -68l-3 -24h5q147 217 366 217q102 0 146.5 -49t44.5 -123q0 -38 -21 -135l-145 -685q-5 -20 -25 -20h-106 q-20 0 -15 27l144 678q12 58 12 88q0 81 -92 81q-68 0 -141 -42t-134 -136q-72 -111 -96 -229l-94 -447q-5 -20 -25 -20h-106q-19 0 -14 27z" />
<glyph unicode="&#x440;" horiz-adv-x="978" d="M-31 -414l232 1084q12 58 12 131q0 48 -20 104q-2 7 -5 14t-4.5 10t-1.5 5q0 5 3 8.5t6 5.5t10.5 5t11.5 5l76 35q12 6 20 6q18 0 34.5 -48.5t25.5 -96.5q136 158 286 158q104 0 168 -70.5t64 -232.5q0 -115 -26 -253t-75 -237q-30 -61 -69.5 -107.5t-77 -72.5t-78.5 -42 t-71 -21t-58 -5q-24 0 -48.5 3.5t-42 8t-36.5 12t-29.5 12.5t-24 12t-15.5 8l-23 12l-86 -408q-3 -17 -7.5 -23t-15.5 -9l-108 -27q-8 -4 -19 -1.5t-8 15.5zM242 170l12 -8q76 -53 166 -53q146 0 227 170q42 90 63 205t21 216q0 35 -3 59t-14 53.5t-37 45.5t-67 16 q-92 0 -176 -95.5t-123 -280.5z" />
<glyph unicode="&#x441;" horiz-adv-x="804" d="M66 313q0 98 19.5 194.5t62.5 188t104 161.5t151 112.5t197 42.5q84 0 160 -27q86 -31 86 -59q0 -11 -8 -23l-43 -69q-10 -15 -19 -15q-11 0 -45 19q-62 36 -139 36q-177 0 -273 -167q-46 -81 -72 -188t-26 -204q0 -24 2.5 -45t13 -52.5t29 -53.5t55 -38.5t85.5 -16.5 q21 0 40 2.5t36.5 7.5t30 9.5t28 13.5t22.5 13t21.5 13.5t17.5 11.5q5 3 11.5 7t10.5 6.5t8.5 4t8.5 1.5q9 0 14 -9l31 -71q4 -8 4 -19q0 -18 -47 -45q-127 -84 -283 -84q-72 0 -126.5 22t-85.5 56t-50 81.5t-25.5 90.5t-6.5 92z" />
<glyph unicode="&#x442;" horiz-adv-x="1478" d="M66 27l145 688q14 70 14 116q0 44 -8 80q-1 6 -3 13l-3 10.5t-1.5 8t-0.5 7.5q0 15 18 21l70 30q22 11 29 11q8 0 15.5 -8.5t14 -36t6.5 -70.5q0 -37 -2 -55l-2 -25h4q55 84 138 139.5t182 55.5q86 0 130.5 -45.5t49.5 -116.5v-33h4q21 33 49 63.5t68.5 62t95 50.5 t113.5 19q91 0 138.5 -44.5t47.5 -119.5q0 -45 -20 -143l-146 -685q-5 -20 -24 -20h-107q-19 0 -14 27l143 678q13 64 13 88q0 35 -22 58t-66 23q-67 0 -121 -30t-86 -70t-58.5 -105.5t-38 -110t-26.5 -110.5q-1 -7 -2 -10l-92 -418q-5 -20 -25 -20h-106q-20 0 -15 27 l144 678q12 56 12 83q0 19 -4.5 35.5t-25.5 33.5t-58 17q-95 0 -164 -63q-70 -63 -106 -149.5t-58 -194.5l-94 -447q-5 -20 -25 -20h-106q-19 0 -14 27z" />
<glyph unicode="&#x443;" horiz-adv-x="876" d="M-184 -344l8 16l49 82q5 10 21 10l22 -12q1 0 17.5 -9.5t25 -13t25.5 -10t33.5 -9.5t33.5 -3q35 0 67.5 14t53.5 31t43 44.5t29.5 40.5t19.5 34l70 129h-74h-4h-5t-4.5 1t-4.5 3t-3.5 6t-2.5 10l-138 918q0 2 0.5 4.5t2 4t4 2.5t4 2t3.5 2t3 1l88 29l22 8q12 6 19 6 q8 0 12 -16l117 -901h4l393 905q6 12 12 12q2 0 9 -2t8 -2l96 -39q12 -3 12 -12q0 -4 -2.5 -9l-3.5 -7l-383 -856q-83 -186 -122 -251q-67 -113 -148 -175q-101 -74 -215 -74q-94 0 -187 55q-30 17 -30 31z" />
<glyph unicode="&#x444;" horiz-adv-x="1337" d="M68 287q0 115 33.5 251.5t84.5 233.5q33 62 73 108.5t74.5 71t73 39t63.5 18t50 3.5q85 0 162 -80l94 450q2 7 9 15.5t14 9.5l96 25q9 3 13 3.5t12.5 0.5t11 -5.5t0.5 -17.5l-103 -481q102 80 195 80q24 0 47.5 -3.5t59.5 -21.5t61.5 -48.5t45 -91t19.5 -142.5 q0 -106 -35 -249t-87 -241q-131 -244 -361 -244q-86 0 -135 64l-86 -404q-3 -17 -7.5 -23t-15.5 -9l-108 -27q-8 -4 -19 -1.5t-8 15.5l97 449q-75 -64 -173 -64q-112 0 -181.5 79.5t-69.5 236.5zM223 270q0 -30 5.5 -56.5t19.5 -54.5t45 -44.5t76 -16.5q65 0 149 68l135 635 q-22 40 -56.5 62t-68.5 22q-128 0 -202 -156q-44 -95 -73.5 -231t-29.5 -228zM666 166q65 -68 122 -68q157 0 232 205q31 83 56.5 205.5t25.5 204.5q0 172 -144 172q-73 0 -157 -84z" />
<glyph unicode="&#x445;" horiz-adv-x="833" d="M-90 43q0 8 8 16l420 451l-193 412q-1 3 -3.5 7.5t-2.5 6.5q0 8 13 14l86 33l20 8q15 6 18 6q9 0 13 -12l123 -291l24 -63q7 14 15 25t18 22t14 16l250 293q11 13 27 6l106 -43q8 -4 8 -10q0 -8 -8 -16l-379 -414l209 -449q4 -8 4 -14q0 -12 -12 -16l-117 -41 q-8 -2 -20 -2q-2 0 -3 2t-1.5 5.5t-1.5 4.5l-139 328l-21 55l-35 -47l-299 -344q-6 -6 -10 -6t-14 4l-107 41q-10 5 -10 12z" />
<glyph unicode="&#x446;" horiz-adv-x="1040" d="M94 186q0 25 3 45.5t9 45.5t7 28l137 645q1 3 2 9t1.5 8t3 6t6.5 6t11 4l105 27q9 3 19.5 0.5t7.5 -15.5l-134 -647q-2 -8 -6.5 -28.5t-7.5 -33t-5.5 -31t-2.5 -32.5q0 -38 12 -63.5t31.5 -35t33 -12.5t27.5 -3q54 0 109 26t92 58q51 43 85 113.5t60 191.5l99 452 q1 3 2 9t1.5 8t3 6t6.5 6t11 4l105 27q8 3 18.5 0.5t7.5 -15.5l-155 -727q-8 -33 -8 -78q0 -39 16 -63h106q2 0 7.5 0.5t7 0t5 -1.5t4 -4t0.5 -8.5t-1 -13.5l-76 -370q-2 -8 -8.5 -16t-13.5 -9l-86 -24q-11 -6 -26 -4t-11 22l63 301q-123 4 -123 152v12h-4 q-65 -91 -158 -142t-194 -51q-98 0 -151.5 61.5t-53.5 153.5z" />
<glyph unicode="&#x447;" horiz-adv-x="937" d="M133 557q0 28 12 94l64 307q3 21 20 25l109 27q8 2 16 2q7 0 11 -4v-15l-76 -358q-4 -28 -4 -41q0 -16 5.5 -31.5t19 -33.5t44 -29t74.5 -11q89 0 197 39l90 422q1 3 2 9t1.5 8t3 6t6.5 6t11 4l105 27q8 3 18.5 0.5t7.5 -15.5l-206 -975q-5 -20 -25 -20h-107 q-19 0 -14 27l80 374q-131 -39 -209 -39q-117 0 -184 48q-72 49 -72 147z" />
<glyph unicode="&#x448;" horiz-adv-x="1482" d="M92 135q0 37 21 144l143 671q1 2 2 8.5t2 8.5t3.5 6t6.5 6t11 4l104 27q8 3 19 0.5t8 -15.5l-152 -716q-12 -59 -12 -89q0 -7 0.5 -13.5t6 -20t15.5 -23t30.5 -17t49.5 -7.5q130 0 209 116q40 58 64 132t49 188l86 405q1 3 2 9t1.5 8t3 6t6.5 6t11 4l105 27q8 3 18.5 0.5 t7.5 -15.5l-151 -716q-12 -56 -12 -84q0 -34 21 -60t73 -26q152 0 248 178q46 86 75 229l93 434q1 3 2 9t1.5 8t3 6t6.5 6t11 4l105 27q8 3 18.5 0.5t7.5 -15.5l-153 -727q-15 -75 -15 -116q0 -44 8 -80q2 -9 5.5 -21.5t3.5 -17.5q0 -15 -19 -21l-69 -30q-22 -11 -29 -11 q-8 0 -16 8.5t-14.5 36t-6.5 70.5q0 37 2 55l2 25h-4q-55 -84 -137.5 -139.5t-181.5 -55.5q-86 0 -131 45.5t-50 116.5v33h-4q-22 -33 -49 -62.5t-67.5 -62t-95 -51.5t-113.5 -19q-82 0 -135.5 41t-53.5 123z" />
<glyph unicode="&#x449;" horiz-adv-x="1503" d="M94 135q0 37 21 144l143 671q1 2 2 8.5t2 8.5t3.5 6t6.5 6t11 4l104 27q8 3 19 0.5t8 -15.5l-152 -716q-12 -59 -12 -89q0 -81 104 -81q125 0 201 108q31 42 55.5 104t35.5 105t28 119l86 405q1 3 2 9t1.5 8t3 6t6.5 6t11 4l105 27q8 3 18.5 0.5t7.5 -15.5l-151 -716 q-12 -56 -12 -84q0 -33 21 -59.5t73 -26.5q86 0 160 63q112 95 163 344l93 434q1 3 2 9t1.5 8t3 6t6.5 6t11 4l105 27q8 3 18.5 0.5t7.5 -15.5l-153 -727q-9 -44 -9 -84q0 -32 17 -57h106q2 0 7.5 0.5t7 0t5 -1.5t4 -4t0.5 -8.5t-1 -13.5l-76 -370q-2 -8 -8.5 -16t-13.5 -9 l-86 -24q-11 -6 -26 -4t-11 22l63 301q-73 4 -104 57q-19 33 -19 95v12h-4q-22 -31 -48 -59.5t-66.5 -61.5t-95 -52.5t-113.5 -19.5q-86 0 -131 45.5t-50 116.5v33h-4q-22 -33 -49 -62.5t-67.5 -62t-95 -51.5t-113.5 -19q-82 0 -135.5 41t-53.5 123z" />
<glyph unicode="&#x44a;" horiz-adv-x="983" d="M72 869q1 6 6 18l53 82q9 14 29 14h332q28 0 20 -31l-78 -368q82 26 158 26q132 0 210.5 -68.5t78.5 -193.5q0 -161 -108 -269t-284 -108q-75 0 -165 20t-129 46q-14 9 -17.5 19t0.5 24l166 776h-246q-4 0 -7.5 0.5t-11.5 3.5t-7 9zM336 129q94 -31 151 -31 q115 0 176.5 68.5t61.5 163.5q0 76 -48 114.5t-140 38.5q-66 0 -129 -20z" />
<glyph unicode="&#x44b;" horiz-adv-x="1306" d="M63 55.5q-4 10.5 0 24.5l187 878q5 22 18 25l111 27q8 2 16 2q7 0 11 -4v-15l-87 -403q74 22 150 22q127 0 212 -69t85 -201q0 -71 -25.5 -136.5t-73.5 -118.5t-125 -84.5t-171 -31.5q-74 0 -157.5 19t-129.5 45q-17 10 -21 20.5zM221 129l31 -8q9 -2 31 -9t42 -10.5 t46 -3.5q107 0 173 63t66 169q0 44 -16.5 76t-44.5 48t-59 23.5t-66 7.5q-79 0 -133 -28zM877.5 9.5q-2.5 9.5 1.5 15.5l196 933q3 20 21 25l116 27q8 2 17 2q6 0 10 -4v-15l-205 -968q-4 -25 -30 -25h-107q-17 0 -19.5 9.5z" />
<glyph unicode="&#x44c;" horiz-adv-x="886" d="M81.5 55.5q-3.5 10.5 0.5 24.5l186 878q5 22 19 25l110 27q8 2 17 2q6 0 10 -4v-15l-86 -403q74 22 149 22q127 0 212 -69t85 -201q0 -71 -25.5 -136.5t-73.5 -118.5t-125 -84.5t-171 -31.5q-74 0 -157.5 19t-129.5 45q-17 10 -20.5 20.5zM240 129l30 -14q16 -8 57 -12.5 t62 -4.5q118 0 179 67t61 165q0 155 -187 155q-33 0 -58 -4.5t-75 -23.5z" />
<glyph unicode="&#x44d;" horiz-adv-x="874" d="M-12 88l53 88q5 10 12 10q10 0 53 -26q97 -62 175 -62q132 0 219 117q75 98 104 227h-323q-27 0 -21 25l16 78q4 24 31 24h326q6 37 6 76q0 59 -12.5 104t-31 70t-45 40.5t-49.5 20.5t-50 5q-24 0 -45 -3.5t-44 -13t-32.5 -14t-36 -20.5t-29.5 -17q-13 -7 -26 -16 t-20 -13t-11 -4q-5 0 -10 9l-31 81q0 1 -2 4t-2 4t-0.5 3.5t1 4.5t3.5 5q16 16 41 31q128 86 278 86q64 0 117.5 -19t98 -59t69.5 -112.5t25 -170.5q0 -146 -49 -293.5t-148 -251.5q-125 -135 -330 -135q-111 0 -217 54q-48 23 -60 35.5t-3 27.5z" />
<glyph unicode="&#x44e;" horiz-adv-x="1341" d="M63 27l197 923q1 2 2 8.5t2 8.5t3.5 6t6.5 6t11 4l104 27q9 3 19.5 0.5t7.5 -15.5l-88 -422h149q31 122 88 215q66 105 168 164.5t223 59.5q139 0 222.5 -86t83.5 -260q0 -117 -32.5 -238.5t-94.5 -220.5q-39 -62 -88 -107.5t-91.5 -69.5t-90.5 -38t-78.5 -17.5 t-61.5 -3.5q-138 0 -217 97q-66 86 -66 245q0 65 9 133h-152l-90 -426q-5 -20 -25 -20h-106q-20 0 -15 27zM590 317q0 -63 14.5 -108t39.5 -68t53 -33t61 -10q64 0 134 42.5t120 131.5q44 80 69 189.5t25 202.5q0 116 -48.5 168.5t-125.5 52.5q-29 0 -57.5 -7t-64 -24.5 t-70 -55t-62.5 -91.5q-39 -75 -63.5 -185t-24.5 -205z" />
<glyph unicode="&#x44f;" horiz-adv-x="962" d="M-20 80v3.5v3.5v3.5t0.5 4t1.5 4t2.5 4t3.5 3t5 2.5t6.5 2t8.5 1l23 2q9 1 17 3t14.5 3.5t13 6t10.5 6.5t9.5 8t8 8.5t7.5 10t6.5 10t7 11t6.5 10.5l96 158q26 42 56.5 71.5t47.5 39t31 14.5q-80 17 -127 76.5t-47 138.5q0 72 39 138t105 104q91 53 262 53h276 q19 0 20.5 -9.5t-3.5 -15.5l-197 -938q-5 -20 -24 -20h-107q-19 0 -14 27l84 393h-121q-13 0 -25.5 -2t-22 -4.5t-19.5 -9t-16 -10t-14.5 -13t-12 -13t-11 -15t-9 -14l-9 -15t-7.5 -13.5l-75 -137q-6 -11 -22 -43.5t-31.5 -56t-34.5 -41.5q-66 -62 -172 -62q-25 0 -33 3.5 t-8 13.5zM344 674q0 -63 42.5 -95t102.5 -32h166l66 309h-162q-62 0 -106.5 -17t-67 -45.5t-32 -57.5t-9.5 -62z" />
<glyph unicode="&#x451;" horiz-adv-x="911" d="M68 346q0 191 72.5 345t191.5 237.5t258 83.5q121 0 194.5 -67.5t73.5 -194.5q0 -359 -622 -359h-9q-4 -36 -4 -53q0 -74 25 -131q48 -98 168 -98q58 0 129.5 24t130.5 64q28 18 33 18q9 0 18 -14l49 -74q4 -4 4 -10q0 -13 -59 -54q-62 -42 -148.5 -67t-169.5 -25 q-98 0 -153 27t-94 70q-49 56 -68.5 120t-19.5 158zM244 518q103 -4 209.5 12.5t169.5 57.5q92 60 92 155q0 59 -35.5 100.5t-108.5 41.5q-32 0 -64.5 -7.5t-73.5 -31.5t-75 -62.5t-65.5 -107t-48.5 -158.5zM358 1280q0 41 32 72.5t73 31.5t72.5 -31.5t31.5 -72.5 q0 -42 -32 -73t-72 -31q-41 0 -73 31.5t-32 72.5zM731 1280q0 41 32 72.5t73 31.5t72.5 -31.5t31.5 -72.5q0 -42 -32 -73t-72 -31q-41 0 -73 31.5t-32 72.5z" />
<glyph unicode="&#x452;" d="M66 27l245 1153h-104q-28 0 -21 37l13 49q0 1 1.5 5.5t1.5 5t1.5 3.5t3 4t4.5 2t7 1.5t9 0.5h107l28 133q6 29 21 33l109 27q13 3 21 -1.5t5 -17.5l-37 -174h287q13 0 17 -6.5t-1 -32.5l-12 -49q0 -1 -0.5 -3.5t-1 -4t-1.5 -4t-2.5 -3.5t-3.5 -2.5t-5.5 -2t-7.5 -0.5 h-291l-49 -228q-11 -47 -48 -153l3 -4q156 217 356 217q203 0 203 -303q0 -322 -172 -662q-117 -229 -326 -438q-88 -88 -115 -88q-10 0 -16 6l-49 31q-10 7 -10 18q0 20 75 97q6 6 10 10.5t9 9.5q76 79 161 201t136 233q52 114 96.5 270.5t44.5 280.5q0 96 -27.5 146 t-93.5 50q-70 0 -145.5 -66.5t-128 -160t-70.5 -180.5l-92 -447q-5 -20 -25 -20h-106q-19 0 -14 27z" />
<glyph unicode="&#x453;" horiz-adv-x="806" d="M37 197q0 38 6.5 71t22 60.5t31.5 50t43.5 44t49 36.5t58.5 33.5t60 29.5t65 29q133 59 181 103.5t48 111.5q0 119 -133 119q-31 0 -61 -6.5t-47.5 -13t-40 -17t-27.5 -12.5q-32 -13 -35 -13q-8 0 -12 5.5t-4 9.5l-19 75q-3 4 -1 10t7 12.5t24 16.5t50 21q117 39 209 39 q58 0 103 -15.5t71.5 -39t43 -55t22.5 -60.5t6 -60q0 -40 -11 -76t-26.5 -63.5t-44.5 -54t-52 -44t-62.5 -38.5t-63.5 -32t-66 -30q-124 -54 -164 -83q-74 -56 -75 -138q0 -50 34 -87.5t107 -37.5q25 0 52 4.5t53.5 12t44 13.5t39 15t22.5 9q57 24 61 24q12 0 15 -10l22 -78 q5 -16 -2 -26.5t-39 -24.5q-53 -24 -139.5 -45t-163.5 -21q-121 0 -191.5 62.5t-70.5 163.5zM432 1188q0 9 10 16l318 232q9 6 16 6q14 0 21 -15l57 -102q6 -10 6 -16q0 -14 -10 -17l-358 -162q-12 -4 -15 -4q-4 0 -6 1t-3 2t-2.5 4t-2.5 4l-29 43q-2 2 -2 8z" />
<glyph unicode="&#x454;" horiz-adv-x="804" d="M66 313q0 98 19.5 194.5t62.5 188t104 161.5t151 112.5t197 42.5q84 0 160 -27q86 -31 86 -59q0 -11 -8 -23l-43 -69q-10 -15 -19 -15q-11 0 -45 19q-62 36 -139 36q-176 0 -273 -167q-37 -64 -57 -138h342q7 0 11 -0.5t8.5 -6.5t1.5 -17l-17 -78q-4 -25 -30 -25h-347 q-10 -54 -10 -123q0 -204 185 -204q46 0 90 14t58 22t48 29q5 3 11.5 7t10 6.5t8 4t9.5 1.5q9 0 14 -9l31 -71q4 -8 4 -19q0 -18 -47 -45q-127 -84 -283 -84q-72 0 -126.5 22t-85.5 56t-50 81.5t-25.5 90.5t-6.5 92z" />
<glyph unicode="&#x455;" horiz-adv-x="757" d="M-31 68q0 6 8 24l33 70q1 1 2.5 4.5t3.5 5.5l4.5 4.5t6 4t8.5 1.5q7 0 16 -5t26.5 -15t35.5 -17q80 -36 172 -36q89 0 136.5 50t47.5 115q0 33 -10 59.5t-35 51t-42.5 38t-57.5 40.5q-28 19 -38.5 26.5t-34.5 26t-34 29.5t-26 31.5t-23 38.5t-12.5 43t-5.5 53 q0 129 93 215t246 86q127 0 207 -49q37 -21 23 -50l-33 -63q-10 -21 -27 -21q-4 0 -9 2t-14.5 6.5t-17.5 8.5q-75 28 -141 28q-84 0 -128 -41.5t-44 -103.5q0 -52 30.5 -84t104.5 -80q31 -21 41 -28t35 -25t33 -27t25 -27t23 -32.5t14.5 -35t11 -43.5t2.5 -50 q0 -146 -101.5 -236t-259.5 -90q-65 0 -133.5 15.5t-116.5 42.5q-2 1 -11.5 7t-16 10t-12 10t-5.5 12z" />
<glyph unicode="&#x456;" horiz-adv-x="530" d="M107.5 874q-2.5 10 1.5 17l16 70q4 22 29 22h270q23 0 27.5 -14t-0.5 -23l-197 -926q-5 -20 -25 -20h-106q-19 0 -14 27l178 837h-162q-15 0 -17.5 10zM342 1354q0 47 33 80.5t82 33.5q47 0 80.5 -33.5t33.5 -80.5q0 -49 -33.5 -82t-80.5 -33t-81 34t-34 81z" />
<glyph unicode="&#x457;" horiz-adv-x="530" d="M107.5 874q-2.5 10 1.5 17l16 70q4 22 29 22h270q23 0 27.5 -14t-0.5 -23l-197 -926q-5 -20 -25 -20h-106q-19 0 -14 27l178 837h-162q-15 0 -17.5 10zM172 1280q0 41 31.5 72.5t72.5 31.5t73 -31.5t32 -72.5q0 -42 -32 -73t-73 -31t-72.5 31.5t-31.5 72.5zM463 1280 q0 41 31.5 72.5t72.5 31.5t73 -31.5t32 -72.5q0 -42 -32 -73t-73 -31t-72.5 31.5t-31.5 72.5z" />
<glyph unicode="&#x458;" horiz-adv-x="530" d="M-328 -350q0 4 3 9t3 7l37 80q6 14 19 14q10 0 37 -14q80 -39 133 -39q34 0 62 11.5t48.5 36t35 49t26.5 63t18.5 64.5t15.5 67q2 9 3 14l182 852h-162q-15 0 -17.5 10t1.5 17l16 70q4 22 29 22h270q23 0 27.5 -14t-0.5 -23l-211 -995q-9 -40 -16.5 -70t-22.5 -71.5 t-32 -72.5t-43.5 -64.5t-58 -54.5t-75 -34.5t-94.5 -13.5q-69 0 -151.5 27t-82.5 53zM350 1354q0 47 33 80.5t82 33.5q47 0 81 -33.5t34 -80.5q0 -49 -34 -82t-81 -33t-81 34t-34 81z" />
<glyph unicode="&#x459;" horiz-adv-x="1386" d="M-51 74q0 5 0.5 9.5t2.5 8t3.5 6t4.5 4t4.5 3t5.5 2t5.5 1t5.5 1t5 0.5l18 2q59 6 109.5 45.5t93.5 146.5q84 212 155 588l13 63q3 17 10.5 23t24.5 6h485q28 0 20 -31l-77 -362q74 22 149 22q127 0 212 -69t85 -201q0 -71 -25.5 -136.5t-73.5 -118.5t-125 -84.5 t-171 -31.5q-74 0 -157.5 19t-129.5 45q-17 10 -20.5 20.5t0.5 24.5l163 776h-253l-5 -18q-71 -312 -127 -488q-32 -98 -69.5 -170.5t-97.5 -124.5q-97 -84 -216 -84q-26 0 -26 23zM739 129l31 -8q60 -17 119 -17q95 0 167 56.5t72 169.5q0 17 -2.5 33t-13.5 38t-30 37.5 t-55 27t-85 11.5q-59 0 -133 -20z" />
<glyph unicode="&#x45a;" horiz-adv-x="1423" d="M63 27l197 923q1 2 2 8.5t2 8.5t3.5 6t6.5 6t11 4l104 27q9 3 19.5 0.5t7.5 -15.5l-88 -420h395l80 375q1 3 2 9t1.5 8t3 6t6.5 6t11 4l105 27q8 3 18.5 0.5t7.5 -15.5l-86 -405q86 22 152 22q127 0 212 -69t85 -201q0 -71 -25.5 -136.5t-73.5 -118.5t-125 -84.5 t-171 -31.5q-74 0 -157.5 19t-129.5 45q-17 10 -21 20.5t0 24.5l76 362h-395l-90 -422q-5 -20 -25 -20h-106q-20 0 -15 27zM776 129l31 -8q59 -17 119 -17q95 0 167 56.5t72 169.5q0 17 -2.5 33t-13.5 38t-30 37.5t-55 27t-85 11.5q-59 0 -135 -20z" />
<glyph unicode="&#x45b;" d="M66 27l245 1153h-104q-28 0 -21 37l13 49q0 1 1.5 5.5t1.5 5t1.5 3.5t3 4t4.5 2t7 1.5t9 0.5h107l28 133q6 29 21 33l109 27q13 3 21 -1.5t5 -17.5l-37 -174h287q13 0 17 -6.5t-1 -32.5l-12 -49q0 -1 -0.5 -3.5t-1 -4t-1.5 -4t-2.5 -3.5t-3.5 -2.5t-5.5 -2t-7.5 -0.5 h-291l-49 -228q-5 -25 -48 -153l5 -4q147 217 366 217q94 0 142.5 -44.5t48.5 -119.5q0 -51 -21 -143l-145 -685q-5 -20 -25 -20h-106q-20 0 -15 27l144 678q12 60 12 81q0 36 -20.5 62t-71.5 26q-85 0 -163.5 -57t-131.5 -149.5t-76 -200.5l-94 -447q-5 -20 -25 -20h-106 q-19 0 -14 27z" />
<glyph unicode="&#x45c;" horiz-adv-x="933" d="M61 16l201 942q5 22 19 25l110 27q2 0 7.5 1t7.5 1q6 0 10 -4v-15l-88 -420h127q92 0 141 111l47 107q41 95 75.5 136t96.5 64q61 21 98 21q6 0 10 -1t6.5 -2t3.5 -3.5t1 -3.5v-4v-3l4 -92q0 -11 -6 -16t-25 -8l-22 -5q-44 -8 -59 -23t-50 -89l-39 -82q-14 -30 -24 -47 t-30 -44t-48 -45.5t-64 -29.5q89 -30 101 -154l18 -170q2 -24 8 -39t17 -22.5t19.5 -10t25.5 -5.5l22 -4q1 0 8 -1t10 -2.5t3 -5.5q0 -8 -4 -20l-43 -92q-7 -17 -33 -17q-58 0 -98 21q-17 9 -29.5 21t-21 32t-13.5 32t-8.5 40t-4 36t-3.5 40l-13 145q-3 38 -11.5 61 t-24.5 33t-29.5 12t-38.5 2h-129l-90 -430q-3 -16 -25 -16h-106q-8 0 -13 4.5t-4 11.5zM535 1188q0 9 10 16l317 232q9 6 17 6q13 0 20 -15l57 -102q7 -12 7 -16q0 -13 -11 -17l-358 -162q-12 -4 -14 -4q-8 0 -15 11l-28 43q-2 2 -2 8z" />
<glyph unicode="&#x45e;" horiz-adv-x="876" d="M-184 -344l8 16l49 82q5 10 21 10l22 -12q1 0 17.5 -9.5t25 -13t25.5 -10t33.5 -9.5t33.5 -3q35 0 67.5 14t53.5 31t43 44.5t29.5 40.5t19.5 34l70 129h-74h-4h-5t-4.5 1t-4.5 3t-3.5 6t-2.5 10l-138 918q0 2 0.5 4.5t2 4t4 2.5t4 2t3.5 2t3 1l88 29l22 8q12 6 19 6 q8 0 12 -16l117 -901h4l393 905q6 12 12 12q2 0 9 -2t8 -2l96 -39q12 -3 12 -12q0 -4 -2.5 -9l-3.5 -7l-383 -856q-83 -186 -122 -251q-67 -113 -148 -175q-101 -74 -215 -74q-94 0 -187 55q-30 17 -30 31zM352 1348q0 15 1 24.5t4.5 14.5t5 6.5t9 2.5t9.5 1l70 12q8 2 20 2 q3 0 5 -0.5t3.5 -1.5t2.5 -3t2 -3t1 -4v-4v-4.5v-4.5v-30q0 -107 99 -107q54 0 94.5 31t60.5 90l9 25q0 1 1.5 5t2 5t2 3t4.5 2h8t12 -1l82 -12q21 -5 21 -17q0 -21 -33 -84q-37 -66 -110 -110.5t-169 -44.5q-64 0 -110 21t-67.5 55t-30.5 66t-9 65z" />
<glyph unicode="&#x45f;" horiz-adv-x="1021" d="M94 186q0 25 3 45.5t9 45.5t7 28l137 645q1 3 2 9t1.5 8t3 6t6.5 6t11 4l105 27q9 3 19.5 0.5t7.5 -15.5l-134 -647q-2 -8 -6.5 -28.5t-7.5 -33t-5.5 -31t-2.5 -32.5q0 -38 12 -63.5t31.5 -35t33 -12.5t27.5 -3q53 0 108.5 26.5t92.5 57.5q44 38 76.5 99.5t44 103.5 t24.5 102l99 452q1 3 2 9t1.5 8t3 6t6.5 6t11 4l105 27q8 3 18.5 0.5t7.5 -15.5l-155 -727q-15 -64 -15 -94q0 -17 11 -74q3 -14 7.5 -26.5t6.5 -19t2 -11.5q0 -7 -18 -16l-86 -37q-28 -12 -44 23t-16 75q0 33 6 64l2 12h-4q-60 -84 -149.5 -138.5t-198.5 -54.5 q-102 0 -155.5 62t-53.5 153zM301 -346l102 258l74 43q41 21 33 -21l-51 -249q-2 -7 -9 -15.5t-14 -9.5l-98 -25q-2 0 -9 -1.5t-10.5 -2t-8 0t-7.5 3.5q-8 8 -2 19z" />
<glyph unicode="&#x490;" horiz-adv-x="933" d="M86 31l287 1347q4 25 30 25h482l65 293q8 24 31 24h111q18 0 18 -18q0 -3 -8 -47l-78 -359q-3 -14 -6.5 -22t-11 -10.5t-10 -3t-13.5 -0.5h-477l-260 -1235q-8 -25 -31 -25h-111q-24 0 -18 31z" />
<glyph unicode="&#x491;" horiz-adv-x="655" d="M70 27l198 934q6 22 29 22h313l60 270q2 8 8.5 16t13.5 9l86 25q13 7 26.5 3.5t8.5 -30.5l-82 -391q-5 -21 -24 -21h-312l-180 -844q-5 -20 -25 -20h-106q-19 0 -14 27z" />
<glyph unicode="&#x2000;" horiz-adv-x="903" />
<glyph unicode="&#x2001;" horiz-adv-x="1806" />
<glyph unicode="&#x2002;" horiz-adv-x="903" />
<glyph unicode="&#x2003;" horiz-adv-x="1806" />
<glyph unicode="&#x2004;" horiz-adv-x="602" />
<glyph unicode="&#x2005;" horiz-adv-x="451" />
<glyph unicode="&#x2006;" horiz-adv-x="301" />
<glyph unicode="&#x2007;" horiz-adv-x="301" />
<glyph unicode="&#x2008;" horiz-adv-x="225" />
<glyph unicode="&#x2009;" horiz-adv-x="361" />
<glyph unicode="&#x200a;" horiz-adv-x="100" />
<glyph unicode="&#x2010;" horiz-adv-x="606" d="M53 453q-2 11 4 28l19 90q4 25 30 25h424q24 0 17 -33l-21 -96q-4 -17 -11 -21t-19 -4h-422q-19 0 -21 11z" />
<glyph unicode="&#x2011;" horiz-adv-x="606" d="M53 453q-2 11 4 28l19 90q4 25 30 25h424q24 0 17 -33l-21 -96q-4 -17 -11 -21t-19 -4h-422q-19 0 -21 11z" />
<glyph unicode="&#x2012;" horiz-adv-x="606" d="M53 453q-2 11 4 28l19 90q4 25 30 25h424q24 0 17 -33l-21 -96q-4 -17 -11 -21t-19 -4h-422q-19 0 -21 11z" />
<glyph unicode="&#x2013;" d="M56.5 475q0.5 7 4.5 21l19 69q0 1 1 4t1.5 5t2 4.5t2.5 3.5t3.5 3t5 3t6.5 1.5t9 0.5h860q23 0 12 -39l-18 -70q-3 -12 -9 -18t-8 -6h-10h-860q-13 0 -17.5 5.5t-4 12.5z" />
<glyph unicode="&#x2014;" horiz-adv-x="2048" d="M56.5 475q0.5 7 4.5 21l19 69q0 1 1 4t1.5 5t2 4.5t2.5 3.5t3.5 3t5 3t6.5 1.5t9 0.5h1884q23 0 12 -39l-18 -70q-3 -12 -9 -18t-8 -6h-10h-1884q-13 0 -17.5 5.5t-4 12.5z" />
<glyph unicode="&#x2018;" horiz-adv-x="417" d="M164 997q0 13 8 21l301 438q8 12 19 12q6 0 14 -4l43 -20q14 -7 14 -14q0 -5 -4 -13l-170 -413q-6 -13 -11.5 -17t-19.5 -4h-174q-8 0 -14 4t-6 10z" />
<glyph unicode="&#x2019;" horiz-adv-x="417" d="M145 1022q0 2 5 12l169 414q6 13 11.5 16.5t19.5 3.5h174q8 0 14.5 -4t6.5 -10q0 -12 -8 -20l-301 -439q-8 -12 -19 -12q-6 0 -14 4l-43 21q-14 9 -15 14z" />
<glyph unicode="&#x201c;" horiz-adv-x="950" d="M227 997q0 12 9 21l301 438q8 12 18 12q6 0 14 -4l43 -20q14 -9 15 -14q0 -5 -4 -13l-170 -413q-6 -13 -11.5 -17t-19.5 -4h-174q-8 0 -14.5 4t-6.5 10zM608 997q0 13 8 21l302 438q8 12 18 12q6 0 14 -4l43 -20q14 -9 15 -14q0 -5 -4 -13l-170 -413q-6 -13 -11.5 -17 t-19.5 -4h-174q-8 0 -14.5 4t-6.5 10z" />
<glyph unicode="&#x201d;" horiz-adv-x="950" d="M219 1022q0 4 4 12l170 414q6 13 11.5 16.5t19.5 3.5h174q8 0 14 -4t6 -10q0 -12 -8 -20l-301 -439q-8 -12 -18 -12q-7 0 -15 4l-43 21q-14 7 -14 14zM600 1022q0 4 4 12l170 414q6 13 11.5 16.5t19.5 3.5h174q8 0 14 -4t6 -10q0 -12 -8 -20l-301 -439q-8 -12 -18 -12 q-7 0 -15 4l-43 21q-14 7 -14 14z" />
<glyph unicode="&#x201e;" horiz-adv-x="950" d="M-29 -213q0 4 4 12l170 414q6 13 11.5 16.5t19.5 3.5h174q8 0 14.5 -4t6.5 -10q0 -11 -9 -20l-301 -439q-8 -12 -18 -12q-6 0 -14 4l-43 21q-15 7 -15 14zM352 -213q0 4 4 12l170 414q6 13 11.5 16.5t19.5 3.5h174q8 0 14.5 -4t6.5 -10q0 -11 -9 -20l-301 -439 q-8 -12 -18 -12q-6 0 -14 4l-43 21q-15 7 -15 14z" />
<glyph unicode="&#x2022;" d="M178 737q0 154 108.5 263.5t262.5 109.5t262.5 -109.5t108.5 -263.5q0 -153 -108.5 -260.5t-262.5 -107.5t-262.5 107.5t-108.5 260.5z" />
<glyph unicode="&#x2026;" horiz-adv-x="2048" d="M125 131q0 54 38 92.5t93 38.5q56 0 93.5 -38t37.5 -93t-37.5 -93t-93.5 -38q-55 0 -93 38.5t-38 92.5zM809 131q0 54 38 92.5t93 38.5q54 0 92.5 -38.5t38.5 -92.5q0 -56 -38 -93.5t-93 -37.5t-93 38.5t-38 92.5zM1493 131q0 54 38.5 92.5t92.5 38.5t92.5 -38.5 t38.5 -92.5t-38.5 -92.5t-92.5 -38.5t-92.5 38.5t-38.5 92.5z" />
<glyph unicode="&#x202f;" horiz-adv-x="361" />
<glyph unicode="&#x205f;" horiz-adv-x="451" />
<glyph unicode="&#x20ac;" d="M76 588l4 26q1 8 3.5 12.5t12 7.5t27.5 3h121l24 115h-127h-3h-5.5t-4.5 0.5t-5 1t-3.5 2t-2 3.5t-0.5 5l6 41q0 8 6 14q8 8 37 8h121q45 171 110 281q42 70 93 119t103.5 73.5t98.5 35t92 10.5q119 0 217 -58q48 -32 48 -49q0 -5 -13 -31l-24 -55q-5 -16 -23 -16h-4 q-10 0 -31 14q-50 25 -55 27q-75 30 -127 30q-120 0 -209 -116q-42 -56 -73 -128t-44 -137h394q12 0 16 -4q7 -7 2 -18l-16 -35q-6 -13 -13 -15.5t-38 -2.5h-363l-25 -115h353q26 0 16 -25l-14 -32q-8 -19 -43 -19h-324q-18 -99 -18 -207q0 -44 11 -92.5t30 -79.5 q46 -73 135 -73q58 0 151 53q14 9 29.5 19t40.5 26q18 12 27 12h2q11 0 16 -16l29 -74q4 -8 4 -16v-4q-1 -18 -60 -55t-88 -48q-86 -35 -168 -35q-166 0 -253 140q-64 103 -64 280q0 81 16 170h-133q-16 0 -20 4q-6 6 -2 23z" />
<glyph unicode="&#x2122;" horiz-adv-x="1294" d="M20 1235v55q0 21 14 25q5 2 13 2h479q25 0 17 -25l-19 -63q-2 -6 -3.5 -8.5t-4.5 -6t-9 -5t-15 -1.5h-156v-661q0 -13 -5.5 -19.5t-9 -7t-12.5 -0.5h-65q-13 0 -19.5 5.5t-7 9t-0.5 12.5v661h-170q-13 0 -19.5 5.5t-7 9t-0.5 12.5zM629 547l37 743q1 14 5 20t7.5 6.5 t13.5 0.5h78q7 0 12 -3t6.5 -6t3.5 -9t3 -7l147 -399h6l142 397q6 16 11 21.5t15 5.5h80q9 0 14.5 -1t8 -4t3 -5t1 -8t0.5 -9l51 -743q1 -12 -4 -18.5t-9.5 -7.5t-13.5 -1h-73q-9 0 -13 0.5t-9 7t-5 19.5l-19 547h-6l-133 -373q-12 -19 -18 -21h-53q-13 0 -21 23l-135 371 h-6l-8 -547q0 -13 -5 -19.5t-9 -7t-13 -0.5h-66q-8 0 -13 1t-9.5 7.5t-3.5 18.5z" />
<glyph unicode="&#x221a;" horiz-adv-x="989" d="M31 895v59q0 17 5.5 23t22.5 6h168q16 0 26 -1.5t14.5 -6.5t6 -7.5t3 -12t2.5 -13.5l213 -764h6l342 1221q0 2 2.5 15.5t5 15.5t13 6t30.5 4h39q18 0 24.5 -8.5t3.5 -20.5l-413 -1487q-5 -17 -10.5 -25t-9 -9t-13.5 -1h-63q-16 0 -22 10q-5 9 -9 25l-262 942h-97 q-17 0 -22.5 6t-5.5 23z" />
<glyph unicode="&#x221e;" horiz-adv-x="1720" d="M102 596q0 147 99 239.5t256 92.5q60 0 109.5 -13.5t97 -44.5t83 -62t89.5 -85l24 -25l25 25q54 54 89.5 85t83 62t97 44.5t109.5 13.5q157 0 255.5 -92t98.5 -240q0 -154 -99.5 -243t-242.5 -89q-80 0 -152 29t-121.5 68.5t-117.5 107.5l-25 25l-24 -25 q-103 -103 -190 -154t-202 -51q-143 0 -242.5 89t-99.5 243zM225 596q0 -93 66 -154t162 -61q79 0 144 38t144 116l64 61l-64 61q-73 71 -108 95q-85 59 -176 59q-101 0 -166.5 -61t-65.5 -154zM915 596l64 -61q79 -77 144 -115.5t145 -38.5q96 0 161.5 61t65.5 154t-65 154 t-166 61q-45 0 -86.5 -13t-77 -37.5t-58.5 -44.5t-52 -48q-7 -8 -11 -11z" />
<glyph unicode="&#x2248;" horiz-adv-x="1058" d="M61 299q0 10 17 37q112 170 268 170q43 0 85.5 -12.5t63 -22.5t60.5 -33q83 -47 109 -54q24 -7 53 -7q97 0 164 96q13 20 25.5 20.5t19.5 -8.5l57 -34q1 -1 4.5 -2.5t5 -2.5t3 -3.5t1.5 -6.5q0 -12 -14 -33q-24 -38 -46 -64.5t-54.5 -54t-75 -41.5t-94.5 -14 q-54 0 -95.5 14t-91.5 44q-40 24 -59 35t-53 22.5t-66 11.5q-106 0 -172 -98q-8 -13 -17.5 -16t-13 -1.5t-12.5 7.5l-57 35q-1 1 -4.5 2.5t-5.5 2.5t-3.5 4t-1.5 7zM61 604q0 10 17 37q112 170 268 170q43 0 85.5 -12.5t63 -22.5t60.5 -33q83 -47 109 -54q24 -7 53 -7 q97 0 164 96q6 9 10.5 14t9.5 5h7.5t9 -4t8.5 -5l57 -32q1 -1 4.5 -2.5t5 -2.5t3 -3.5t1.5 -6.5q0 -11 -14 -32q-24 -38 -46 -64.5t-54.5 -54t-75 -41.5t-94.5 -14q-55 0 -96.5 14t-90.5 43q-42 26 -59.5 35.5t-52 22t-66.5 12.5q-106 0 -172 -99q-8 -13 -17.5 -16t-13 -1.5 t-12.5 7.5l-57 35l-5 2.5l-5 2.5t-3.5 4t-1.5 7z" />
<glyph unicode="&#x2260;" horiz-adv-x="1003" d="M45 330v98q0 25 25 25h317l94 133h-411q-25 0 -25 24v99q0 11 4.5 17.5t20.5 6.5h514l129 185q13 19 32 6l70 -47q19 -13 6 -33l-78 -111h209q16 0 20.5 -6.5t4.5 -17.5v-99q0 -24 -25 -24h-311l-94 -133h405q25 0 25 -25v-98q0 -25 -25 -25h-508l-131 -186 q-13 -19 -32 -6l-70 47q-19 13 -6 33l80 112h-215q-25 0 -25 25z" />
<glyph unicode="&#x2264;" d="M49 608v78q0 24 23 33l827 299q12 6 25 6q12 0 18 -20l33 -95l4 -16q0 -15 -18 -19l-660 -235v-4l660 -234q18 -6 18 -20q0 -2 -4 -14l-23 -76q-5 -21 -18 -21q-7 0 -25 6l-837 299q-23 9 -23 33zM55 369q0 1 0.5 2.5t1.5 5t2 6.5l27 76q3 8 4 11t4.5 6t9.5 3q10 0 25 -6 l832 -293q18 -6 18 -20q0 -1 -0.5 -3t-1.5 -5.5t-2 -6.5l-27 -75q-6 -19 -13 -20q-2 -1 -5 -1q-10 0 -25 6l-831 293q-19 6 -19 21z" />
<glyph unicode="&#x2265;" d="M49 160q0 14 19 20l831 293q15 6 25 6q6 0 9.5 -3t4.5 -6t4 -11l27 -76q1 -3 2 -6.5t1.5 -5t0.5 -2.5q0 -15 -19 -21l-831 -293q-15 -6 -25 -6q-4 0 -7 1t-5 5.5t-3 6t-3 8.5l-27 75q-1 3 -2 6.5t-1.5 5.5t-0.5 3zM49 381q0 14 19 20l659 234v4l-659 235q-19 5 -19 19 l4 16l33 95q6 20 18 20q13 0 25 -6l827 -299q23 -9 23 -33v-78q0 -24 -23 -33l-837 -299q-15 -6 -25 -6q-13 0 -18 21l-23 76q-4 12 -4 14z" />
<glyph unicode="&#xe000;" horiz-adv-x="993" d="M0 0v993h993v-993h-993z" />
</font>
</defs>
</svg>
