<?xml version="1.0" standalone="no"?>
<!DOCTYPE svg PUBLIC "-//W3C//DTD SVG 1.1//EN" "http://www.w3.org/Graphics/SVG/1.1/DTD/svg11.dtd" >
<svg xmlns="http://www.w3.org/2000/svg">
<metadata></metadata>
<defs>
<font id="officinasansbookcregular" horiz-adv-x="1024" >
<font-face units-per-em="2048" ascent="1536" descent="-512" />
<missing-glyph horiz-adv-x="477" />
<glyph horiz-adv-x="2048" />
<glyph horiz-adv-x="2048" />
<glyph unicode="&#xd;" horiz-adv-x="2048" />
<glyph unicode=" "  horiz-adv-x="477" />
<glyph unicode="&#x09;" horiz-adv-x="477" />
<glyph unicode="&#xa0;" horiz-adv-x="477" />
<glyph unicode="!" horiz-adv-x="681" d="M199 115q0 59 42.5 101t100.5 42t100.5 -42t42.5 -101t-42.5 -101.5t-100.5 -42.5t-100.5 42.5t-42.5 101.5zM233 1378q-1 11 5 17t10.5 7t11.5 1h156q8 0 12.5 -1t9.5 -7t4 -17l-45 -809q0 -7 -0.5 -9.5t-2 -7.5t-7 -7t-14.5 -2h-66q-12 0 -17.5 4.5t-6 8.5t-0.5 13z " />
<glyph unicode="&#x22;" horiz-adv-x="833" d="M182 1464q-2 19 25 19h119q26 0 24 -19l-33 -495q-2 -27 -24 -27h-53q-23 0 -25 27zM485 1464q-2 19 25 19h119q26 0 24 -19l-32 -495q-2 -27 -25 -27h-53q-23 0 -25 27z" />
<glyph unicode="#" d="M84 246v100q0 16 16 16h146l43 410h-144q-16 0 -16 16v101q0 16 16 16h156l43 412q1 8 2 13t1.5 6.5t0.5 2.5q4 7 21 7h92q9 0 14 -5q2 -3 2 -7t-1 -9t-1 -8l-43 -412h250l43 412q1 8 2 13t1.5 6.5t0.5 2.5q3 7 21 7h92q9 0 14 -5q2 -3 2 -7t-1 -9t-1 -8l-43 -412h121 q16 0 16 -16v-101q0 -16 -16 -16h-133l-43 -410h131q16 0 16 -16v-100q0 -17 -16 -17h-146l-36 -364q-2 -16 -6.5 -22.5t-18.5 -6.5h-80q-24 0 -27 16q-1 5 0 13l37 364h-250l-36 -364q-2 -16 -6.5 -22.5t-18.5 -6.5h-80q-22 0 -26 14q-1 6 0 15l36 364h-131q-16 0 -16 17z M377 362h250l43 410h-250z" />
<glyph unicode="$" d="M125 82v6q0 2 2 8.5t2 7.5l35 89q3 10 9 11q3 1 7 1h2q4 0 7.5 -2t10.5 -6.5t15 -8.5q138 -72 258 -79v514l-39 22q-106 61 -147 95q-129 106 -129 264q0 134 88 229.5t227 107.5v121q0 25 25 25h61q25 0 25 -25v-116q143 -8 258 -72q30 -16 20 -41l-37 -90 q-9 -9 -14 -10h-6q-9 3 -31 14q-2 1 -18.5 9.5t-25 12t-28 11.5t-35 12.5t-38.5 9t-45 6.5v-465l34 -18q43 -22 73.5 -41t73 -54t69 -72.5t46 -93.5t19.5 -120q0 -136 -84 -238t-231 -126v-136q0 -24 -25 -24h-61q-25 0 -25 24v127q-150 6 -276 60q-69 27 -72 51zM326 1018 q0 -78 34.5 -128.5t100.5 -94.5l12 -9v418q-65 -10 -106 -56.5t-41 -129.5zM584 117q68 17 107.5 72.5t39.5 132.5q0 87 -43 153.5t-94 97.5l-10 7v-463z" />
<glyph unicode="%" horiz-adv-x="1554" d="M80 983q0 166 74 264.5t206 98.5q115 0 190 -82t75 -250q0 -169 -74.5 -268t-204.5 -99q-27 0 -54 4.5t-67.5 24.5t-70.5 53t-52 99t-22 155zM215 989q0 -231 131 -231q143 0 143 243q0 125 -36.5 179.5t-94.5 54.5q-61 0 -102 -55t-41 -191zM485.5 -19.5 q-3.5 9.5 3.5 23.5l408 1321q3 8 4.5 10.5t8 6.5t18.5 4h86q36 0 22 -35l-409 -1319q-6 -21 -29 -21h-86q-23 0 -26.5 9.5zM932 307q0 166 74 264.5t206 98.5q115 0 190 -82t75 -250q0 -169 -74.5 -268t-204.5 -99q-27 0 -54 4.5t-67.5 24.5t-70.5 53t-52 99t-22 155z M1067 313q0 -231 131 -231q143 0 143 244q0 125 -36.5 179t-94.5 54q-61 0 -102 -55t-41 -191z" />
<glyph unicode="&#x26;" horiz-adv-x="1249" d="M117 338q0 144 84 248q11 14 26 28.5t27 25.5t32 26t31.5 23t35.5 24.5t34 23.5q-51 48 -117 162q-59 105 -59 203q0 59 20 115t60 105.5t111 79.5t163 30q155 0 236.5 -84.5t81.5 -212.5q0 -141 -99 -256q-52 -59 -180 -148l338 -391q62 108 62 238v26q0 25 24 25h100 q25 0 25 -25v-12q0 -94 -33.5 -194.5t-85.5 -164.5l129 -149q13 -13 13 -21q0 -13 -13 -20l-78 -63q-1 -1 -4.5 -3.5t-6.5 -4t-7 -1.5h-6q-17 0 -29 15l-112 133q-58 -42 -90 -63t-79.5 -44t-97.5 -32t-114 -9q-188 0 -305 101.5t-117 265.5zM285 352q0 -46 15.5 -88 t46.5 -77.5t84.5 -56.5t123.5 -21q158 0 281 110l-367 432q-46 -27 -96 -82q-88 -95 -88 -217zM367 1118q0 -94 79 -205q46 -64 76 -94q19 11 54 39.5t53 46.5q98 98 98 209q0 90 -50 140.5t-124 50.5q-75 0 -130.5 -51t-55.5 -136z" />
<glyph unicode="'" horiz-adv-x="342" d="M86 1464q-1 8 3 12.5t8 5.5t9 1h127q23 0 21 -19l-31 -495q-3 -27 -18 -27h-68q-15 0 -18 27z" />
<glyph unicode="(" horiz-adv-x="757" d="M170 502q0 216 62.5 420t168.5 370q76 115 123 162q29 29 41 29q10 0 19 -6l53 -33q14 -9 14 -23q0 -10 -20 -35q-71 -83 -129 -202q-86 -172 -125 -334t-39 -348t39 -348t125 -334q59 -121 129 -203q20 -25 20 -35q0 -13 -14 -22l-53 -33q-9 -6 -19 -6q-9 0 -41 28 q-56 54 -123 164q-47 78 -83 151.5t-72.5 173t-56 218t-19.5 246.5z" />
<glyph unicode=")" horiz-adv-x="757" d="M106 -418q0 9 21 35q70 82 129 203q86 172 125 334t39 348t-39 348t-125 334q-58 119 -129 202q-21 26 -21 35q0 13 15 23l53 33q9 6 19 6q3 0 5.5 -1t6.5 -3.5t6.5 -5t9.5 -9t12 -10.5q56 -54 123 -164q47 -78 83 -151.5t72.5 -173t56.5 -217.5t20 -246q0 -215 -63 -420 t-169 -371q-76 -115 -123 -162q-28 -28 -40 -28q-10 0 -19 6l-53 33q-15 10 -15 22z" />
<glyph unicode="*" d="M176 1114q0 6 4 14l27 84q7 23 24 17l230 -94l-19 249q0 19 21 19h98q21 0 21 -19l-19 -249l230 94q17 6 24 -17l27 -84q4 -8 4 -14q0 -10 -14 -14l-242 -60l162 -190q13 -15 -11 -31l-69 -51q-13 -8 -17 -8t-14 10l-131 211l-131 -211q-10 -10 -14 -10t-17 8l-69 51 q-24 16 -11 31l162 190l-242 60q-14 4 -14 14z" />
<glyph unicode="+" d="M45 471v98q0 25 25 25h366v364q0 25 25 25h98q25 0 25 -25v-364h368q25 0 25 -25v-98q0 -25 -25 -25h-368v-368q0 -25 -25 -25h-98q-25 0 -25 25v368h-366q-25 0 -25 25z" />
<glyph unicode="," horiz-adv-x="378" d="M-6 -190q0 6 4 18l121 408q3 7 5 10.5t8.5 7.5t17.5 4h169q23 0 23 -14q0 -5 -8 -21l-236 -432q-9 -14 -12 -16q-2 -2 -8 -2q-5 0 -17 4l-53 18q-14 3 -14 15z" />
<glyph unicode="-" horiz-adv-x="720" d="M104 463v104q0 25 25 25h463q24 0 24 -25v-104q0 -25 -24 -25h-463q-25 0 -25 25z" />
<glyph unicode="." horiz-adv-x="606" d="M160 115q0 59 42 101t101 42t101 -42t42 -101t-42.5 -101.5t-100.5 -42.5t-100.5 42.5t-42.5 101.5z" />
<glyph unicode="/" horiz-adv-x="907" d="M-51 -403l790 1863q9 23 35 23h82q25 0 25 -17q0 -2 -9 -20l-786 -1856q-9 -20 -33 -20h-80q-37 0 -24 27z" />
<glyph unicode="0" d="M96 657q0 133 18.5 242t47 179t68.5 122.5t77.5 79t80.5 43t70 20t54 3.5t54 -3.5t70 -20t80.5 -43t77.5 -79t68.5 -122.5t47 -179t18.5 -242t-18.5 -241t-46.5 -177.5t-68.5 -122t-77.5 -79t-80 -42.5t-70.5 -20t-54.5 -4t-54.5 4t-70.5 20t-80 42.5t-77.5 79t-68.5 122 t-46.5 177.5t-18.5 241zM264 657q0 -542 248 -542t248 542q0 545 -248 545t-248 -545z" />
<glyph unicode="1" d="M152 1044q0 8 14 17l366 256h105q25 0 25 -25v-1159h184q11 0 16.5 -4t6.5 -8t1 -12v-84q0 -11 -4 -16.5t-8.5 -7t-11.5 -1.5h-549q-25 0 -25 25v84q0 7 1.5 11.5t7 8.5t16.5 4h209v1002l-283 -164q-14 -8 -22 -8t-13 10l-30 57q-6 10 -6 14z" />
<glyph unicode="2" d="M141 25v18q0 96 18.5 179.5t45.5 142.5t68.5 113.5t76 87.5t80.5 69q23 18 127 90q35 23 55 39.5t48 48t41.5 74t13.5 96.5q0 101 -53.5 160t-137.5 59q-81 0 -143 -51q-47 -41 -82 -123q-1 -2 -3.5 -8t-3.5 -8.5t-3 -8t-3.5 -7.5t-4.5 -6.5t-4.5 -4.5t-5 -3t-6 -1.5 t-7.5 0.5l-96 29q-17 3 -17 18q0 24 29 96q43 98 138 160t223 62q157 0 252.5 -102t95.5 -269q0 -44 -8.5 -83.5t-18.5 -69t-33 -60.5t-38.5 -49t-48 -44.5t-47.5 -37.5t-52 -37q-70 -49 -119 -90q-87 -72 -134 -157.5t-62 -203.5h534q16 0 20.5 -6.5t4.5 -17.5v-94 q0 -25 -25 -25h-690q-25 0 -25 25z" />
<glyph unicode="3" d="M109 74l43 96q4 12 16 12q3 0 47 -20q35 -19 96 -33t121 -14q137 0 207 71t70 187q0 252 -297 252h-74q-16 0 -20.5 6.5t-4.5 17.5v88q0 25 25 25h74q128 0 196 69t68 175q0 43 -13 77.5t-33.5 56.5t-47.5 36t-53 20t-52 6q-59 0 -115.5 -29.5t-93.5 -66.5q-2 -2 -6.5 -7 t-7.5 -8t-7.5 -6.5t-9 -5.5t-8.5 -2q-5 0 -14 6l-68 58q-12 12 -12 18q0 5 17 29q48 67 139 112.5t192 45.5q144 0 246 -90t102 -250q0 -211 -210 -295q49 -12 92.5 -36.5t81.5 -64t60 -100.5t22 -135q0 -184 -119 -294t-316 -110q-167 0 -299 58q-1 0 -2 1q-41 20 -32 44z " />
<glyph unicode="4" d="M63 315v119l531 883l8 12q9 15 17.5 16.5t19.5 -2.5l96 -16q25 -6 25 -18q0 -7 -8 -19l-527 -866h387l27 330q1 16 7.5 21t19.5 5h77q11 0 16.5 -4t7 -8.5t1.5 -11.5v-332h168q25 0 25 -25v-84q0 -7 -1.5 -11.5t-7 -8.5t-16.5 -4h-168v-291q0 -11 -2 -17.5t-6.5 -8.5 t-6.5 -2.5t-8 -0.5h-108q-25 0 -25 25v295h-524q-25 0 -25 24z" />
<glyph unicode="5" d="M145 32q1 7 2 15l23 92q0 2 1.5 5t6 6.5t10.5 3.5l37 -11q4 -1 19 -5t21.5 -6t21 -5t25 -4.5t26 -3.5t31.5 -3t34 -1q64 0 116 14t85 35t57.5 52.5t36.5 59t19 63t8.5 56t1.5 45.5q0 70 -17 121.5t-40.5 77.5t-55.5 41.5t-53 18.5t-43 3q-95 0 -180 -63q-4 -3 -62 -53 q-18 -16 -30 -11l-76 27q-13 5 -16 8q-4 6 -4 25l63 655q1 12 2.5 16.5t6.5 7.5t16 3h540q25 0 25 -25v-96q0 -8 -1 -11.5t-6.5 -7t-17.5 -3.5h-432l-45 -416l27 18q98 70 219 70q158 0 253 -114t95 -283q0 -124 -46 -224.5t-118 -158.5q-124 -95 -332 -95q-105 0 -217 33 q-20 6 -29 13.5t-8 14.5z" />
<glyph unicode="6" d="M127 516q0 144 27.5 295.5t87.5 263.5q39 75 94 129.5t102 80.5t102 41t82 17.5t54 2.5q78 0 151 -25q41 -15 31 -41l-31 -78q-6 -16 -20 -16q-8 0 -14 2q-67 20 -119 20q-56 0 -112.5 -24.5t-98.5 -61.5q-36 -32 -65 -73.5t-44.5 -73t-29.5 -80t-17.5 -66.5t-11.5 -61 l-4 -20l4 -5q36 71 107 114.5t157 43.5q158 0 251 -128t93 -327q0 -218 -113.5 -346.5t-283.5 -128.5q-81 0 -147 28t-119.5 89t-83 170t-29.5 258zM295 428q0 -156 57 -234.5t156 -78.5q102 0 164.5 85.5t62.5 237.5q0 162 -63 241t-152 79q-30 0 -57.5 -7t-59.5 -28.5 t-54.5 -56.5t-38 -96.5t-15.5 -141.5z" />
<glyph unicode="7" d="M139 1198v94q0 25 25 25h700q25 0 25 -25v-51l-473 -1241q-5 -20 -23 -18l-121 18q-17 0 -22 8q-5 5 4 27l442 1139h-532q-16 0 -20.5 6.5t-4.5 17.5z" />
<glyph unicode="8" horiz-adv-x="1032" d="M82 342q0 119 78.5 216.5t212.5 141.5q-35 15 -68 37t-73.5 61t-65.5 100.5t-25 135.5q0 133 98.5 222.5t276.5 89.5t276.5 -89.5t98.5 -222.5q0 -74 -25 -135.5t-65.5 -100.5t-73.5 -61t-68 -37q134 -44 212.5 -141.5t78.5 -216.5q0 -72 -28.5 -137.5t-81.5 -118 t-137 -84t-187 -31.5t-187 31.5t-137 84t-81.5 118t-28.5 137.5zM250 332q0 -39 15 -76.5t45 -71.5t83.5 -54.5t122.5 -20.5t122.5 20.5t83.5 54.5t45 71.5t15 76.5q0 47 -17.5 88.5t-40 68.5t-61 53t-64 38.5t-64.5 29.5l-19 8l-18 -8q-39 -17 -64.5 -29.5t-64 -38.5 t-61.5 -53t-40.5 -68.5t-17.5 -88.5zM307 1022q0 -40 15.5 -79.5t63 -88.5t122.5 -86l8 -4l8 4q75 37 122.5 86t63 88.5t15.5 79.5q0 78 -58 132t-151 54t-151 -54t-58 -132z" />
<glyph unicode="9" d="M125 870q0 217 114.5 346.5t286.5 129.5q63 0 117 -16.5t102.5 -56t82.5 -101t53.5 -155.5t19.5 -214q0 -165 -34 -344.5t-115 -294.5q-51 -73 -121 -118.5t-129 -60t-119 -14.5q-57 0 -160 23q-2 1 -6.5 2t-6 1.5t-5 2t-4.5 2.5t-3.5 3t-3 4.5t-1.5 6t-1 8t1 9.5l8 82 q0 18 18 18q10 0 37 -8q56 -16 113 -16q161 0 254 124q18 23 33 52t24 51t19 59.5t13.5 52.5t11.5 55.5t9 45.5l4 20l-4 4q-36 -70 -107 -113.5t-157 -43.5q-158 0 -251 127.5t-93 326.5zM293 879q0 -163 62 -242.5t153 -79.5q39 0 73.5 13t71 46t58.5 103.5t22 171.5 q0 155 -57 233t-156 78q-102 0 -164.5 -85.5t-62.5 -237.5z" />
<glyph unicode=":" horiz-adv-x="606" d="M160 115q0 59 42 101t101 42t101 -42t42 -101t-42.5 -101.5t-100.5 -42.5t-100.5 42.5t-42.5 101.5zM160 840q0 58 42 100.5t101 42.5t101 -42.5t42 -100.5q0 -59 -42.5 -101.5t-100.5 -42.5t-100.5 42.5t-42.5 101.5z" />
<glyph unicode=";" horiz-adv-x="636" d="M106 -215q0 3 5 18l120 408q3 7 5 10.5t8.5 7.5t17.5 4h170q23 0 23 -14q0 -2 -9 -20l-235 -432q-9 -16 -12 -17q-2 -2 -9 -2q-4 0 -16 4l-53 19q-15 4 -15 14zM190 840q0 58 42.5 100.5t101.5 42.5q58 0 100.5 -42.5t42.5 -100.5q0 -59 -41.5 -101.5t-101.5 -42.5 q-58 0 -101 43t-43 101z" />
<glyph unicode="&#x3c;" d="M45 471v96q0 24 23 33l827 299q12 6 25 6q12 0 18 -20l33 -94q4 -16 4 -17q0 -13 -19 -18l-659 -236v-4l659 -233q19 -6 19 -21q0 -1 -0.5 -2.5t-1.5 -5t-2 -6.5l-33 -94q-6 -19 -13 -20q-2 -1 -5 -1q-7 0 -25 6l-827 299q-23 9 -23 33z" />
<glyph unicode="=" d="M45 330v98q0 25 25 25h882q25 0 25 -25v-98q0 -25 -25 -25h-882q-25 0 -25 25zM45 610v99q0 11 4.5 17.5t20.5 6.5h882q16 0 20.5 -6.5t4.5 -17.5v-99q0 -24 -25 -24h-882q-25 0 -25 24z" />
<glyph unicode="&#x3e;" d="M49 262q0 15 19 21l659 233v4l-659 236q-19 5 -19 18q0 1 4 17l33 94q6 20 18 20q13 0 25 -6l827 -299q23 -9 23 -33v-96q0 -24 -23 -33l-827 -299q-18 -6 -25 -6q-4 0 -7 1t-5 5.5t-3 6t-3 8.5l-33 94q-1 3 -2 6.5t-1.5 5t-0.5 2.5z" />
<glyph unicode="?" horiz-adv-x="872" d="M78 1343q0 10 43 31q54 26 127.5 42t138.5 16q180 0 269 -91.5t89 -232.5q0 -44 -8 -84t-29.5 -83t-55.5 -77t-90.5 -63t-129.5 -45v-189q0 -11 -4 -16.5t-8 -6.5t-12 -1h-91q-11 0 -16.5 4t-6.5 8t-1 12v240q0 34 7.5 42.5t39.5 16.5q35 9 61 18.5t61.5 29t59 43 t40 61.5t16.5 84q0 91 -54.5 141.5t-146.5 50.5q-60 0 -123.5 -18.5t-101.5 -36.5q-18 -6 -21 -6q-15 0 -18 14l-31 78q-4 12 -4 18zM223 115q0 58 42.5 100.5t101.5 42.5t101 -42t42 -101t-42.5 -101.5t-100.5 -42.5q-59 0 -101.5 42.5t-42.5 101.5z" />
<glyph unicode="@" horiz-adv-x="1933" d="M137 369q0 204 77 386t207.5 312.5t311.5 206.5t381 76q305 0 491.5 -162.5t186.5 -442.5q0 -165 -69.5 -314.5t-187 -240t-249.5 -90.5q-46 0 -80 15.5t-51 36t-27 49.5t-12 47t-2 37h-4q-122 -183 -281 -183q-79 0 -127.5 59.5t-48.5 174.5q0 114 37 235t101 195 q101 115 239 115q90 0 156 -82l20 49q5 12 15 12h98q10 0 11.5 -7t-1.5 -15l-100 -469q-6 -30 -6 -35v-19q1 -22 4 -36.5t11 -31.5t25.5 -25.5t43.5 -8.5q56 0 116.5 37t113.5 102t87.5 168t34.5 221q0 225 -143 357.5t-396 132.5q-184 0 -342.5 -69t-267 -186t-170 -273 t-61.5 -328q0 -135 38 -246t114.5 -195t200.5 -130t286 -46q292 0 583 136q11 5 20 9.5t13.5 7t9.5 4.5t10 3h9q9 -2 14 -16l25 -60q5 -13 4.5 -23t-24.5 -25.5t-79 -37.5q-286 -116 -573 -116q-239 0 -416.5 83t-277 249t-99.5 397zM801 342q0 -113 73 -113q29 0 63.5 17.5 t71 51t67.5 93t46 133.5l35 168q-70 70 -137 70q-107 0 -168 -164q-51 -149 -51 -256z" />
<glyph unicode="A" horiz-adv-x="1134" d="M55 8q-2 2 -2 5q0 5 4 12l416 1355q4 12 10 17t9 5.5t12 0.5h121q8 0 11 -0.5t9 -5.5t10 -17l418 -1355q2 -6 2 -10q0 -8 -6 -13q-4 -2 -20 -2h-136h-2q-5 0 -7.5 0.5t-6.5 2.5t-7 7t-5 13l-115 395h-420l-104 -393q0 -2 -1 -5l-1.5 -4.5l-1.5 -4.5t-2.5 -4t-4.5 -2.5 t-6 -2.5t-8.5 -1.5t-11.5 -0.5h-133q-9 0 -13 1t-8 7zM389 561h342l-123 453q-31 114 -47 194h-4q-14 -97 -43 -194z" />
<glyph unicode="B" horiz-adv-x="1118" d="M195 25v1353q0 25 24 25h320q40 0 70.5 -1.5t75 -9t78 -20.5t70 -38t59.5 -59t38.5 -87t15.5 -119q0 -226 -203 -334q50 -12 93 -37t80 -65t58 -101.5t21 -138.5q0 -108 -39 -188.5t-96 -126.5q-58 -48 -136.5 -63t-221.5 -15h-283q-24 0 -24 25zM362 143h183 q23 0 44.5 2.5t55 9.5t60.5 24t52 42.5t39.5 68.5t14.5 99q0 70 -22.5 121t-53 76.5t-73.5 40t-70 17.5t-57 3h-173v-504zM362 784h130q24 0 43 1t48.5 7t52 16.5t47.5 30.5t41.5 47t27 69.5t10.5 95.5q0 57 -15 97.5t-36 61.5t-54.5 33t-59.5 14.5t-62 2.5h-173v-476z" />
<glyph unicode="C" horiz-adv-x="956" d="M106 715q0 44 1.5 82.5t6.5 95.5t13.5 105t25.5 105t39 102t56.5 89t77 73t100.5 47t127 18q82 0 167.5 -31.5t143.5 -87.5q8 -6 17.5 -19t9.5 -24q0 -9 -6 -15l-56 -71q-10 -10 -14 -10q-8 0 -37 26q-108 94 -215 94q-44 0 -81.5 -14t-63.5 -34t-47 -55t-34 -65.5 t-22.5 -77t-14 -77t-7 -78.5t-2.5 -69.5v-61.5q0 -77 3.5 -141.5t13 -145t30 -141t51.5 -114t80 -82.5t113 -29q90 0 209 94q30 24 38 24q12 0 17 -10l51 -65q8 -8 8 -23q0 -18 -26 -39q-59 -54 -140 -86.5t-166 -32.5q-48 0 -92 8t-92 30.5t-88 58t-77 93.5t-62.5 133.5 t-40.5 183t-15 237.5z" />
<glyph unicode="D" horiz-adv-x="1138" d="M199 25v1353q0 25 24 25h258q234 0 350 -86q201 -148 201 -593v-30q-2 -139 -18.5 -247t-63.5 -195q-35 -66 -81.5 -113.5t-92 -73.5t-104 -41.5t-105.5 -19.5t-108 -4h-236q-7 0 -11.5 1.5t-8.5 7t-4 16.5zM367 143h127q220 0 301 189q51 117 53 375v28q0 337 -115 447 q-38 35 -89.5 53.5t-84.5 21.5t-80 3h-112v-1117z" />
<glyph unicode="E" horiz-adv-x="989" d="M195 25v1353q0 25 24 25h643q12 -1 18 -7q4 -4 4 -9q0 -3 -1 -5l-35 -104q-4 -18 -27 -18h-459v-455h404q25 0 25 -25v-94q0 -11 -4.5 -17.5t-20.5 -6.5h-404v-519h492q16 0 20.5 -6.5t4.5 -17.5v-94q0 -25 -25 -25h-635q-24 0 -24 25z" />
<glyph unicode="F" horiz-adv-x="872" d="M195 25v1353q0 25 24 25h637q27 0 27 -16q0 -4 -2 -9l-31 -94q-7 -24 -33 -24h-455v-455h404q25 0 25 -25v-94q0 -11 -4.5 -17.5t-20.5 -6.5h-404v-637q0 -25 -24 -25h-119q-24 0 -24 25z" />
<glyph unicode="G" horiz-adv-x="1099" d="M106 711q0 58 3 111t15.5 128.5t33 138.5t59.5 129t91 111t131 74t177 29q174 0 302 -97q24 -18 24 -32q0 -5 -6 -17l-41 -76q-1 -1 -3 -5t-3 -5.5t-4.5 -3.5t-7.5 -2q-9 0 -25 12q-126 88 -240 88q-60 0 -108.5 -19.5t-81.5 -51t-57.5 -79t-38.5 -95t-22 -107.5 t-10.5 -109t-2.5 -106q0 -109 11.5 -209.5t45 -200.5t86.5 -145q34 -30 85 -46.5t102 -16.5q82 0 170 38v431h-164q-25 0 -25 24v84q0 25 25 25h307q24 0 24 -25v-586q0 -24 -6.5 -34t-21.5 -19q-67 -40 -157 -58t-159 -18q-77 0 -143 18t-114 48t-87 75t-64.5 91.5 t-44.5 104.5t-29.5 108t-16.5 108.5t-7.5 99.5t-1.5 87z" />
<glyph unicode="H" horiz-adv-x="1251" d="M195 25v1353q0 25 24 25h119q24 0 24 -25v-577h527v577q0 25 24 25h119q25 0 25 -25v-1353q0 -25 -25 -25h-119q-7 0 -11.5 1.5t-8.5 7t-4 16.5v632h-527v-632q0 -25 -24 -25h-119q-24 0 -24 25z" />
<glyph unicode="I" horiz-adv-x="765" d="M88 25v84q0 24 25 24h186v1137h-186q-11 0 -16.5 4t-7 8.5t-1.5 11.5v84q0 25 25 25h540q25 0 25 -25v-84q0 -7 -1.5 -11.5t-7 -8.5t-16.5 -4h-186v-1137h186q11 0 16.5 -4t7 -8.5t1.5 -11.5v-84q0 -25 -25 -25h-540q-25 0 -25 25z" />
<glyph unicode="J" horiz-adv-x="923" d="M14 344v33q0 24 25 24h106q11 0 16.5 -4t7 -8.5t1.5 -11.5v-19q0 -249 215 -249q100 0 149.5 62.5t49.5 170.5v918h-359q-11 0 -16.5 4t-6.5 8t-1 12v94q0 25 24 25h502q25 0 25 -25v-1032q0 -172 -88 -268q-99 -107 -289 -107q-182 0 -275 111q-86 104 -86 262z" />
<glyph unicode="K" horiz-adv-x="1060" d="M195 25v1353q0 25 24 25h119q24 0 24 -25v-671h5l524 710q10 15 20 15q5 0 19 -9l80 -57q1 -1 4.5 -3.5t5.5 -4.5t2 -6t-10 -19l-480 -637l494 -620q4 -6 4 -12q0 -4 -2 -8q-4 -10 -10 -13l-90 -61q-11 -11 -25 -11q-4 0 -7 2t-4.5 3.5t-5.5 6.5t-5 7l-514 678h-5v-643 q0 -25 -24 -25h-119q-24 0 -24 25z" />
<glyph unicode="L" horiz-adv-x="909" d="M190 25v1353q0 25 25 25h119q24 0 24 -25v-1235h521q14 0 20 -6q4 -4 4 -10q-1 -2 -3 -8q-2 -4 -1 -6l-33 -90q-8 -23 -32 -23h-619q-25 0 -25 25z" />
<glyph unicode="M" horiz-adv-x="1366" d="M152 25l77 1353q0 8 1 12t6.5 8.5t17.5 4.5h133q3 0 6 -0.5t4.5 -1t3.5 -2t3 -2.5t2 -3.5t1.5 -3t1.5 -4t1 -4.5l241 -706q21 -67 27 -127h4q6 60 27 127l243 706q6 14 10 17.5t13 3.5h133q17 0 21 -6.5t4 -18.5l79 -1353q0 -25 -24 -25h-119q-25 0 -25 25l-32 1052 q-1 13 -1 29q0 32 3 78h-4q-11 -81 -25 -121l-248 -713q-2 -6 -4 -10t-4.5 -6.5t-4.5 -3.5t-4.5 -1.5t-4 -0.5h-4.5h-4h-62h-3q-7 0 -11 0.5t-9 5.5t-8 16l-237 713q-9 28 -25 121h-4q3 -39 3 -73q0 -17 -1 -34l-31 -1052q0 -25 -24 -25h-119q-24 0 -24 25z" />
<glyph unicode="N" horiz-adv-x="1206" d="M184 25v1353q0 25 25 25h139q23 0 31 -19l448 -946q4 -8 7.5 -16t7 -17.5t6.5 -16.5t6 -19t5 -18t5.5 -20.5t5 -20t6 -23t5.5 -23.5h6q-21 120 -21 182v932q0 25 25 25h106q25 0 25 -25v-1353q0 -25 -25 -25h-114q-25 0 -33 20l-471 1012q-24 50 -53 174h-7 q21 -120 21 -182v-999q0 -25 -25 -25h-106q-25 0 -25 25z" />
<glyph unicode="O" horiz-adv-x="1138" d="M106 702q0 38 1 69t5.5 89t12.5 105t24.5 108.5t39 109t58.5 96t80 80.5t106.5 52.5t135.5 20.5q44 0 84.5 -7t88 -28t88 -54.5t78.5 -90.5t65 -131t43 -181.5t16 -237.5t-16.5 -238t-43 -182.5t-65 -131t-78.5 -90t-88 -54.5t-88.5 -28t-83.5 -7q-45 0 -86.5 7.5 t-89.5 28t-87.5 54.5t-77.5 90.5t-64 131t-42 182t-16 237.5zM291 606q0 -26 2.5 -78t7 -85.5t14 -82t23 -80t35 -67t48.5 -56t65 -34.5t83 -14q58 0 103.5 23t74.5 54.5t49.5 87t30.5 97.5t15 111t5.5 103t0.5 95v22q0 69 -1.5 120.5t-8 116.5t-18 112.5t-32.5 95.5 t-50 78.5t-72 49.5t-97 19q-58 0 -103.5 -23t-74 -55.5t-49 -88.5t-30 -99t-15 -111.5t-6 -103t-0.5 -94.5v-17v-23v-73z" />
<glyph unicode="P" horiz-adv-x="1046" d="M197 25v1353q0 25 24 25h318q32 0 53 -0.5t57.5 -4t62 -10t60 -19.5t58 -31.5t49 -47t40.5 -64.5t25 -86t10 -110q0 -88 -21 -159t-52 -115.5t-76.5 -77.5t-84.5 -49t-86 -25t-71.5 -10.5t-50.5 -1.5h-147v-567q0 -25 -25 -25h-119q-24 0 -24 25zM365 735h133 q28 0 47.5 1t52 7t55.5 16.5t50 31.5t43.5 50.5t28 75t11.5 103.5q0 47 -8 84t-20.5 62t-33.5 43t-41 27.5t-50 15t-53.5 7t-57.5 1.5h-157v-525z" />
<glyph unicode="Q" horiz-adv-x="1138" d="M106 698q0 131 16.5 239t43.5 182.5t66 132t80 91t90 54.5t91 28t87 7q71 0 131 -19.5t103 -51t78 -79.5t57 -94.5t38 -107.5t24 -108t12.5 -105.5t5.5 -91.5t1 -73q0 -304 -88 -487q-32 -65 -45 -78l-6 -6q47 -40 67.5 -56.5t54 -41t72.5 -47.5q3 -2 9.5 -5.5t10 -6 t7.5 -6t6 -8t2 -9.5q0 -6 -8 -14l-108 -74q-9 -6 -19 -6q-16 0 -37 14q-69 44 -176 154q-100 -54 -201 -54q-465 0 -465 727zM291 707q0 -80 3.5 -143t13 -136t29 -126.5t48.5 -99t75.5 -69.5t106.5 -24q53 0 95.5 18.5t71 49t49.5 78t33 95t19 111t9 116t2 119.5 q0 68 -2 123t-9.5 119t-19.5 113t-33 96.5t-49 78t-69.5 49.5t-92.5 19q-53 0 -96 -19t-71.5 -49.5t-50 -77.5t-33 -95t-18.5 -111.5t-9 -116t-2 -118.5z" />
<glyph unicode="R" horiz-adv-x="1079" d="M195 25v1353q0 25 24 25h318q41 0 73.5 -2t77.5 -10t79 -22t70.5 -41t60.5 -63.5t39 -92t15 -125.5q0 -153 -74.5 -253t-195.5 -141l340 -620q8 -16 8 -21q0 -12 -22 -16l-129 -25q-3 -1 -6 -1q-16 0 -25 18l-338 651h-148v-614q0 -25 -24 -25h-119q-24 0 -24 25z M362 772h134q28 0 42.5 0.5t49.5 5t56.5 13t51 27.5t46.5 45t29.5 68t12.5 95q0 63 -15.5 107.5t-38.5 68.5t-60.5 37.5t-70 17t-79.5 3.5h-158v-488z" />
<glyph unicode="S" horiz-adv-x="948" d="M49 90q0 13 4 21l35 88q7 18 18 18q10 0 46 -20q1 0 12 -5.5t19.5 -9.5t24.5 -11.5t31 -13t34.5 -12.5t39 -11.5t41 -9t44 -7t44.5 -2.5q67 0 117 22.5t77 59t39.5 75.5t12.5 80q0 26 -5 49.5t-10.5 42.5t-20 39t-23 32.5t-31 31t-31.5 26.5t-37.5 25.5t-36.5 22 t-41 22.5t-38 21q-36 20 -54.5 30.5t-51.5 30.5t-50.5 34t-44.5 36.5t-42 41.5t-32.5 45.5t-26.5 53.5t-15.5 60t-6.5 69q0 71 25.5 136t74 117t125.5 83t172 31q171 0 320 -80q25 -14 29.5 -24t-2.5 -21l-35 -88q-8 -19 -19 -19q-7 0 -35 14q-3 1 -22 11t-25 13t-25.5 12 t-30.5 12.5t-31 9.5t-36 8.5t-37.5 5t-43.5 2.5q-102 0 -161 -57.5t-59 -147.5q0 -36 8 -66.5t27.5 -56.5t37.5 -45t53 -41.5t59 -35.5t69 -37q107 -55 181 -111q163 -129 163 -317q0 -78 -27 -149t-77.5 -128t-132.5 -91t-184 -34q-87 0 -187 26.5t-178 65.5q-37 16 -37 27 z" />
<glyph unicode="T" horiz-adv-x="944" d="M47 1284v94q0 25 25 25h807q23 0 23 -17q0 -6 -3 -14l-33 -90q-7 -22 -32 -22h-289v-1235q0 -25 -25 -25h-119q-24 0 -24 25v1235h-305q-16 0 -20.5 6.5t-4.5 17.5z" />
<glyph unicode="U" horiz-adv-x="1216" d="M170 377v1001q0 25 25 25h118q25 0 25 -25v-997q0 -32 4 -62t20 -70.5t43.5 -69.5t79.5 -49.5t123 -20.5q59 0 105.5 13.5t75 38t47.5 51.5t28 60.5t12 58t3 50.5v997q0 25 24 25h119q25 0 25 -25v-1001q0 -23 -1.5 -44t-10 -65t-24 -79.5t-48.5 -78t-78 -71.5 t-116.5 -48.5t-160.5 -19.5t-160.5 19.5t-116.5 48.5t-77.5 71.5t-48 78t-24.5 79.5t-10 65t-1 44z" />
<glyph unicode="V" d="M47 1368q0 13 21 18l65 17l51 12q12 1 18 2h2q4 1 8 -5t5 -9t2 -10l260 -1078q15 -65 29 -163h4q5 40 31 159l260 1073q5 24 12 29q8 6 25 2l112 -29q25 -8 25 -20q0 -2 -0.5 -4t-2 -7.5t-3.5 -11.5l-359 -1335q-1 -5 -2.5 -8.5t-3 -5.5t-4 -4t-4 -2.5t-4.5 -1t-4 -0.5 h-4h-4h-144h-4h-4t-4 0.5t-4.5 1t-4 2.5t-4 4t-3 5.5t-2.5 8.5l-355 1338q-1 2 -3.5 10t-2.5 12z" />
<glyph unicode="W" horiz-adv-x="1441" d="M66 1366q0 15 20 20l115 29q1 0 2 1q4 1 8 1q13 0 16 -12q1 -3 1.5 -6t1 -8.5t1.5 -10.5l175 -997q6 -31 12 -154l4 -63h4l4 49q13 140 21 180l196 983q3 13 7 18.5t7 6t11 0.5h119h7.5t6 -2t7 -7.5t3.5 -15.5l170 -1011q18 -113 21 -201h4l2 63q6 109 12 140l186 1011 q5 27 11 33q4 4 10 4q4 0 10 -2l115 -29q20 -5 20 -18q0 -2 -0.5 -4.5l-1.5 -7.5l-2 -10l-280 -1336q-5 -24 -25 -24h-145q-21 0 -25 24l-172 1133h-4l-213 -1133q-5 -24 -25 -24h-137q-19 0 -24 24l-252 1336z" />
<glyph unicode="X" horiz-adv-x="985" d="M27 47q0 7 5 16l5 9l356 659l-330 600q-10 20 -10 21v4q0 8 4 12t19 10l71 25l31 10q5 4 12 4q2 -1 4 -1q10 -2 19 -17l229 -422l52 -107q24 59 53 115l215 399q11 19 19 26q7 7 10 7q1 0 12 -4l102 -43q23 -10 23 -22q0 -8 -10 -23l-336 -588l370 -659q11 -16 11 -23 q0 -6 -3 -10t-5.5 -5.5t-8 -3.5t-6.5 -3l-102 -43l-5 -2q-5 -2 -6 -2t-5 1t-7 4.5t-7.5 10t-10.5 16.5l-250 461q-21 35 -53 115l-48 -102l-256 -482q-1 -2 -5 -8t-5 -8q-10 -11 -28 -4l-103 35q-22 9 -22 22z" />
<glyph unicode="Y" horiz-adv-x="985" d="M6 1362q0 19 21 24l71 17l52 12q8 2 13 2t9 -2q10 -4 18 -24l312 -641q3 8 57 127l250 518q0 1 2 5t2.5 4.5t2.5 4t3 3.5t3.5 2t4.5 2h5q2 1 3.5 1t3.5 -1q4 0 9 -1l123 -29q12 -4 16 -10q3 -5 3 -11q0 -8 -5 -19l-407 -750v-571q0 -25 -25 -25h-119q-24 0 -24 25v567 l-398 754q-6 12 -6 16z" />
<glyph unicode="Z" horiz-adv-x="909" d="M53 25v110l602 1125h-551q-24 0 -24 14q0 6 4 16l33 90q8 23 33 23h677q25 0 25 -25v-102l-606 -1133h604q11 0 16.5 -4t6.5 -8t1 -12v-94q0 -11 -4 -16.5t-8.5 -7t-11.5 -1.5h-772q-25 0 -25 25z" />
<glyph unicode="[" horiz-adv-x="757" d="M238 -389v1833v6.5t1.5 6t4 6.5t7.5 3.5t13 1.5h359q8 0 12 -1t8 -6.5t4 -16.5v-78q0 -25 -24 -25h-230v-1628h230q8 0 12 -1t8 -6.5t4 -16.5v-78q0 -11 -4 -16.5t-8.5 -7t-11.5 -1.5h-361q-7 0 -11.5 1.5t-8.5 7t-4 16.5z" />
<glyph unicode="\" horiz-adv-x="903" d="M57 1466q0 17 23 17h82q26 0 35 -23l790 -1855q6 -18 6 -21q0 -14 -24 -14h-82q-24 0 -33 20l-791 1856q-6 18 -6 20z" />
<glyph unicode="]" horiz-adv-x="757" d="M113 -311q0 11 4 16.5t8 6.5t12 1h230v1628h-230q-24 0 -24 25v78q0 8 1 12t6.5 8t16.5 4h359q12 0 18.5 -4.5t7 -8t0.5 -11.5v-1833q0 -11 -4 -16.5t-8.5 -7t-11.5 -1.5h-361q-7 0 -11.5 1.5t-8.5 7t-4 16.5v78z" />
<glyph unicode="^" d="M127 707q0 3 10 26l293 653q8 17 27 17h112q19 0 27 -17l293 -653q10 -22 10 -26q0 -12 -20 -17l-99 -28q-21 -7 -30 12l-238 528l-236 -528q-5 -15 -20 -15q-4 0 -10 3l-99 28q-20 5 -20 17z" />
<glyph unicode="_" d="M0 -154h1024v-102h-1024v102z" />
<glyph unicode="`" d="M201 1327q0 3 8 19l59 88q11 16 21 16q5 0 20 -10l305 -236q9 -4 9 -14q0 -5 -9 -16l-26 -39q-9 -9 -15 -9t-14 4l-340 177q-1 1 -4 2.5t-5 3t-4.5 3.5t-3.5 5t-1 6z" />
<glyph unicode="a" horiz-adv-x="948" d="M94 260q0 35 5.5 68t24 74t48.5 74.5t84.5 64t126.5 47.5q119 28 215 28h33v74q0 30 -2.5 52.5t-13 49t-28.5 43t-50.5 28t-77.5 11.5q-119 0 -228 -53q-24 -12 -30 -12q-12 0 -17 10l-30 82q-5 13 2 24t15.5 15.5t25.5 11.5q146 60 280 60q153 0 231 -72t78 -209v-465 q0 -85 25 -147q8 -21 29 -58q8 -11 8 -16q0 -6 -12 -14l-86 -54q-8 -5 -14 -6h-2q-4 0 -14 8q-10 9 -24 31q-22 38 -39 92l-2 7l-8 -9q-26 -26 -44.5 -41.5t-54 -39.5t-80.5 -36t-97 -12q-72 0 -127.5 24.5t-87 66.5t-47 92t-15.5 106zM250 266q0 -83 45 -125.5t102 -42.5 q60 0 121.5 38.5t99.5 76.5l13 12v264h-31q-30 0 -59.5 -2.5t-73 -9t-79 -22.5t-68.5 -39t-51.5 -62t-18.5 -88z" />
<glyph unicode="b" d="M109 47q0 5 4 11t14 23t20 40q25 55 25 129v1180q0 20 16 24l107 27q8 2 18 2q15 0 15 -27v-549q57 51 126 78t134 27q47 0 89 -10t88.5 -40.5t79 -80t54 -136t21.5 -200.5q0 -97 -9.5 -176.5t-35 -155.5t-67 -127.5t-109 -83t-156.5 -31.5q-157 0 -258 101 q-6 -15 -14.5 -34.5t-25 -43t-28.5 -23.5q-5 0 -18 9l-78 51q-12 8 -12 16zM328 186q47 -33 103 -55t99 -22q44 0 78.5 14t57.5 35.5t39.5 58t25.5 70.5t14 84t6 88t1 92q0 60 -3 101t-15 86.5t-33 72.5t-59 45t-91 18q-88 0 -180 -69l-43 -33v-586z" />
<glyph unicode="c" horiz-adv-x="894" d="M113 471q0 135 34.5 241t93 170t130 97t151.5 33q143 0 264 -86q36 -25 36 -43q0 -5 -3 -9l-49 -92q-4 -8 -10 -8q-8 0 -25 14q-59 46 -102 66t-98 20q-51 0 -92 -17t-67 -42.5t-45 -63.5t-28.5 -70.5t-14.5 -74t-6 -64.5t-1 -50q0 -38 1.5 -70t7 -73t15.5 -73 t27.5 -64.5t42 -54t60.5 -35t81 -13.5q95 0 225 71q15 8 25 10h4q8 0 10 -10l37 -92q2 -4 2 -12q0 -14 -76 -51q-118 -54 -231 -54q-60 0 -113.5 13t-107 47.5t-92 89t-62.5 144.5t-24 206z" />
<glyph unicode="d" d="M104 477q0 137 27.5 239.5t66 157t92.5 88t94.5 42t84.5 8.5q126 0 229 -70v488q0 20 17 24l106 27q8 2 19 2q14 0 14 -27v-1132v-28.5v-28t0.5 -25t1 -26t2 -23t3.5 -24.5t5.5 -22t7.5 -24q7 -20 17 -37.5t16 -26.5t5 -14q0 -6 -17 -18l-80 -50q-19 -12 -38.5 8t-32 49 t-19.5 58l-16 -12q-144 -109 -269 -109q-27 0 -53.5 4t-61 17.5t-64 35.5t-59.5 61t-51 90.5t-34 128t-13 169.5zM272 492q0 -44 0.5 -70t4 -71.5t10 -74t20 -64t32 -55.5t48 -34t66.5 -14q77 0 209 94l36 26v578q-117 67 -204 67q-43 0 -77.5 -12t-57.5 -31.5t-39.5 -50.5 t-25.5 -61t-14 -72t-6.5 -76t-1.5 -79z" />
<glyph unicode="e" horiz-adv-x="956" d="M86 492q0 243 115 381.5t295 138.5q46 0 87 -9t84.5 -29.5t77.5 -58.5t61.5 -92t42.5 -135.5t15 -183.5v-10q0 -21 -5.5 -28t-16.5 -7h-588v-10q0 -86 24.5 -153t66 -107t90.5 -60t102 -20q101 0 225 71q16 8 24 10h5q7 0 10 -10l37 -92q2 -4 2 -12q0 -14 -76 -51 q-118 -54 -232 -54q-64 0 -124 15t-119.5 53t-103.5 95t-71.5 149.5t-27.5 208.5zM254 586h442q0 98 -32 174q-52 125 -183 125q-92 0 -158 -73.5t-69 -225.5z" />
<glyph unicode="f" horiz-adv-x="645" d="M51 881v77q0 25 25 25h133v160q0 75 10 130.5t43 104.5q75 105 232 105q14 0 27.5 -0.5t26.5 -2.5t23 -3.5t23 -5.5t20 -5.5t20 -6t16.5 -6t17 -6.5t14.5 -5q35 -15 35 -34q0 -4 -2 -9l-35 -84q-3 -12 -14 -12q-13 0 -50 14q-70 29 -129 29q-70 0 -100 -43 q-22 -32 -22 -129v-191h294q30 0 21 -29l-27 -80q-6 -18 -26 -18h-262v-831q0 -25 -25 -25h-107q-24 0 -24 25v831h-133q-25 0 -25 25z" />
<glyph unicode="g" d="M104 479q0 120 23 214t60.5 153t88.5 97.5t102.5 53.5t106.5 15q63 0 128 -22.5t108 -53.5l14 -10q4 11 6 16t6.5 16.5t7.5 17t8 14.5t10 13t11 7q4 3 9 3h3q6 -1 13 -5l92 -58q8 -5 8 -12v-2q0 -6 -10 -23q-53 -86 -53 -172v-346l14 -465v-18q0 -80 -24 -143 q-26 -70 -76 -113t-115.5 -64.5t-144.5 -21.5q-81 0 -164 19t-135 49q-2 1 -13 7.5t-16 10t-10.5 10t-5.5 12.5q0 1 6 19l35 78q5 10 14 12q8 0 43 -18q42 -21 110.5 -41.5t135.5 -20.5q205 0 205 205v16l-7 211q-130 -112 -276 -112q-65 0 -121 26.5t-101 79.5t-70.5 141.5 t-25.5 204.5zM272 504q0 -45 2.5 -81t8.5 -77.5t18.5 -72t31.5 -56.5t49 -39.5t69 -13.5q96 0 239 102v553q-36 23 -93 39t-95 16q-230 0 -230 -370z" />
<glyph unicode="h" horiz-adv-x="1062" d="M172 25v1405q0 20 16 24l107 27q8 2 18 2q15 0 15 -27v-584q159 140 325 140q50 0 89.5 -12t64 -29t42.5 -46.5t26 -52t12.5 -60t5 -55.5t0.5 -52v-680q0 -25 -25 -25h-106q-25 0 -25 25v684q0 23 -0.5 36.5t-8 41t-20.5 44t-41.5 30t-68.5 13.5q-79 0 -150.5 -39 t-119.5 -85v-725q0 -25 -25 -25h-106q-25 0 -25 25z" />
<glyph unicode="i" horiz-adv-x="571" d="M49 881v77q0 25 25 25h288q27 0 27 -31v-927q0 -11 -4 -16.5t-8.5 -7t-11.5 -1.5h-107q-25 0 -25 25v831h-159q-25 0 -25 25zM174 1343q0 54 36.5 90.5t90.5 36.5t90.5 -36.5t36.5 -90.5t-36.5 -90t-90.5 -36t-90.5 36t-36.5 90z" />
<glyph unicode="j" horiz-adv-x="571" d="M-158 -334l39 86q5 10 17 10h2q5 0 11.5 -3t21 -10t30.5 -13q74 -29 129 -29q30 0 53 6.5t37.5 17.5t25 26.5t15.5 33.5t8 38t2.5 40t-0.5 39v20v928h-161q-25 0 -25 25v77q0 25 25 25h290q27 0 27 -31v-1061q0 -36 -4 -70t-22 -82.5t-47.5 -83.5t-87 -60t-134.5 -25 q-124 0 -229 51q-26 13 -26 32q0 6 3 13zM174 1343q0 54 36.5 90.5t90.5 36.5t90.5 -36.5t36.5 -90.5t-36.5 -90t-90.5 -36t-90.5 36t-36.5 90z" />
<glyph unicode="k" horiz-adv-x="915" d="M162 25v1405q0 20 16 24l107 27q8 2 18 2q14 0 14 -27v-924l412 467q13 13 21 13t14 -6l80 -56q12 -8 12 -16q0 -9 -14 -23l-346 -383l364 -462q10 -10 10 -19q0 -7 -6 -10l-84 -57q-1 -1 -4.5 -3.5t-6.5 -4t-7 -1.5t-8 2t-6.5 4.5t-5 6t-3.5 4.5l-417 516h-5v-479 q0 -25 -24 -25h-107q-24 0 -24 25z" />
<glyph unicode="l" horiz-adv-x="530" d="M154 305v1125q0 20 16 24l106 27q8 2 19 2q14 0 14 -27v-1165q0 -102 6 -131q15 -62 86 -62q36 0 80 19q20 8 29 8q3 0 5.5 -5t2.5 -7l29 -80q2 -5 2 -9q0 -10 -10 -16q-70 -37 -164 -37q-100 0 -158 52q-43 37 -55 110q-8 47 -8 172z" />
<glyph unicode="m" horiz-adv-x="1476" d="M137 942q0 7 10 12l93 52q24 14 36 -13q26 -52 33 -104q76 62 139.5 92.5t149.5 30.5q137 0 190 -123q93 67 160 95t131 28q62 0 106 -21t67 -50.5t36 -75.5t16 -80t3 -80v-680q0 -25 -25 -25h-106q-25 0 -25 25v684q0 165 -133 165q-76 0 -182 -71l-17 -12v-766 q0 -11 -4 -16.5t-8.5 -7t-11.5 -1.5h-107q-7 0 -11.5 1.5t-8.5 7t-4 16.5v684q0 165 -134 165q-55 0 -100.5 -20.5t-97.5 -62.5v-766q0 -25 -25 -25h-106q-25 0 -25 25v702q0 137 -33 201q-6 12 -6 14z" />
<glyph unicode="n" horiz-adv-x="1062" d="M137 940q0 7 10 12l97 54q5 6 13 6h5q12 -2 25 -29q24 -46 32 -111q161 140 340 140q48 0 86 -11.5t62.5 -28.5t41.5 -45.5t25.5 -51.5t13 -59.5t5 -56.5t0.5 -54v-680q0 -25 -25 -25h-106q-25 0 -25 25v684q0 24 -1.5 41.5t-9 42.5t-20.5 41t-39.5 28t-62.5 12 q-72 0 -145.5 -37.5t-124.5 -86.5v-725q0 -25 -25 -25h-106q-25 0 -25 25v735q0 84 -24 137l-7 12q-10 18 -10 31z" />
<glyph unicode="o" d="M104 492q0 118 26 211t66.5 149.5t96 94t109 51.5t110.5 14t110.5 -14t109 -51.5t96 -94t66.5 -149.5t26 -211t-26 -211t-66.5 -150t-96 -94t-109 -51.5t-110.5 -14.5t-110.5 14.5t-109 51.5t-96 94t-66.5 150t-26 211zM272 492q0 -29 1 -55.5t6.5 -68.5t14.5 -76 t27.5 -71.5t43 -63t62.5 -42.5t85 -17t85 17t62.5 42.5t43 63t27.5 71.5t14.5 76t6.5 68.5t1 55.5t-1 55.5t-6.5 68.5t-14.5 76t-27.5 71.5t-43 63t-62.5 42t-85 16.5t-85 -16.5t-62.5 -42t-43 -63t-27.5 -71.5t-14.5 -76t-6.5 -68.5t-1 -55.5z" />
<glyph unicode="p" horiz-adv-x="1028" d="M123 936q0 9 10 14l88 56q19 11 35 -5q37 -37 55 -110l17 12q144 109 268 109q26 0 51 -4t59.5 -17.5t64.5 -35t60.5 -61t52 -92t35 -130.5t13.5 -174q0 -97 -14 -176t-36.5 -133t-54.5 -94.5t-64.5 -63.5t-70.5 -37t-68 -18.5t-61 -4.5q-114 0 -223 70v-418 q0 -20 -16 -24l-99 -25q-12 -3 -20 -3q-21 0 -21 21v1125q0 106 -47 190q-14 21 -14 29zM340 176q44 -27 103.5 -47t111.5 -20q42 0 74.5 12t54 30t37 50t24 61.5t13 74.5t5.5 79.5t1 85.5q0 53 -2 92t-8.5 85.5t-20.5 78t-35.5 60t-56 42.5t-80.5 14q-92 0 -221 -100v-598z " />
<glyph unicode="q" horiz-adv-x="985" d="M102 496q0 132 32 234t86 162t119.5 90t139.5 30q122 0 250 -99l6 15q25 58 43 76q11 8 14.5 8t14.5 -6l76 -43q16 -8 16 -19v-2q0 -9 -10 -24l-4 -9q-41 -82 -41 -176v-1110q0 -20 -15 -24l-112 -27q-8 -2 -14 -2q-7 0 -9 2q-6 5 -6 20v500l-12 -10q-4 -3 -11 -9 q-38 -31 -61.5 -48t-70.5 -35.5t-95 -18.5q-47 0 -91.5 15t-90 53t-79 95.5t-54.5 150.5t-21 211zM270 504q0 -85 8 -150t29 -123.5t62 -90t102 -31.5q39 0 82 20t65 37.5t54 46.5l16 14v568l-20 12q-3 2 -10 6q-31 19 -50 29t-53.5 21t-67.5 11q-217 0 -217 -370z" />
<glyph unicode="r" horiz-adv-x="645" d="M117 934q0 11 8 16l82 54l6 4l4.5 3t3.5 1h4q16 -2 35 -33q35 -64 47 -139l29 32q25 29 32.5 38t34.5 34.5t45.5 36t48.5 21t60 10.5q35 0 78 -17q17 -6 17 -17q0 -5 -3 -11l-49 -113q-4 -12 -12 -12q-3 0 -5.5 1t-7.5 4t-10 5q-16 8 -37 8q-66 0 -166 -121l-32 -41v-673 q0 -25 -25 -25h-106q-25 0 -25 25v702q0 81 -35 156l-14 28q-8 16 -8 23z" />
<glyph unicode="s" horiz-adv-x="796" d="M72 70q0 12 2 14l39 82q3 10 12 10h6q3 0 55 -24q40 -20 97.5 -34t103.5 -14q80 0 124 40.5t44 107.5q0 21 -5.5 39t-11.5 30.5t-24 28t-27 23t-39 22.5t-41 20t-49 23t-56 26.5t-51.5 27.5t-50 32.5t-39.5 37t-33.5 46.5t-19 55t-8.5 68q0 124 83.5 202.5t217.5 78.5 q62 0 144 -21q61 -16 106 -41q29 -16 19 -37l-35 -75q-6 -15 -21 -15q-8 2 -17.5 7t-12.5 6q-94 43 -170 43q-79 0 -118.5 -39t-39.5 -99q0 -29 10.5 -53.5t24.5 -41t45 -35.5t52 -29t67 -31q37 -17 54.5 -25t50.5 -26.5t49.5 -32.5t39.5 -37t34 -47t19.5 -56.5t8.5 -70.5 q0 -91 -48.5 -157.5t-121.5 -97t-158 -30.5q-74 0 -152.5 21.5t-124.5 44.5l-8 5q-7 4 -11.5 7.5t-9.5 9t-5 11.5z" />
<glyph unicode="t" horiz-adv-x="720" d="M35 881v77q0 16 6.5 20.5t17.5 4.5h144v281q0 17 22 24l109 31q7 2 12 2t7.5 -1.5t3.5 -4.5t1 -5v-6.5v-5.5v-315h304q29 0 20 -29l-27 -80q-6 -18 -26 -18h-271v-582q0 -33 1 -52t7.5 -43.5t18.5 -37.5t35.5 -22.5t56.5 -9.5q78 0 168 43q24 12 29 12h4q4 0 7 -1.5t4 -3 t2 -4.5l1 -3l25 -80q2 -10 2 -18t-21 -21t-65 -29q-85 -33 -178 -33q-127 0 -193 72q-36 41 -47.5 94t-11.5 137v582h-144q-7 0 -11.5 1.5t-8.5 7t-4 16.5z" />
<glyph unicode="u" horiz-adv-x="1060" d="M164 279v679q0 22 14 25l111 27q7 1 13 1q11 0 15 -5q2 -4 2 -13v-719q0 -89 45 -127t113 -38q108 0 244 104v745q0 22 14 25l111 27q10 2 16 2t8 -2q4 0 4 -4q3 -6 3 -13v-774q0 -36 16 -82q4 -13 10.5 -25.5t13 -23.5t7.5 -14q2 -4 6 -10.5t6 -10.5t2 -8q0 -8 -16 -16 l-82 -52q-7 -4 -14 -4q-19 0 -38 31q-26 48 -34 72l-6 16q-82 -67 -154 -94t-150 -27q-74 0 -127.5 19.5t-82 47.5t-45 72.5t-21 81.5t-4.5 87z" />
<glyph unicode="v" horiz-adv-x="909" d="M43 944q-3 6 -3 10t3 7t16 6l68 16l41 12q5 2 10 2q13 0 17 -16l227 -666q23 -64 37 -129h4q3 22 8.5 43t9.5 32.5t10.5 28.5t8.5 23l241 668q5 10 7 12q5 4 11 4q4 0 9 -2l109 -28q18 -5 18 -15q0 -2 -2 -7.5t-2 -6.5l-371 -934q0 -1 -1.5 -4.5t-2 -4.5t-2.5 -3.5t-4 -3 t-5.5 -1.5t-8.5 -1h-82q-11 0 -15 2q-6 4 -10 16z" />
<glyph unicode="w" horiz-adv-x="1290" d="M72 952q0 11 12 15l102 28q6 2 10 2q6 0 11 -4q3 -3 6 -16l147 -672q14 -58 21 -112h4q4 38 23 112l194 658q7 20 25 20h82q20 0 24 -20l168 -684q12 -50 14 -86h5q2 46 12 86l174 698q5 20 19 20q4 0 8 -2l102 -28q12 -3 12 -15q0 -5 -2 -12l-268 -934q-4 -13 -9 -16.5 t-16 -3.5h-82q-7 0 -11.5 1.5t-6.5 4t-3 4.5t-2 5.5t-1 4.5l-162 621q-20 77 -22 155h-5q-10 -84 -30 -153l-193 -623q0 -3 -6 -11.5t-16 -8.5h-82q-17 0 -23 20l-231 928l-2 8l-1.5 6t-0.5 4z" />
<glyph unicode="x" horiz-adv-x="909" d="M27 43q0 10 8 18l340 441l-297 420q-8 11 -8 16q0 10 16 16l72 29l24 10q7 4 14 4q4 0 8 -1q10 -4 12 -6t7 -9l232 -363l243 363q11 16 25 16q10 0 18 -4l95 -39q13 -5 15 -11t-7 -21l-307 -404l319 -457q8 -11 8 -16q0 -9 -12 -14l-100 -41q-8 -4 -17 -4q-13 0 -24 16 l-191 285q-42 61 -65 108q-16 -24 -74 -108l-201 -287q-8 -12 -15 -14h-4q-8 0 -24 4l-98 41q-12 4 -12 12z" />
<glyph unicode="y" horiz-adv-x="911" d="M4 -315l41 82q5 10 14 10q5 0 10 -2.5t13.5 -9t13.5 -9.5q88 -59 158 -59q36 0 63 18q56 38 95 156l43 129h-74q-21 0 -27 18l-321 904q-8 23 12 30l78 31l18 8q18 6 25 6q15 0 20 -16l258 -774q21 -63 39 -139l2 -9h4q4 35 31 144l205 778q3 16 20 16q13 0 21 -4 l100 -41q11 -5 13 -12q1 -3 1 -7q0 -7 -3 -20l-252 -837q-83 -275 -125 -357q-29 -57 -75 -92.5t-85.5 -46t-81.5 -10.5q-52 0 -108 16q-61 17 -132 60q-17 10 -17 25q0 7 3 14z" />
<glyph unicode="z" horiz-adv-x="858" d="M68 25v81l514 744h-449q-11 0 -16.5 4t-6.5 8t-1 12v84v6.5v6t1 5t3.5 4.5t7.5 2t12 1h619q7 0 12 -1t7.5 -2t3.5 -4.5t1 -5v-6v-6.5v-84l-510 -741h506q25 0 25 -15q0 -4 -2 -9l-39 -91q-7 -18 -27 -18h-639q-16 0 -18 5q-4 7 -4 20z" />
<glyph unicode="{" horiz-adv-x="872" d="M129 510v74q0 11 4.5 17.5t20.5 6.5h43q28 0 48 2t47.5 12.5t44.5 29t29.5 54t12.5 85.5v364q0 64 15 115.5t36 84t55 56t61.5 34.5t66 17t58.5 7t48 1h45q11 0 16.5 -4t6.5 -8t1 -12v-78q0 -25 -24 -25h-39q-64 0 -104.5 -14.5t-58 -44t-22.5 -57t-5 -70.5v-364 q0 -42 -4.5 -72t-18 -64t-43.5 -61.5t-76 -48.5q46 -21 76 -48.5t43.5 -61.5t18 -64t4.5 -72v-364q0 -34 2.5 -57t13.5 -50t30.5 -42.5t55.5 -26.5t88 -11h39q11 0 16.5 -4t6.5 -8t1 -12v-78q0 -16 -6.5 -20.5t-17.5 -4.5h-45q-28 0 -48 1t-58 7t-66 17.5t-62 35t-55 56 t-36 84t-15 115.5v364q0 50 -12.5 85.5t-29.5 54t-44.5 28.5t-47.5 12t-48 2h-43q-25 0 -25 25z" />
<glyph unicode="|" horiz-adv-x="622" d="M238 -487v1998q0 25 24 25h98q25 0 25 -25v-1998q0 -25 -25 -25h-98q-7 0 -11.5 1.5t-8.5 7t-4 16.5z" />
<glyph unicode="}" horiz-adv-x="872" d="M84 -274q0 24 25 24h38q52 0 88.5 11t56 26.5t30.5 42.5t13.5 50t2.5 57v364q0 42 4 71.5t17.5 64t43.5 62t76 48.5q-46 21 -76 48.5t-43.5 62t-17.5 64t-4 71.5v364q0 34 -2.5 57t-13.5 49.5t-30.5 42.5t-56 26.5t-88.5 10.5h-38q-25 0 -25 25v78q0 7 1.5 11.5t7 8.5 t16.5 4h45q28 0 48 -1t58.5 -7t66 -17t61.5 -34.5t55 -56t36 -84t15 -115.5v-364q0 -50 12.5 -85.5t29.5 -54t44.5 -29t47.5 -12.5t48 -2h43q11 0 16.5 -4t6.5 -8t1 -12v-74q0 -25 -24 -25h-43q-28 0 -48 -2t-47.5 -12t-44.5 -28.5t-29.5 -54t-12.5 -85.5v-364 q0 -64 -15 -115.5t-36 -84t-55 -56t-62 -35t-66 -17.5t-58 -7t-48 -1h-45q-25 0 -25 25v78z" />
<glyph unicode="~" horiz-adv-x="1009" d="M12 457q0 10 17 37q112 170 268 170q43 0 85.5 -12.5t63 -22.5t60.5 -33q83 -47 109 -54q24 -7 53 -7q96 0 163 96q13 20 26 20.5t20 -8.5l57 -35q1 -1 5.5 -3t6.5 -4t2 -7q0 -12 -14 -33q-24 -38 -46 -64.5t-54.5 -54t-75 -41.5t-94.5 -14q-54 0 -96 14t-91 43 q-42 26 -59.5 35.5t-52 22t-66.5 12.5q-106 0 -172 -98q-8 -13 -17.5 -16t-13 -1.5t-12.5 7.5l-57 34q-1 1 -4.5 2.5t-5.5 3t-3.5 4.5t-1.5 7z" />
<glyph unicode="&#xa3;" horiz-adv-x="1026" d="M57 653v84q0 25 25 25h160q-35 123 -35 186q0 180 112 289t308 109q143 0 268 -56q51 -22 37 -49l-41 -84q-5 -10 -17 -12h-6l-7.5 2.5t-8.5 3.5t-11.5 5.5t-15.5 6.5q-106 45 -198 45q-131 0 -198 -68t-67 -163q0 -57 21 -172l8 -43h281q7 0 11.5 -1.5t8.5 -7t4 -16.5 v-84q0 -11 -4 -16.5t-8 -6.5t-12 -1h-248l4 -17q33 -129 33 -237q0 -103 -25 -215l-6 -27h553q41 0 25 -33l-35 -80q-8 -20 -31 -20h-846q-7 0 -11.5 1.5t-8.5 7t-4 16.5v84q0 11 4 16.5t8 6.5t12 1h178l5 17q26 102 26 229q0 130 -31 235l-4 15h-188q-25 0 -25 24z" />
<glyph unicode="&#xa8;" d="M203 1288q0 44 32 76.5t76 32.5q45 0 77 -33t32 -76t-32 -75.5t-77 -32.5q-44 0 -76 32t-32 76zM606 1288q0 44 32.5 76.5t76.5 32.5t76 -32.5t32 -76.5t-32 -76t-76 -32t-76.5 32t-32.5 76z" />
<glyph unicode="&#xa9;" horiz-adv-x="1007" d="M82 944q0 173 124.5 297.5t297.5 124.5t297.5 -124.5t124.5 -297.5t-124.5 -297.5t-297.5 -124.5t-297.5 124.5t-124.5 297.5zM172 944q0 -136 98 -234t234 -98t234 98t98 234t-98 234t-234 98t-234 -98t-98 -234zM344 952q0 75 25 140q39 98 149 98q67 0 115 -31 q21 -12 12 -29l-18 -30q-7 -13 -13 -13q-2 0 -20 9q-40 20 -72 20q-54 0 -65 -67q-6 -37 -6 -86q0 -65 12 -115q15 -62 74 -62q37 0 73 27q13 8 21 -6l20 -37q7 -12 -4 -18q-49 -39 -119 -39q-99 0 -147 80q-37 62 -37 159z" />
<glyph unicode="&#xab;" horiz-adv-x="983" d="M45 489q0 11 10 21l344 432q1 1 4 4.5t5 5.5t6 4t8 2q2 0 10 -4l68 -39q12 -6 12 -16q0 -2 -6 -14l-266 -396l266 -395q6 -12 6 -14q0 -11 -12 -17l-68 -38l-10 -5q-5 0 -9 2.5t-8.5 8t-5.5 6.5l-344 432q-10 10 -10 20zM424 489q0 11 10 21l344 432q1 1 4 4.5t5 5.5t6 4 t8 2q2 0 10 -4l68 -39q12 -6 12 -16q0 -2 -6 -14l-267 -396l267 -395q6 -12 6 -14q0 -11 -12 -17l-68 -38l-10 -5q-5 0 -9 2.5t-8.5 8t-5.5 6.5l-344 432q-10 10 -10 20z" />
<glyph unicode="&#xac;" d="M45 610v99q0 11 4.5 17.5t20.5 6.5h882q16 0 20.5 -6.5t4.5 -17.5v-379q0 -25 -25 -25h-98q-25 0 -25 25v256h-759q-25 0 -25 24z" />
<glyph unicode="&#xad;" horiz-adv-x="720" d="M104 463v104q0 25 25 25h463q24 0 24 -25v-104q0 -25 -24 -25h-463q-25 0 -25 25z" />
<glyph unicode="&#xae;" horiz-adv-x="1007" d="M82 944q0 173 124.5 297.5t297.5 124.5t297.5 -124.5t124.5 -297.5t-124.5 -297.5t-297.5 -124.5t-297.5 124.5t-124.5 297.5zM172 944q0 -136 98 -234t234 -98t234 98t98 234t-98 234t-234 98t-234 -98t-98 -234zM365 739v420q0 21 20 21h141q57 0 96.5 -33t39.5 -94 q0 -76 -78 -123l108 -178q7 -12 5 -20.5t-11 -10.5l-55 -6q-19 -2 -31 18l-108 187h-37v-181q0 -20 -21 -20h-49q-20 0 -20 20zM455 985h47q31 0 50 17t19 51q0 30 -19 45.5t-50 15.5h-47v-129z" />
<glyph unicode="&#xb1;" d="M45 18q0 12 4.5 18.5t9 7.5t11.5 1h882q7 0 11.5 -1t9 -7.5t4.5 -18.5v-96q0 -24 -25 -24h-882q-16 0 -20.5 6.5t-4.5 17.5v96zM45 471v98q0 25 25 25h366v364q0 25 25 25h98q25 0 25 -25v-364h368q25 0 25 -25v-98q0 -25 -25 -25h-368v-299q0 -24 -25 -24h-98 q-25 0 -25 24v299h-366q-25 0 -25 25z" />
<glyph unicode="&#xb4;" d="M393 1190q0 10 8 14l306 236q15 10 20 10q10 0 21 -16l59 -88q8 -16 8 -19q0 -4 -2 -7.5t-4.5 -5t-6.5 -4t-5 -3.5l-340 -177q-8 -4 -15 -4q-5 0 -14 9l-27 39q-8 10 -8 16z" />
<glyph unicode="&#xbb;" horiz-adv-x="983" d="M90 80q0 2 6 14l266 395l-266 396q-6 12 -6 14q0 10 12 16l68 39q8 4 10 4q5 0 9 -2t9 -8l5 -6l344 -432q10 -10 10 -21q0 -10 -10 -20l-344 -432q-1 -1 -4 -5t-5 -6t-6 -4t-8 -2l-10 5l-68 38q-12 6 -12 17zM469 80q0 2 6 14l266 395l-266 396q-6 12 -6 14q0 10 12 16 l68 39q8 4 10 4q4 0 8 -2t6 -4t5 -5.5t4 -4.5l344 -432q10 -10 10 -21q0 -10 -10 -20l-344 -432q-1 -1 -4 -5t-5 -6t-6 -4t-8 -2l-10 5l-68 38q-12 6 -12 17z" />
<glyph unicode="&#xf7;" d="M45 475v90q0 9 1 14.5t2 8.5t4.5 4.5t5 2t7 0t7.5 -0.5h874q9 0 14.5 -1t8.5 -2t4.5 -5t2 -5.5t0 -7.5t-0.5 -8v-90v-5v-7t-1 -5t-3 -5t-5 -3.5t-8 -3t-12 -0.5h-874h-6h-5.5t-4.5 1t-5 3t-3 5t-2.5 8t-0.5 12zM395 166q0 50 32.5 82.5t82.5 32.5t82.5 -32.5t32.5 -82.5 q0 -49 -34 -82t-81 -33q-49 0 -82 33.5t-33 81.5zM395 874q0 50 32.5 82.5t82.5 32.5t82.5 -32.5t32.5 -82.5q0 -49 -34 -81.5t-81 -32.5q-49 0 -82 33t-33 81z" />
<glyph unicode="&#x192;" d="M-160 -360l29 84q3 10 14 12q23 -2 43 -8q40 -9 84 -9q49 0 99 26t79 89q17 38 37 121l203 909h-141q-17 0 -17 13q0 5 6 32l11 49q4 25 26 25h144l41 197q11 54 23.5 91.5t37 80.5t57.5 69.5t86.5 44t122.5 17.5q47 0 102.5 -10.5t90.5 -28.5q14 -7 21 -12t8 -8t0 -5 l-3 -6l-36 -88q-4 -9 -9.5 -10t-29.5 8q-92 41 -152 41q-38 0 -67.5 -13t-46 -29.5t-30 -48.5t-19 -53t-13.5 -59l-37 -178h289q16 0 16 -12q0 -3 -2.5 -10.5l-3.5 -10.5l-22 -61q-8 -25 -27 -25h-276l-203 -917q-9 -42 -18 -74t-25 -71.5t-35 -68.5t-48 -58t-64.5 -47.5 t-84.5 -30t-108 -11.5q-70 0 -116 13t-36 41z" />
<glyph unicode="&#x401;" horiz-adv-x="989" d="M195 25v1353q0 25 24 25h643q13 0 18.5 -6.5t2.5 -14.5l-35 -104q-4 -18 -27 -18h-459v-455h404q25 0 25 -25v-94q0 -11 -4.5 -17.5t-20.5 -6.5h-404v-519h492q16 0 20.5 -6.5t4.5 -17.5v-94q0 -25 -25 -25h-635q-24 0 -24 25zM236 1649q0 49 31 80.5t81 31.5t81.5 -31.5 t31.5 -80.5t-31.5 -81t-81.5 -32q-49 0 -80.5 31.5t-31.5 81.5zM649 1649q0 49 31.5 80.5t81.5 31.5t81 -31.5t31 -80.5q0 -50 -31.5 -81.5t-80.5 -31.5q-50 0 -81.5 32t-31.5 81z" />
<glyph unicode="&#x402;" horiz-adv-x="1265" d="M47 1284v94q0 25 25 25h807q30 0 20 -31l-33 -90q-7 -22 -32 -22h-324v-437q149 68 287 68q77 0 146.5 -27t115.5 -73q108 -108 108 -349q0 -255 -106 -370q-43 -46 -111 -73.5t-137 -27.5q-79 0 -166 35q-30 13 -26 31l20 88q9 40 47 18q60 -34 121 -34q95 2 145 81 q41 75 41 244q0 165 -45 232q-59 88 -194 88q-127 0 -246 -68v-661q0 -25 -25 -25h-118q-25 0 -25 25v1235h-270q-16 0 -20.5 6.5t-4.5 17.5z" />
<glyph unicode="&#x403;" horiz-adv-x="890" d="M195 25v1353q0 25 24 25h631q13 0 18 -6.5t2 -14.5l-34 -104q-4 -18 -27 -18h-447v-1235q0 -25 -24 -25h-119q-24 0 -24 25zM467 1577q0 7 10 12l336 209q12 6 16 6q10 0 15 -8l59 -102q6 -10 6 -19q0 -13 -22 -20l-352 -142q-3 -1 -8 -2.5t-8.5 -2.5t-6.5 -1q-8 0 -14 9 l-27 49q-4 6 -4 12z" />
<glyph unicode="&#x404;" horiz-adv-x="958" d="M106 719q0 162 25.5 288t67 205t100.5 129.5t120.5 70.5t131.5 20q85 0 170 -31t143 -88q8 -6 17.5 -19t9.5 -24q0 -9 -6 -15l-56 -71q-10 -10 -14 -10q-8 0 -37 26q-108 94 -215 94q-47 0 -86 -15t-63 -36t-43.5 -52.5t-28.5 -55t-18 -52.5q-36 -123 -33 -278h405 q25 0 25 -25v-94q0 -11 -4.5 -17.5t-20.5 -6.5h-403q5 -180 39 -312q19 -73 50 -123.5t67.5 -74.5t68.5 -33.5t66 -9.5q40 0 84 18t66 33t59 43q30 24 38 24q12 0 17 -10l51 -65q8 -8 8 -23q0 -18 -26 -39q-59 -54 -140 -86.5t-166 -32.5q-88 0 -159.5 28t-119 72.5 t-83.5 110t-56 130t-32 142.5t-15.5 138.5t-3.5 126.5z" />
<glyph unicode="&#x405;" horiz-adv-x="948" d="M49 90q0 13 4 21l35 88q7 18 18 18q10 0 46 -20q1 0 12 -5.5t19.5 -9.5t24.5 -11.5t31 -13t34.5 -12.5t39 -11.5t41 -9t44 -7t44.5 -2.5q67 0 117 22.5t77 59t39.5 75.5t12.5 80q0 26 -5 49.5t-10.5 42.5t-20 39t-23 32.5t-31 31t-31.5 26.5t-37.5 25.5t-36.5 22 t-41 22.5t-38 21q-36 20 -54.5 30.5t-51.5 30.5t-50.5 34t-44.5 36.5t-42 41.5t-32.5 45.5t-26.5 53.5t-15.5 60t-6.5 69q0 71 25.5 136t74 117t125.5 83t172 31q171 0 320 -80q25 -14 29.5 -24t-2.5 -21l-35 -88q-8 -19 -19 -19q-7 0 -35 14q-3 1 -22 11t-25 13t-25.5 12 t-30.5 12.5t-31 9.5t-36 8.5t-37.5 5t-43.5 2.5q-102 0 -161 -57.5t-59 -147.5q0 -36 8 -66.5t27.5 -56.5t37.5 -45t53 -41.5t59 -35.5t69 -37q107 -55 181 -111q163 -129 163 -317q0 -78 -27 -149t-77.5 -128t-132.5 -91t-184 -34q-87 0 -187 26.5t-178 65.5q-37 16 -37 27 z" />
<glyph unicode="&#x406;" horiz-adv-x="765" d="M88 25v84q0 24 25 24h186v1137h-186q-11 0 -16.5 4t-7 8.5t-1.5 11.5v84q0 25 25 25h540q25 0 25 -25v-84q0 -7 -1.5 -11.5t-7 -8.5t-16.5 -4h-186v-1137h186q11 0 16.5 -4t7 -8.5t1.5 -11.5v-84q0 -25 -25 -25h-540q-25 0 -25 25z" />
<glyph unicode="&#x407;" horiz-adv-x="761" d="M53 1649q0 49 31.5 80.5t81.5 31.5t81.5 -31.5t31.5 -80.5t-31.5 -81t-81.5 -32t-81.5 32t-31.5 81zM88 25v84q0 24 25 24h186v1137h-186q-11 0 -16.5 4t-7 8.5t-1.5 11.5v84q0 25 25 25h540q25 0 25 -25v-84q0 -7 -1.5 -11.5t-7 -8.5t-16.5 -4h-186v-1137h186 q11 0 16.5 -4t7 -8.5t1.5 -11.5v-84q0 -25 -25 -25h-540q-25 0 -25 25zM467 1649q0 49 31.5 80.5t81.5 31.5t81 -31.5t31 -80.5q0 -50 -31.5 -81.5t-80.5 -31.5q-50 0 -81.5 32t-31.5 81z" />
<glyph unicode="&#x408;" horiz-adv-x="923" d="M14 344v33q0 24 25 24h106q11 0 16.5 -4t7 -8.5t1.5 -11.5v-19q0 -249 215 -249q100 0 149.5 62.5t49.5 170.5v918h-359q-11 0 -16.5 4t-6.5 8t-1 12v94q0 25 24 25h502q25 0 25 -25v-1032q0 -172 -88 -268q-99 -107 -289 -107q-182 0 -275 111q-86 104 -86 262z" />
<glyph unicode="&#x409;" horiz-adv-x="1740" d="M8 96q-9 38 21 41l22 2q28 3 49.5 8.5t47 19.5t44.5 36t37.5 60t30.5 89q47 192 53 744l2 282q0 25 25 25h635q24 0 24 -25v-567h201q181 0 297 -82q152 -108 152 -326q0 -170 -95 -278q-46 -52 -112 -81.5t-120.5 -36.5t-123.5 -7h-342q-25 0 -25 25v1235h-360l-4 -295 q-7 -430 -53 -639q-33 -147 -86.5 -222t-141.5 -108q-66 -25 -120 -25q-28 0 -33 19zM999 143h199q125 0 195.5 68.5t70.5 187.5q0 133 -74.5 201t-201.5 68h-189v-525z" />
<glyph unicode="&#x40a;" horiz-adv-x="1798" d="M195 25v1353q0 25 24 25h119q24 0 24 -25v-567h527v567q0 25 24 25h119q25 0 25 -25v-567h200q181 0 297 -82q152 -108 152 -326q0 -171 -94 -278q-46 -52 -112.5 -81.5t-121 -36.5t-123.5 -7h-342q-7 0 -11.5 1.5t-8.5 7t-4 16.5v643h-527v-643q0 -25 -24 -25h-119 q-24 0 -24 25zM1057 143h198q125 0 196 68.5t71 187.5q0 133 -75 201t-202 68h-188v-525z" />
<glyph unicode="&#x40b;" horiz-adv-x="1323" d="M47 1284v94q0 25 25 25h807q30 0 20 -31l-33 -90q-7 -22 -32 -22h-324v-437q160 68 297 68q73 0 134.5 -17t115 -54.5t84 -105.5t30.5 -161v-528q0 -11 -4 -16.5t-8.5 -7t-11.5 -1.5h-119q-7 0 -11.5 1.5t-8.5 7t-4 16.5v528q0 20 -2 38.5t-14.5 50.5t-33.5 54.5 t-64.5 40t-103.5 17.5q-118 0 -276 -68v-661q0 -25 -25 -25h-118q-25 0 -25 25v1235h-270q-16 0 -20.5 6.5t-4.5 17.5z" />
<glyph unicode="&#x40c;" horiz-adv-x="1144" d="M195 25v1353q0 25 24 25h119q24 0 24 -25v-577h140q31 0 50 4.5t42 21t40.5 53.5t33.5 97l39 151q21 82 41.5 134.5t50.5 85.5q51 56 164 77l22 5q2 0 6 1t6 1q21 0 27 -23l29 -92q6 -11 1 -20.5t-30 -14.5l-31 -6q-45 -10 -65 -27q-12 -9 -23 -24q-8 -11 -14 -23.5 t-11.5 -30t-8.5 -27t-8.5 -32t-6.5 -27.5l-31 -114q-10 -36 -13 -47t-13.5 -42.5t-20 -46t-24.5 -37t-35 -38.5t-45 -29q123 -49 160 -180l75 -279q21 -78 43 -104q26 -29 78 -37l39 -6q40 -6 29 -33l-31 -98q-4 -15 -9 -19t-16 -4q-13 0 -41 4l-30 5q-115 14 -172 86 q-8 10 -14.5 21t-12.5 26t-10 26t-10 31t-8.5 31t-9 36.5t-9.5 36.5l-51 207q-14 58 -31.5 94.5t-40.5 53.5t-45 22.5t-55 5.5h-140v-632q0 -25 -24 -25h-119q-24 0 -24 25zM528 1577q0 7 11 12l335 209q12 6 17 6q9 0 14 -8l60 -102q6 -10 6 -19q0 -12 -23 -20l-352 -142 q-3 -1 -8 -2.5t-8.5 -2.5t-6.5 -1q-8 0 -14 9l-27 49q-4 6 -4 12z" />
<glyph unicode="&#x40e;" horiz-adv-x="1011" d="M55 1372q2 12 25 19l41 12l47 14q1 0 6 2t8 2t7.5 -1.5t9 -7t8.5 -15.5l262 -662l84 -241h6q6 36 15 74.5t14.5 60t17.5 62t15 52.5l186 648q8 28 17 32.5t20 -2.5l102 -20q5 0 15 -6t10 -15q0 -7 -6 -22l-334 -1112q-43 -142 -116 -208.5t-202 -66.5q-97 0 -198 60 q-33 21 -40.5 34t1.5 27l43 88q7 15 20 15q9 0 37 -23q74 -63 141 -63q30 0 54.5 8.5t42.5 27t31 35.5t25 47t17.5 46.5t14.5 48.5l20 73h-63q-17 0 -23.5 6.5t-11.5 22.5l-363 926q-8 10 -6 22zM252 1737q0 8 2.5 13t4 6t6.5 2l5 1l82 15q2 0 6.5 1t6.5 1q17 0 22 -27 q8 -38 21 -61q34 -62 112 -62q39 0 68.5 17.5t44.5 44.5q12 20 20 61q5 22 15 26t20 -1l82 -15l5 -1q5 -1 6.5 -2t4 -6t2.5 -13q0 -29 -18 -70q-27 -65 -88 -106q-64 -43 -162 -43t-162 43q-61 41 -88 106q-18 41 -18 70z" />
<glyph unicode="&#x40f;" horiz-adv-x="1224" d="M195 25v1353q0 25 24 25h119q24 0 24 -25v-1235h500v1235q0 25 25 25h119q24 0 24 -25v-1353q0 -25 -24 -25h-310v-350q0 -16 -6.5 -20.5t-17.5 -4.5h-119q-25 0 -25 25v350h-309q-24 0 -24 25z" />
<glyph unicode="&#x410;" horiz-adv-x="1134" d="M55 7.5q-4 5.5 2 17.5l416 1355q4 12 10 17t9 5.5t12 0.5h121q8 0 11 -0.5t9 -5.5t10 -17l418 -1355q5 -16 -4 -23q-4 -2 -20 -2h-136h-2q-5 0 -7.5 0.5t-6.5 2.5t-7 7t-5 13l-115 395h-420l-104 -393q0 -2 -1 -5l-1.5 -4.5l-1.5 -4.5t-2.5 -4t-4.5 -2.5t-6 -2.5 t-8.5 -1.5t-11.5 -0.5h-133q-9 0 -13 1t-8 6.5zM389 561h342l-123 453q-31 114 -47 194h-4q-14 -97 -43 -194z" />
<glyph unicode="&#x411;" horiz-adv-x="1136" d="M197 25v1353q0 25 24 25h709q32 0 24 -25l-30 -94q-7 -24 -33 -24h-526v-431h200q214 0 331.5 -110.5t117.5 -296.5q0 -134 -55 -229t-140 -142q-44 -24 -99 -36t-92.5 -13.5t-107.5 -1.5h-299q-24 0 -24 25zM365 143h198q124 0 195 73.5t71 199.5q0 54 -13.5 98 t-33.5 71.5t-48.5 47.5t-53.5 30t-54 15.5t-43.5 6.5t-29.5 1h-188v-543z" />
<glyph unicode="&#x412;" horiz-adv-x="1118" d="M195 25v1353q0 25 24 25h320q40 0 70.5 -1.5t75 -9t78 -20.5t70 -38t59.5 -59t38.5 -87t15.5 -119q0 -226 -203 -334q50 -12 93 -37t80 -65t58 -101.5t21 -138.5q0 -108 -39 -188.5t-96 -126.5q-58 -48 -136.5 -63t-221.5 -15h-283q-24 0 -24 25zM362 143h183 q23 0 44.5 2.5t55 9.5t60.5 24t52 42.5t39.5 68.5t14.5 99q0 70 -22.5 121t-53 76.5t-73.5 40t-70 17.5t-57 3h-173v-504zM362 784h130q24 0 43 1t48.5 7t52 16.5t47.5 30.5t41.5 47t27 69.5t10.5 95.5q0 57 -15 97.5t-36 61.5t-54.5 33t-59.5 14.5t-62 2.5h-173v-476z" />
<glyph unicode="&#x413;" horiz-adv-x="890" d="M195 25v1353q0 25 24 25h631q13 0 18 -6.5t2 -14.5l-34 -104q-4 -18 -27 -18h-447v-1235q0 -25 -24 -25h-119q-24 0 -24 25z" />
<glyph unicode="&#x414;" horiz-adv-x="1220" d="M36.5 117q-0.5 8 0 10t2.5 6.5t6.5 5.5t12.5 2.5t20 1.5h69q35 75 62 152t45 142t30 151t18 145t9 160.5t3.5 160.5t0.5 179v129q0 12 2 20t4 12.5t7.5 6.5t7.5 2.5t10 0t10 -0.5h615h4q12 0 18 -1t12.5 -11t6.5 -29v-1219h102q12 0 20 -1.5t12.5 -2.5t6.5 -5.5t2.5 -6.5 t0 -10t-0.5 -11v-456q0 -25 -25 -25h-118q-25 0 -25 25v350h-782v-350q0 -25 -25 -25h-119q-24 0 -24 25v456q0 3 -0.5 11zM330 143h514v1117h-369v-232q0 -281 -34 -489t-111 -396z" />
<glyph unicode="&#x415;" horiz-adv-x="989" d="M195 25v1353q0 25 24 25h643q13 0 18.5 -6.5t2.5 -14.5l-35 -104q-4 -18 -27 -18h-459v-455h404q25 0 25 -25v-94q0 -11 -4.5 -17.5t-20.5 -6.5h-404v-519h492q16 0 20.5 -6.5t4.5 -17.5v-94q0 -25 -25 -25h-635q-24 0 -24 25z" />
<glyph unicode="&#x416;" horiz-adv-x="1667" d="M43 92q-11 27 29 33l39 6q50 8 77 37q22 26 43 104l76 279q37 131 160 180q-37 20 -63 45.5t-43.5 63.5t-25 60t-20.5 71l-30 114q-31 114 -49 140q-29 41 -89 51l-30 6q-25 5 -30 14.5t1 20.5l29 92q5 19 18 22t21 -1l22 -5q113 -21 164 -77q30 -33 50.5 -85.5 t41.5 -134.5l39 -151q16 -60 33.5 -97t40.5 -53.5t42 -21t50 -4.5h111v577q0 25 24 25h119q25 0 25 -25v-577h110q31 0 50 4.5t42 21t40.5 53.5t33.5 97l39 151q21 82 41.5 134.5t50.5 85.5q51 56 164 77l22 5q2 0 6.5 1t6.5 1q20 0 26 -23l29 -92q6 -11 1 -20.5t-30 -14.5 l-30 -6q-59 -9 -88 -51q-20 -28 -50 -140l-30 -114q-13 -49 -20.5 -71t-25 -60t-43.5 -63.5t-63 -45.5q123 -49 160 -180l76 -279q21 -78 43 -104q27 -29 77 -37l39 -6q40 -6 29 -33l-31 -98q-4 -15 -8.5 -19t-15.5 -4q-13 0 -41 4l-31 5q-115 14 -172 86q-8 10 -14.5 21 t-12.5 26t-10 26t-10 31t-8.5 31t-9 36.5t-9.5 36.5l-51 207q-14 58 -31.5 94.5t-40.5 53.5t-45 22.5t-55 5.5h-110v-632q0 -25 -25 -25h-119q-7 0 -11.5 1.5t-8.5 7t-4 16.5v632h-111q-33 0 -55 -5.5t-45 -22.5t-40.5 -53.5t-31.5 -94.5l-51 -207q-3 -11 -9.5 -36.5 t-9 -36.5t-8.5 -31t-10 -31t-10 -26t-12.5 -26t-14.5 -21q-57 -72 -172 -86l-31 -5q-28 -4 -41 -4q-11 0 -15.5 4t-8.5 19z" />
<glyph unicode="&#x417;" horiz-adv-x="935" d="M51 129q0 15 8 23l52 65q1 1 2.5 3.5t3 4t4.5 3t6 1.5q10 0 27 -14q25 -20 40.5 -31t50.5 -32t73 -32t77 -11q47 0 88 14.5t77.5 44.5t57.5 85.5t21 129.5q0 71 -19 123t-46 79.5t-66.5 43.5t-70.5 20t-68 4h-66q-11 0 -17.5 4.5t-6.5 20.5v88q0 8 0.5 11.5t7 8.5t18.5 5 h37q31 0 58.5 3.5t68 18.5t69 41.5t49.5 78.5t21 122q0 126 -58.5 182.5t-139.5 56.5q-105 0 -209 -94q-29 -26 -35 -26h-2q-4 0 -14 10l-56 71q-6 6 -6 15q0 20 27 43q47 47 122.5 83t178.5 36q178 0 273 -101.5t95 -253.5q0 -122 -55 -211.5t-151 -124.5q32 -9 61.5 -22 t64.5 -40t60 -62.5t42 -92t17 -125.5q0 -87 -24.5 -159t-66.5 -121t-98 -83t-118 -49.5t-129 -15.5q-84 0 -166 31.5t-143 87.5q-27 22 -27 39z" />
<glyph unicode="&#x418;" horiz-adv-x="1282" d="M195 25v1353q0 25 24 25h119q24 0 24 -25v-952q0 -68 -20 -182h4q22 84 55 153l480 987q9 19 30 19h152q24 0 24 -25v-1353q0 -11 -4 -16.5t-8.5 -7t-11.5 -1.5h-119q-7 0 -11.5 1.5t-8.5 7t-4 16.5v999q0 68 20 182h-4q-22 -84 -55 -153l-502 -1033q-12 -20 -33 -20 h-127q-24 0 -24 25z" />
<glyph unicode="&#x419;" horiz-adv-x="1282" d="M195 25v1353q0 25 24 25h119q24 0 24 -25v-952q0 -68 -20 -182h4q22 84 55 153l480 987q9 19 30 19h152q24 0 24 -25v-1353q0 -11 -4 -16.5t-8.5 -7t-11.5 -1.5h-119q-7 0 -11.5 1.5t-8.5 7t-4 16.5v999q0 68 20 182h-4q-22 -84 -55 -153l-502 -1033q-12 -20 -33 -20 h-127q-24 0 -24 25zM375 1720q0 25 22 29l74 12q9 4 20.5 2t14.5 -18l6 -31q11 -58 47.5 -85t81.5 -27t81.5 27t47.5 85l6 31q3 16 14.5 18t20.5 -2l74 -12q22 -4 22 -29q0 -12 -6 -30q-19 -76 -74 -129q-73 -68 -186 -68t-186 68q-55 53 -74 129q-6 18 -6 30z" />
<glyph unicode="&#x41a;" horiz-adv-x="1144" d="M195 25v1353q0 25 24 25h119q24 0 24 -25v-577h140q31 0 50 4.5t42 21t40.5 53.5t33.5 97l39 151q21 82 41.5 134.5t50.5 85.5q51 56 164 77l22 5q2 0 6 1t6 1q21 0 27 -23l29 -92q6 -11 1 -20.5t-30 -14.5l-31 -6q-45 -10 -65 -27q-12 -9 -23 -24q-8 -11 -14 -23.5 t-11.5 -30t-8.5 -27t-8.5 -32t-6.5 -27.5l-31 -114q-10 -36 -13 -47t-13.5 -42.5t-20 -46t-24.5 -37t-35 -38.5t-45 -29q123 -49 160 -180l75 -279q21 -78 43 -104q26 -29 78 -37l39 -6q40 -6 29 -33l-31 -98q-4 -15 -9 -19t-16 -4q-13 0 -41 4l-30 5q-115 14 -172 86 q-8 10 -14.5 21t-12.5 26t-10 26t-10 31t-8.5 31t-9 36.5t-9.5 36.5l-51 207q-14 58 -31.5 94.5t-40.5 53.5t-45 22.5t-55 5.5h-140v-632q0 -25 -24 -25h-119q-24 0 -24 25z" />
<glyph unicode="&#x41b;" horiz-adv-x="1193" d="M8 96q-9 38 21 41l22 2q28 3 49.5 8.5t47 19.5t44.5 36t37.5 60t30.5 89q47 192 53 744l2 282q0 25 25 25h635q24 0 24 -25v-1353q0 -25 -24 -25h-119q-25 0 -25 25v1235h-360l-4 -295q-7 -430 -53 -639q-33 -147 -86.5 -222t-141.5 -108q-66 -25 -120 -25q-28 0 -33 19z " />
<glyph unicode="&#x41c;" horiz-adv-x="1366" d="M152 25l77 1353q0 8 1 12t6.5 8.5t17.5 4.5h133q3 0 6 -0.5t4.5 -1t3.5 -2t3 -2.5t2 -3.5t1.5 -3t1.5 -4t1 -4.5l241 -706q21 -67 27 -127h4q6 60 27 127l243 706q6 14 10 17.5t13 3.5h133q17 0 21 -6.5t4 -18.5l79 -1353q0 -25 -24 -25h-119q-25 0 -25 25l-32 1052 q-2 39 2 107h-4q-11 -81 -25 -121l-248 -713q-2 -6 -4 -10t-4.5 -6.5t-4.5 -3.5t-4.5 -1.5t-4 -0.5h-4.5h-4h-62h-3q-7 0 -11 0.5t-9 5.5t-8 16l-237 713q-9 28 -25 121h-4q4 -58 2 -107l-31 -1052q0 -25 -24 -25h-119q-24 0 -24 25z" />
<glyph unicode="&#x41d;" horiz-adv-x="1251" d="M195 25v1353q0 25 24 25h119q24 0 24 -25v-577h527v577q0 25 24 25h119q25 0 25 -25v-1353q0 -25 -25 -25h-119q-7 0 -11.5 1.5t-8.5 7t-4 16.5v632h-527v-632q0 -25 -24 -25h-119q-24 0 -24 25z" />
<glyph unicode="&#x41e;" horiz-adv-x="1138" d="M106 702q0 38 1 69t5.5 89t12.5 105t24.5 108.5t39 109t58.5 96t80 80.5t106.5 52.5t135.5 20.5q44 0 84.5 -7t88 -28t88 -54.5t78.5 -90.5t65 -131t43 -181.5t16 -237.5t-16.5 -238t-43 -182.5t-65 -131t-78.5 -90t-88 -54.5t-88.5 -28t-83.5 -7q-45 0 -86.5 7.5 t-89.5 28t-87.5 54.5t-77.5 90.5t-64 131t-42 182t-16 237.5zM291 606q0 -26 2.5 -78t7 -85.5t14 -82t23 -80t35 -67t48.5 -56t65 -34.5t83 -14q58 0 103.5 23t74.5 54.5t49.5 87t30.5 97.5t15 111t5.5 103t0.5 95v22q0 69 -1.5 120.5t-8 116.5t-18 112.5t-32.5 95.5 t-50 78.5t-72 49.5t-97 19q-58 0 -103.5 -23t-74 -55.5t-49 -88.5t-30 -99t-15 -111.5t-6 -103t-0.5 -94.5v-17v-23v-73z" />
<glyph unicode="&#x41f;" horiz-adv-x="1230" d="M195 25v1353q0 25 24 25h793q24 0 24 -25v-1353q0 -11 -4 -16.5t-8.5 -7t-11.5 -1.5h-119q-25 0 -25 25v1235h-506v-1235q0 -25 -24 -25h-119q-24 0 -24 25z" />
<glyph unicode="&#x420;" horiz-adv-x="1046" d="M197 25v1353q0 25 24 25h318q32 0 53 -0.5t57.5 -4t62 -10t60 -19.5t58 -31.5t49 -47t40.5 -64.5t25 -86t10 -110q0 -88 -21 -159t-52 -115.5t-76.5 -77.5t-84.5 -49t-86 -25t-71.5 -10.5t-50.5 -1.5h-147v-567q0 -25 -25 -25h-119q-24 0 -24 25zM365 735h133 q28 0 47.5 1t52 7t55.5 16.5t50 31.5t43.5 50.5t28 75t11.5 103.5q0 47 -8 84t-20.5 62t-33.5 43t-41 27.5t-50 15t-53.5 7t-57.5 1.5h-157v-525z" />
<glyph unicode="&#x421;" horiz-adv-x="956" d="M106 715q0 44 1.5 82.5t6.5 95.5t13.5 105t25.5 105t39 102t56.5 89t77 73t100.5 47t127 18q82 0 167.5 -31.5t143.5 -87.5q8 -6 17.5 -19t9.5 -24q0 -9 -6 -15l-56 -71q-10 -10 -14 -10q-8 0 -37 26q-108 94 -215 94q-44 0 -81.5 -14t-63.5 -34t-47 -55t-34 -65.5 t-22.5 -77t-14 -77t-7 -78.5t-2.5 -69.5v-61.5q0 -77 3.5 -141.5t13 -145t30 -141t51.5 -114t80 -82.5t113 -29q90 0 209 94q30 24 38 24q12 0 17 -10l51 -65q8 -8 8 -23q0 -18 -26 -39q-59 -54 -140 -86.5t-166 -32.5q-48 0 -92 8t-92 30.5t-88 58t-77 93.5t-62.5 133.5 t-40.5 183t-15 237.5z" />
<glyph unicode="&#x422;" horiz-adv-x="944" d="M47 1284v94q0 25 25 25h807q30 0 20 -31l-33 -90q-7 -22 -32 -22h-289v-1235q0 -25 -25 -25h-119q-24 0 -24 25v1235h-305q-16 0 -20.5 6.5t-4.5 17.5z" />
<glyph unicode="&#x423;" horiz-adv-x="1011" d="M55 1372q2 12 25 19l41 12l47 14q1 0 6 2t8 2t7.5 -1.5t9 -7t8.5 -15.5l262 -662l84 -241h6q6 36 15 74.5t14.5 60t17.5 62t15 52.5l186 648q8 28 17 32.5t20 -2.5l102 -20q5 0 15 -6t10 -15q0 -7 -6 -22l-334 -1112q-43 -142 -116 -208.5t-202 -66.5q-97 0 -198 60 q-33 21 -40.5 34t1.5 27l43 88q7 15 20 15q9 0 37 -23q74 -63 141 -63q30 0 54.5 8.5t42.5 27t31 35.5t25 47t17.5 46.5t14.5 48.5l20 73h-63q-17 0 -23.5 6.5t-11.5 22.5l-363 926q-8 10 -6 22z" />
<glyph unicode="&#x424;" horiz-adv-x="1298" d="M98 754q0 216 64 333q103 189 332 189h71v184q0 25 25 25h119q24 0 24 -25v-184h72q74 0 134.5 -20t100.5 -51.5t70.5 -77t47 -91t26.5 -100t13 -96t3 -86.5q0 -219 -63 -334q-103 -189 -332 -189h-72v-206q0 -25 -24 -25h-119q-25 0 -25 25v206h-71q-229 0 -332 189 q-64 117 -64 334zM283 754q0 -208 49 -287q60 -98 194 -98h39v770h-39q-133 0 -194 -99q-49 -79 -49 -286zM733 369h39q135 0 195 98q49 79 49 287q0 207 -49 286q-61 99 -195 99h-39v-770z" />
<glyph unicode="&#x425;" horiz-adv-x="985" d="M27 47q0 7 5 16l5 9l356 659l-330 600q-10 20 -10 21v4q0 8 4 12t19 10l71 25l31 10q6 5 16 3.5t19 -17.5l229 -422l52 -107q24 59 53 115l215 399q11 19 19 26t10 6.5t12 -3.5l102 -43q23 -10 23 -22q0 -8 -10 -23l-336 -588l370 -659q11 -16 11 -23q0 -6 -3 -10 t-5.5 -5.5t-8 -3.5t-6.5 -3l-102 -43l-5 -2q-5 -2 -6 -2t-5 1t-7 4.5t-7.5 10t-10.5 16.5l-250 461q-21 35 -53 115l-48 -102l-256 -482q-1 -2 -5 -8t-5 -8q-10 -11 -28 -4l-103 35q-22 9 -22 22z" />
<glyph unicode="&#x426;" horiz-adv-x="1245" d="M195 25v1353q0 25 24 25h119q24 0 24 -25v-1235h506v1235q0 25 25 25h119q24 0 24 -25v-1235h103q12 0 20 -1.5t12.5 -2.5t6.5 -5.5t2.5 -6.5t0 -10t-0.5 -11v-456q0 -25 -25 -25h-119q-11 0 -17.5 4.5t-6.5 20.5v350h-793q-24 0 -24 25z" />
<glyph unicode="&#x427;" horiz-adv-x="1177" d="M154 895v483q0 25 24 25h119q25 0 25 -25v-483q0 -21 2 -39t14 -50.5t33 -54.5t64.5 -39.5t103.5 -17.5q118 0 276 68v616q0 25 25 25h118q25 0 25 -25v-1353q0 -25 -25 -25h-118q-25 0 -25 25v600q-157 -68 -305 -68q-54 0 -103 10t-96 34.5t-81 62t-55 97t-21 134.5z " />
<glyph unicode="&#x428;" horiz-adv-x="1671" d="M195 25v1353q0 25 24 25h119q24 0 24 -25v-1235h390v1235q0 25 24 25h119q25 0 25 -25v-1235h389v1235q0 25 24 25h119q25 0 25 -25v-1353q0 -25 -25 -25h-1233q-24 0 -24 25z" />
<glyph unicode="&#x429;" horiz-adv-x="1685" d="M195 25v1353q0 25 24 25h119q24 0 24 -25v-1235h390v1235q0 25 24 25h119q25 0 25 -25v-1235h389v1235q0 25 24 25h119q25 0 25 -25v-1235h102q12 0 20 -1.5t12.5 -2.5t6.5 -5.5t2.5 -6.5t0 -10t-0.5 -11v-456q0 -25 -25 -25h-118q-25 0 -25 25v350h-1233q-24 0 -24 25z " />
<glyph unicode="&#x42a;" horiz-adv-x="1284" d="M0 1382q-3 8 2 14.5t18 6.5h498q25 0 25 -25v-567h200q181 0 297 -82q152 -108 152 -323q0 -172 -94 -281q-46 -52 -112.5 -81.5t-121 -36.5t-123.5 -7h-342q-7 0 -11.5 1.5t-8.5 7t-4 16.5v1235h-314q-21 0 -26 18zM543 143h198q125 0 196 68.5t71 187.5q0 133 -75 201 t-202 68h-188v-525z" />
<glyph unicode="&#x42b;" horiz-adv-x="1579" d="M197 25v1353q0 25 24 25h119q25 0 25 -25v-567h200q181 0 297 -82q152 -111 152 -328q0 -170 -94 -276q-46 -52 -112.5 -81.5t-121 -36.5t-123.5 -7h-342q-24 0 -24 25zM365 143h198q125 0 195.5 68.5t70.5 191.5q0 53 -13 96t-33 69.5t-48.5 46.5t-53 30t-53.5 15.5 t-44.5 6.5t-30.5 1h-188v-525zM1217 25v1353q0 16 6.5 20.5t17.5 4.5h119q11 0 17.5 -4.5t6.5 -20.5v-1353q0 -11 -4 -16.5t-8.5 -7t-11.5 -1.5h-119q-7 0 -11.5 1.5t-8.5 7t-4 16.5z" />
<glyph unicode="&#x42c;" horiz-adv-x="1105" d="M197 25v1353q0 25 24 25h119q25 0 25 -25v-567h200q181 0 297 -82q152 -108 152 -326q0 -171 -94 -278q-46 -52 -112.5 -81.5t-121 -36.5t-123.5 -7h-342q-24 0 -24 25zM365 143h198q125 0 195.5 68.5t70.5 187.5q0 133 -74.5 201t-201.5 68h-188v-525z" />
<glyph unicode="&#x42d;" horiz-adv-x="968" d="M66 129q0 15 8 23l51 65q7 10 14 12h4q1 -1 3.5 -3t10.5 -8t21 -15q122 -94 211 -94q62 0 125 39.5t102 127.5q32 72 47 173.5t15 189.5v23h-404q-8 0 -12 1t-8 6.5t-4 16.5v94q0 11 4 16.5t8.5 7t11.5 1.5h404v31q0 203 -55 321q-67 137 -220 137q-97 0 -188 -75 q-11 -9 -22 -18.5t-16.5 -14.5t-10.5 -8.5t-8 -3.5h-2q-5 0 -15 10l-55 71q-6 6 -6 15t10 24q32 44 126 91t204 47q109 0 200 -53.5t144 -141.5q100 -163 100 -522q0 -387 -127 -570q-123 -174 -340 -174q-85 0 -165.5 32.5t-139.5 86.5q-26 21 -26 39z" />
<glyph unicode="&#x42e;" horiz-adv-x="1638" d="M195 25v1353q0 25 24 25h119q24 0 24 -25v-577h244q38 631 463 631q44 0 84.5 -7t88 -28t88 -54.5t78.5 -90.5t65 -131t43 -181.5t16 -237.5t-16.5 -237.5t-43 -182t-65 -131.5t-79 -90t-88 -54t-88 -28.5t-83.5 -7.5q-96 0 -179 41t-148 122t-101.5 215.5t-34.5 307.5 h-244v-632q0 -25 -24 -25h-119q-24 0 -24 25zM791 606q0 -26 2.5 -78t7 -85.5t14 -82t23 -80t35 -67t48.5 -56t65 -34.5t83 -14q58 0 103.5 23t74.5 54.5t49.5 87t30.5 97.5t15 111t5.5 103t0.5 95v22q0 69 -1.5 120.5t-8 116.5t-18 112.5t-32.5 95.5t-50 78.5t-72 49.5 t-97 19q-58 0 -103.5 -23t-74 -55.5t-49 -88.5t-30 -99t-15 -111.5t-6 -103t-0.5 -94.5v-17v-23v-73z" />
<glyph unicode="&#x42f;" horiz-adv-x="1171" d="M78 92q-11 27 28 33l39 6q52 8 78 37q25 28 41 90l70 242q38 125 141 188q-114 25 -185 109.5t-71 220.5q0 178 110.5 281.5t280.5 103.5h342q25 0 25 -25v-1353q0 -25 -25 -25h-118q-25 0 -25 25v614h-133q-79 0 -119 -47q-6 -7 -11.5 -15t-10.5 -18.5t-8 -17.5t-7 -20 t-5.5 -18.5t-5.5 -20.5t-5 -19l-58 -201q-4 -15 -12.5 -45t-13.5 -46t-12.5 -38t-16 -38t-18.5 -29q-54 -70 -172 -86l-27 -5q-31 -7 -44.5 -5t-20.5 24zM387 1022q0 -117 63 -183.5t191 -66.5h168v488h-182q-111 0 -175.5 -65t-64.5 -173z" />
<glyph unicode="&#x430;" horiz-adv-x="948" d="M94 260q0 35 5.5 68t24 74t48.5 74.5t84.5 64t126.5 47.5q119 28 215 28h33v74q0 30 -2.5 52.5t-13 49t-28.5 43t-50.5 28t-77.5 11.5q-119 0 -228 -53q-24 -12 -30 -12q-12 0 -17 10l-30 82q-5 13 2 24t15.5 15.5t25.5 11.5q146 60 280 60q153 0 231 -72t78 -209v-465 q0 -85 25 -147q8 -21 29 -58q8 -11 8 -16q0 -6 -12 -14l-86 -54q-9 -5 -14.5 -6t-16 8t-23.5 31q-22 38 -39 92l-2 7l-8 -9q-26 -26 -44.5 -41.5t-54 -39.5t-80.5 -36t-97 -12q-72 0 -127.5 24.5t-87 66.5t-47 92t-15.5 106zM250 266q0 -83 45 -125.5t102 -42.5 q60 0 121.5 38.5t99.5 76.5l13 12v264h-31q-30 0 -59.5 -2.5t-73 -9t-79 -22.5t-68.5 -39t-51.5 -62t-18.5 -88z" />
<glyph unicode="&#x431;" horiz-adv-x="1036" d="M104 598q0 283 54 434q77 219 313 326l340 153q40 16 53 -12l35 -72q14 -27 -29 -45l-383 -176q-232 -106 -258 -364l-6 -64h13q44 103 127 154t184 51q40 0 81 -8t98.5 -39t100.5 -82t74 -147.5t31 -225.5q0 -115 -26 -206t-67 -146.5t-96.5 -92.5t-110 -51t-112.5 -14 q-67 0 -131 22t-125.5 77t-99.5 137q-35 77 -47.5 169t-12.5 222zM285 479q0 -381 239 -381q240 0 240 383q0 95 -17 166t-42 110t-60 62.5t-63 30t-58 6.5t-57.5 -6.5t-62.5 -30.5t-59.5 -62.5t-42 -110.5t-17.5 -167z" />
<glyph unicode="&#x432;" horiz-adv-x="970" d="M170 25v933q0 25 25 25h323q297 0 297 -254q0 -76 -36.5 -129.5t-98.5 -79.5q78 -20 126 -79t48 -158q0 -130 -87.5 -206.5t-238.5 -76.5h-333q-25 0 -25 25zM326 127h192q12 0 22.5 1t34.5 5t43 14.5t38.5 27t30.5 45.5t11 67q0 162 -180 162h-192v-322zM326 575h188 q70 0 112 41t42 107t-43 99.5t-117 33.5h-182v-281z" />
<glyph unicode="&#x433;" horiz-adv-x="757" d="M170 25v927q0 31 27 31h495q20 0 24 -12.5t-1 -22.5l-17 -80q-4 -22 -30 -22h-342v-821q0 -25 -25 -25h-106q-25 0 -25 25z" />
<glyph unicode="&#x434;" horiz-adv-x="1013" d="M50.5 106q-0.5 5 0 6.5t2 5t4.5 5t9 3t14 1.5h61q74 152 96.5 305.5t22.5 431.5v90v6v6t1 5t3 5t5 3.5t8 3t12 0.5h518q14 0 21 -6t7.5 -10t0.5 -13v-827h94q10 0 16.5 -1.5t8.5 -5t3 -5.5t0.5 -8t-0.5 -7v-376q0 -16 -6.5 -20.5t-17.5 -4.5h-107q-11 0 -17.5 4.5 t-6.5 20.5v276h-596v-276q0 -25 -25 -25h-106q-25 0 -25 25v376q0 1 -0.5 6zM301 127h379v729h-277v-135q0 -357 -102 -594z" />
<glyph unicode="&#x435;" horiz-adv-x="956" d="M86 492q0 243 115 381.5t295 138.5q46 0 87 -9t84.5 -29.5t77.5 -58.5t61.5 -92t42.5 -135.5t15 -183.5v-10q0 -21 -5.5 -28t-16.5 -7h-588v-10q0 -86 24.5 -153t66 -107t90.5 -60t102 -20q101 0 225 71q16 8 24 10h5q7 0 10 -10l37 -92q2 -4 2 -12q0 -14 -76 -51 q-118 -54 -232 -54q-64 0 -124 15t-119.5 53t-103.5 95t-71.5 149.5t-27.5 208.5zM254 586h442q0 98 -32 174q-52 125 -183 125q-92 0 -158 -73.5t-69 -225.5z" />
<glyph unicode="&#x436;" horiz-adv-x="1347" d="M48.5 91.5q-0.5 4.5 2 7.5t3 4.5t6.5 3t7 1.5t9 1l24 4q45 8 60 20q17 15 33 57l63 197q32 103 135 131q-102 31 -135 162l-23 82q-20 70 -28 78q-20 29 -66 34l-28 5q-1 0 -6.5 1t-7 1t-6.5 2t-5.5 4t-2.5 6.5t1 9.5l22 92q5 17 27 17q46 0 103 -21q32 -13 56.5 -35.5 t39.5 -52t24 -54.5t17 -58l26 -107q14 -58 43 -84.5t84 -26.5h70v385q0 22 14 25l43 10l68 17q8 2 16 2q15 0 15 -19v-420h69q55 0 84 26.5t43 84.5l27 107q8 33 17 58t24 54.5t39.5 52t56.5 35.5q57 21 102 21q22 0 27 -17l23 -92q3 -5 1 -9.5t-2.5 -6.5t-5.5 -4t-6.5 -2 t-7 -1t-6.5 -1l-29 -5q-45 -5 -65 -34q-10 -10 -29 -78l-22 -82q-33 -130 -136 -162q104 -28 136 -131l63 -197q16 -42 33 -57q15 -12 59 -20l25 -4q23 -3 26 -11q2 -6 -2 -18l-26 -92q-4 -17 -29 -17q-77 0 -125 21q-12 5 -23 12t-19.5 13t-16.5 16.5t-13.5 16.5 t-11.5 20.5t-9 20.5t-9 24t-7.5 24t-7.5 27t-8 27l-41 145q-19 67 -47.5 87.5t-79.5 20.5h-71v-430q0 -16 -23 -16h-111q-10 0 -15.5 4t-6 6.5t-0.5 5.5v430h-72q-51 0 -79.5 -20.5t-47.5 -87.5l-41 -145q-2 -6 -8 -27t-7.5 -27t-7.5 -24t-9 -24t-9 -20.5t-11.5 -20.5 t-13.5 -16.5t-16.5 -16.5t-19.5 -13t-23 -12q-48 -21 -125 -21q-24 0 -28 17l-27 92q-2 7 -2.5 11.5z" />
<glyph unicode="&#x437;" horiz-adv-x="874" d="M92 76q0 8 2 12l37 82q0 7 10 10h4q10 -2 25 -10q131 -72 231 -72q92 0 142.5 50.5t50.5 127.5q0 46 -18.5 80t-41.5 49.5t-56 25t-50 10.5t-35 1h-53q-27 0 -27 27v72q0 15 5.5 21.5t21.5 6.5h37q83 0 140.5 40t57.5 122q0 154 -163 154q-60 0 -104.5 -20.5 t-100.5 -65.5q-19 -15 -25 -15t-10 9l-49 81q-12 20 33 52q119 86 276 86q78 0 138 -22t95 -60.5t52.5 -85.5t17.5 -101q0 -17 -4 -38t-16.5 -57.5t-46.5 -71t-84 -56.5q79 -23 128.5 -84t49.5 -151q0 -147 -100.5 -230.5t-262.5 -83.5q-143 0 -278 78q-29 18 -29 27z" />
<glyph unicode="&#x438;" horiz-adv-x="1060" d="M170 25v933q0 22 14 25l45 10l66 17q8 2 16 2q15 0 15 -19v-555l-7 -200h7q29 57 50 97t33 62t15 29l313 547q4 8 13 10l110 27q8 2 17 2q14 0 14 -19v-968q0 -25 -25 -25h-106q-25 0 -25 25v520l6 198h-6q-76 -152 -98 -186l-313 -547q-6 -10 -23 -10h-106q-25 0 -25 25 z" />
<glyph unicode="&#x439;" horiz-adv-x="1060" d="M170 25v933q0 22 14 25l45 10l66 17q8 2 16 2q15 0 15 -19v-555l-7 -200h7q29 57 50 97t33 62t15 29l313 547q4 8 13 10l110 27q8 2 17 2q14 0 14 -19v-968q0 -25 -25 -25h-106q-25 0 -25 25v520l6 198h-6q-76 -152 -98 -186l-313 -547q-6 -10 -23 -10h-106q-25 0 -25 25 zM264 1354v4q1 13 8.5 18.5t14.5 5.5l73 13q9 4 20.5 1.5t14.5 -18.5l6 -30q12 -63 49 -88t80 -25t80 25t49 88l7 30q3 16 14 18.5t20 -1.5l74 -13q7 0 14.5 -5.5t8.5 -18.5v-4q0 -7 -6 -31q-26 -94 -94 -145.5t-167 -51.5t-166.5 51.5t-93.5 145.5q-6 24 -6 31z" />
<glyph unicode="&#x43a;" horiz-adv-x="944" d="M170 16v942q0 22 14 25l41 10l70 17q4 2 14 2h2q5 0 10 -4.5t5 -12.5v-2v-420h88q55 0 84 26.5t43 84.5l26 107q17 72 47.5 123.5t90.5 76.5q57 21 102 21q22 0 27 -17l22 -92q3 -5 1 -9.5t-2.5 -6.5t-5.5 -4t-6.5 -2t-7 -1t-6.5 -1l-28 -5q-47 -8 -64 -32 q-13 -20 -30 -80l-23 -82q-33 -131 -135 -162q103 -28 135 -131l64 -197q16 -44 32 -57q15 -12 60 -20l24 -4q24 -3 26 -11q3 -6 -1 -18l-27 -92q-4 -17 -28 -17q-77 0 -125 21q-12 5 -23 12t-19.5 13t-16.5 16.5t-13.5 16.5t-11.5 20.5t-9 20.5t-9 24t-7.5 24t-7.5 27 t-8 27l-41 145q-19 67 -47.5 87.5t-79.5 20.5h-90v-430q0 -16 -23 -16h-110q-23 0 -23 16z" />
<glyph unicode="&#x43b;" horiz-adv-x="972" d="M9 85q0 5 0.5 8t3.5 6l4 4t6 2.5t6 2t7 0.5l5 1l18 2q16 2 29 5t34 14.5t37 30t32.5 53t25.5 81.5q31 157 31 596v63q0 18 4.5 23.5t23.5 5.5h500q27 0 27 -31v-927q0 -25 -25 -25h-106q-25 0 -25 25v831h-252v-27q0 -94 -9 -246t-17 -233q-5 -54 -14.5 -96.5t-28.5 -95 t-56 -94t-88 -66.5q-45 -23 -116 -27h-13q-18 2 -22 23l-21 80q-1 6 -1 11z" />
<glyph unicode="&#x43c;" horiz-adv-x="1169" d="M154 16l53 949q0 18 18 18h144q11 0 18 -18l160 -449q22 -59 35 -139h6q14 71 37 139l157 449q4 18 19 18h145q5 0 7.5 -0.5t5.5 -5t4 -12.5l53 -949q0 -16 -17 -16h-116q-17 0 -17 16l-22 711v76h-4q-5 -34 -17 -76l-172 -498q-5 -14 -8.5 -17t-11.5 -3h-4h-84h-4h-4 t-3 0.5t-3 1t-2.5 2t-3 3.5t-3 5.5t-2.5 7.5l-170 498q-8 34 -18 76h-4v-76l-23 -711q0 -16 -16 -16h-117q-16 0 -16 16z" />
<glyph unicode="&#x43d;" horiz-adv-x="1046" d="M170 25v933q0 22 14 25l45 10l66 17q8 2 16 2q15 0 15 -19v-424h395v389q0 22 14 25l111 27q8 2 16 2q15 0 15 -19v-968q0 -25 -25 -25h-107q-7 0 -11.5 1.5t-8.5 7t-4 16.5v417h-395v-417q0 -25 -25 -25h-106q-25 0 -25 25z" />
<glyph unicode="&#x43e;" d="M104 492q0 118 26 211t66.5 149.5t96 94t109 51.5t110.5 14t110.5 -14t109 -51.5t96 -94t66.5 -149.5t26 -211t-26 -211t-66.5 -150t-96 -94t-109 -51.5t-110.5 -14.5t-110.5 14.5t-109 51.5t-96 94t-66.5 150t-26 211zM272 492q0 -29 1 -55.5t6.5 -68.5t14.5 -76 t27.5 -71.5t43 -63t62.5 -42.5t85 -17t85 17t62.5 42.5t43 63t27.5 71.5t14.5 76t6.5 68.5t1 55.5t-1 55.5t-6.5 68.5t-14.5 76t-27.5 71.5t-43 63t-62.5 42t-85 16.5t-85 -16.5t-62.5 -42t-43 -63t-27.5 -71.5t-14.5 -76t-6.5 -68.5t-1 -55.5z" />
<glyph unicode="&#x43f;" horiz-adv-x="1026" d="M170 25v933q0 25 25 25h636q25 0 25 -25v-933q0 -25 -25 -25h-106q-25 0 -25 25v831h-374v-831q0 -25 -25 -25h-106q-25 0 -25 25z" />
<glyph unicode="&#x440;" horiz-adv-x="1028" d="M123 936q0 9 10 14l88 56q19 11 35 -5q37 -37 55 -110l17 12q144 109 268 109q26 0 51 -4t59.5 -17.5t64.5 -35t60.5 -61t52 -92t35 -130.5t13.5 -174q0 -97 -14 -176t-36.5 -133t-54.5 -94.5t-64.5 -63.5t-70.5 -37t-68 -18.5t-61 -4.5q-114 0 -223 70v-418 q0 -20 -16 -24l-99 -25q-41 -12 -41 18v1125q0 106 -47 190q-14 21 -14 29zM340 176q44 -27 103.5 -47t111.5 -20q42 0 74.5 12t54 30t37 50t24 61.5t13 74.5t5.5 79.5t1 85.5q0 53 -2 92t-8.5 85.5t-20.5 78t-35.5 60t-56 42.5t-80.5 14q-92 0 -221 -100v-598z" />
<glyph unicode="&#x441;" horiz-adv-x="894" d="M113 471q0 135 34.5 241t93 170t130 97t151.5 33q143 0 264 -86q45 -32 33 -52l-49 -92q-4 -8 -10 -8q-8 0 -25 14q-59 46 -102 66t-98 20q-51 0 -92 -17t-67 -42.5t-45 -63.5t-28.5 -70.5t-14.5 -74t-6 -64.5t-1 -50q0 -38 1.5 -70t7 -73t15.5 -73t27.5 -64.5t42 -54 t60.5 -35t81 -13.5q95 0 225 71q15 8 25 10h4q8 0 10 -10l37 -92q2 -4 2 -12q0 -14 -76 -51q-118 -54 -231 -54q-60 0 -113.5 13t-107 47.5t-92 89t-62.5 144.5t-24 206z" />
<glyph unicode="&#x442;" horiz-adv-x="778" d="M25 874v84q0 16 6.5 20.5t17.5 4.5h701q30 0 20 -31l-27 -80q-7 -22 -32 -22h-248v-825q0 -25 -25 -25h-106q-25 0 -25 25v825h-258q-11 0 -16.5 4t-6.5 8t-1 12z" />
<glyph unicode="&#x443;" horiz-adv-x="911" d="M4 -315l41 82q5 10 14 10q5 0 10 -2.5t13.5 -9t13.5 -9.5q88 -59 158 -59q36 0 63 18q56 38 95 156l43 129h-74q-21 0 -27 18l-321 904q-8 23 12 30l78 31l18 8q18 6 25 6q15 0 20 -16l258 -774q21 -63 39 -139l2 -9h4q4 35 31 144l205 778q3 16 20 16q13 0 21 -4 l100 -41q11 -5 13 -12q3 -7 -2 -27l-252 -837q-83 -275 -125 -357q-29 -57 -75 -92.5t-85.5 -46t-81.5 -10.5q-52 0 -108 16q-61 17 -132 60q-24 14 -14 39z" />
<glyph unicode="&#x444;" horiz-adv-x="1363" d="M104 498q0 119 21 212t53.5 148.5t76.5 91.5t85.5 49t85.5 13q88 0 178 -80v450q0 21 17 25l98 25q41 12 41 -19v-481q90 80 178 80q44 0 85.5 -13t85.5 -49t76.5 -91.5t53.5 -148.5t21 -212q0 -96 -13.5 -175.5t-35.5 -133t-52.5 -94t-61.5 -63.5t-66.5 -37.5t-63.5 -19 t-56 -4.5q-87 0 -151 64v-441q0 -24 -25 -24h-106q-11 0 -16.5 4t-7 8.5t-1.5 11.5v441q-64 -64 -151 -64q-28 0 -56 4.5t-63.5 19t-66.5 37.5t-61.5 63.5t-52.5 94t-35.5 133t-13.5 175.5zM272 502q0 -46 1 -78.5t5.5 -76.5t12 -75t22.5 -64t35.5 -53t51.5 -33t71 -13 q62 0 133 63v623q-28 34 -66 56.5t-73 22.5q-38 0 -68 -12.5t-50 -32t-34.5 -50.5t-22 -60.5t-12 -70.5t-5.5 -72.5t-1 -73.5zM760 172q71 -63 133 -63q40 0 71 13t51.5 33t35.5 53t22.5 64t12 75t5.5 76.5t1 78.5q0 42 -1 73.5t-5.5 72.5t-12 70.5t-22 60.5t-34.5 50.5 t-50 32t-68 12.5q-35 0 -73 -22.5t-66 -56.5v-623z" />
<glyph unicode="&#x445;" horiz-adv-x="909" d="M27 43q0 10 8 18l340 441l-297 420q-8 11 -8 16q0 10 16 16l72 29l24 10q11 7 21.5 3t12.5 -6t7 -9l232 -363l243 363q11 16 25 16q10 0 18 -4l95 -39q13 -5 15 -11t-7 -21l-307 -404l319 -457q8 -11 8 -16q0 -9 -12 -14l-100 -41q-8 -4 -17 -4q-13 0 -24 16l-191 285 q-42 61 -65 108q-16 -24 -74 -108l-201 -287q-8 -12 -15 -14t-28 4l-98 41q-12 4 -12 12z" />
<glyph unicode="&#x446;" horiz-adv-x="1040" d="M170 25v933q0 22 14 25l111 27q8 2 16 2q15 0 15 -19v-866h374v831q0 21 15 25l110 27q8 2 17 2q14 0 14 -19v-866h100q8 0 14 -1.5t9 -3t4.5 -5t2 -5t0 -6.5t-0.5 -6v-376q0 -16 -6.5 -20.5t-17.5 -4.5h-107q-25 0 -25 25v276h-634q-25 0 -25 25z" />
<glyph unicode="&#x447;" horiz-adv-x="962" d="M123 651v307q0 22 14 25l111 27q8 2 16 2q15 0 15 -19v-358q0 -40 16 -69.5t36.5 -43.5t49 -22.5t43.5 -9.5t29 -1q86 0 184 39v430q0 22 14 25l111 27q8 2 16 2q15 0 15 -19v-968q0 -25 -25 -25h-106q-25 0 -25 25v376q-119 -39 -205 -39q-73 0 -141.5 23t-108.5 70 q-59 68 -59 196z" />
<glyph unicode="&#x448;" horiz-adv-x="1372" d="M170 25v933q0 22 14 25l111 27q8 2 16 2q15 0 15 -19v-866h282v831q0 21 15 25l110 27q8 2 17 2q14 0 14 -19v-866h283v831q0 22 14 25l110 27q8 2 17 2q14 0 14 -19v-968q0 -11 -4 -16.5t-8.5 -7t-11.5 -1.5h-983q-25 0 -25 25z" />
<glyph unicode="&#x449;" horiz-adv-x="1386" d="M170 25v933q0 22 14 25l111 27q8 2 16 2q15 0 15 -19v-866h282v831q0 21 15 25l110 27q8 2 17 2q14 0 14 -19v-866h283v831q0 22 14 25l110 27q8 2 17 2q14 0 14 -19v-866h101q10 0 16.5 -1.5t8.5 -5t3 -5.5t0.5 -8t-0.5 -7v-376q0 -16 -6.5 -20.5t-17.5 -4.5h-107 q-11 0 -17.5 4.5t-6.5 20.5v276h-981q-25 0 -25 25z" />
<glyph unicode="&#x44a;" horiz-adv-x="991" d="M1 970.5q4 12.5 24 12.5h364q27 0 27 -31v-356h159q142 0 232 -70q49 -38 77.5 -97.5t28.5 -131.5q0 -151 -108 -231q-89 -66 -246 -66h-274q-25 0 -25 25v821h-211q-27 0 -31 22l-16 80q-5 10 -1 22.5zM416 127h141q84 0 142.5 42t58.5 126q0 81 -52 127.5t-149 46.5 h-141v-342z" />
<glyph unicode="&#x44b;" horiz-adv-x="1261" d="M170 25v933q0 22 14 25l111 27q8 2 16 2q15 0 15 -19v-397h159q142 0 232 -70q47 -36 76.5 -94.5t29.5 -132.5q0 -153 -108 -233q-89 -66 -246 -66h-274q-25 0 -25 25zM326 127h141q84 0 142.5 42t58.5 126q0 81 -52 127.5t-149 46.5h-141v-342zM936 25v933q0 22 14 25 l111 27q8 2 16 2q15 0 15 -17v-970q0 -25 -25 -25h-106q-25 0 -25 25z" />
<glyph unicode="&#x44c;" horiz-adv-x="901" d="M170 25v933q0 22 14 25l111 27q4 2 14 2h2q15 0 15 -19v-397h159q142 0 232 -70q49 -38 77.5 -97.5t28.5 -131.5q0 -151 -108 -231q-89 -66 -246 -66h-274q-25 0 -25 25zM326 127h141q84 0 142.5 42t58.5 126q0 81 -52 127.5t-149 46.5h-141v-342z" />
<glyph unicode="&#x44d;" horiz-adv-x="909" d="M88 76q0 8 2 12l37 82q0 7 10 10h4q10 -2 25 -10q128 -72 225 -72q28 0 56 7t62.5 25.5t63.5 59.5t45 99q16 56 21 153h-313q-25 0 -25 25v78q0 24 27 24h311q0 123 -55 209q-66 107 -187 107q-95 0 -200 -86q-19 -15 -25 -15t-10 9l-49 81q-4 6 -4.5 11t8 16t28.5 25 q120 86 273 86q172 0 276 -125q113 -133 113 -389q0 -178 -62 -310q-54 -112 -139 -164.5t-213 -52.5q-141 0 -276 78q-29 18 -29 27z" />
<glyph unicode="&#x44e;" horiz-adv-x="1382" d="M170 25v933q0 22 14 25l111 27q8 2 16 2q15 0 15 -19v-424h157q4 112 39.5 199.5t91.5 139.5t121.5 78t136.5 26q55 0 108.5 -14.5t108.5 -51.5t96 -94t67 -150t26 -210t-26 -210t-67 -150t-96 -94.5t-108.5 -52t-108.5 -14.5q-53 0 -106 15.5t-105 51.5t-91.5 88.5 t-64 134t-24.5 181.5h-155v-417q0 -25 -25 -25h-106q-25 0 -25 25zM635 492q0 -394 235 -394q47 0 85 17t62.5 42.5t43 63t27.5 71.5t14.5 76t6.5 68.5t1 55.5t-1 55.5t-6.5 68.5t-14.5 76t-27.5 71.5t-43 63t-62.5 42t-85 16.5q-235 0 -235 -393z" />
<glyph unicode="&#x44f;" horiz-adv-x="966" d="M56.5 91.5q-0.5 4.5 2 7.5t3 4.5t6.5 3t7 1.5t9 1l25 4q44 8 59 20q10 9 20 26.5t13 30.5l47 154q25 87 98 121v6q-96 18 -149.5 84.5t-53.5 155.5q0 26 4.5 53t25.5 69t56 73t105 54t164 23h274q25 0 25 -25v-933q0 -25 -25 -25h-106q-25 0 -25 25v395h-111 q-53 0 -83 -19.5t-50 -89.5l-32 -118q-15 -52 -22.5 -75.5t-22 -52.5t-33 -45t-47.5 -28q-48 -21 -125 -21q-25 0 -29 17l-27 92q-2 7 -2.5 11.5zM299 707q0 -67 48 -113.5t153 -46.5h141v309h-141q-201 0 -201 -149z" />
<glyph unicode="&#x451;" horiz-adv-x="956" d="M86 492q0 243 115 381.5t295 138.5q46 0 87 -9t84.5 -29.5t77.5 -58.5t61.5 -92t42.5 -135.5t15 -183.5v-10q0 -21 -5.5 -28t-16.5 -7h-588v-10q0 -86 24.5 -153t66 -107t90.5 -60t102 -20q101 0 225 71q16 8 24 10h5q7 0 10 -10l37 -92q2 -4 2 -12q0 -14 -76 -51 q-118 -54 -232 -54q-64 0 -124 15t-119.5 53t-103.5 95t-71.5 149.5t-27.5 208.5zM201 1288q0 44 32 76.5t76 32.5q45 0 77 -33t32 -76t-32 -75.5t-77 -32.5q-44 0 -76 32t-32 76zM254 586h442q0 98 -32 174q-52 125 -183 125q-92 0 -158 -73.5t-69 -225.5zM604 1288 q0 44 32.5 76.5t76.5 32.5t76 -32.5t32 -76.5t-32 -76t-76 -32t-76.5 32t-32.5 76z" />
<glyph unicode="&#x452;" horiz-adv-x="1062" d="M31 1204v60q0 8 1 12t6.5 8t16.5 4h117v142q0 20 16 24l107 27q8 2 18 2q15 0 15 -27v-168h280q27 0 27 -31v-53q0 -11 -4.5 -17.5t-20.5 -6.5h-282v-308q156 140 311 140q48 0 85.5 -13.5t72.5 -49t58 -93.5t36.5 -151t13.5 -218q0 -98 -14 -215.5t-37 -205.5 q-74 -288 -283 -512q-29 -33 -43 -33q-9 0 -18 6l-53 33q-15 10 -15 22q0 9 21 35q1 2 4 5t4 5q3 4 10.5 11.5t10.5 11.5q27 36 63 90q52 78 92.5 183t59.5 196q30 150 30 366q0 220 -33 304.5t-122 84.5q-64 0 -133.5 -36.5t-120.5 -87.5v-725q0 -25 -25 -25h-106 q-25 0 -25 25v1155h-117q-11 0 -16.5 4t-6.5 8t-1 12z" />
<glyph unicode="&#x453;" horiz-adv-x="757" d="M170 25v927q0 31 27 31h495q20 0 24 -12.5t-1 -22.5l-17 -80q-4 -22 -30 -22h-342v-821q0 -25 -25 -25h-106q-25 0 -25 25zM393 1190q0 10 8 14l306 236q15 10 20 10q10 0 21 -16l59 -88q8 -16 8 -19q0 -4 -2 -7.5t-4.5 -5t-6.5 -4t-5 -3.5l-340 -177q-8 -4 -15 -4 q-5 0 -14 9l-27 39q-8 10 -8 16z" />
<glyph unicode="&#x454;" horiz-adv-x="894" d="M113 469q0 267 125 410q116 133 290 133q137 0 258 -86q45 -32 33 -52l-49 -92q-4 -8 -10 -8q-8 0 -25 14q-59 46 -102 66t-98 20q-145 0 -207 -120q-42 -78 -45 -185h309q26 0 26 -24v-78q0 -25 -24 -25h-313q2 -60 18 -141q22 -91 72.5 -141.5t144.5 -50.5q95 0 225 71 q15 8 25 10h4q8 0 10 -10l37 -92q2 -4 2 -12q0 -14 -76 -51q-113 -54 -225 -54q-181 0 -285 111q-120 127 -120 387z" />
<glyph unicode="&#x455;" horiz-adv-x="796" d="M72 70q0 12 2 14l39 82q3 10 12 10h6q3 0 55 -24q40 -20 97.5 -34t103.5 -14q80 0 124 40.5t44 107.5q0 21 -5.5 39t-11.5 30.5t-24 28t-27 23t-39 22.5t-41 20t-49 23t-56 26.5t-51.5 27.5t-50 32.5t-39.5 37t-33.5 46.5t-19 55t-8.5 68q0 124 83.5 202.5t217.5 78.5 q62 0 144 -21q61 -16 106 -41q29 -16 19 -37l-35 -75q-6 -15 -21 -15q-8 2 -17.5 7t-12.5 6q-94 43 -170 43q-79 0 -118.5 -39t-39.5 -99q0 -29 10.5 -53.5t24.5 -41t45 -35.5t52 -29t67 -31q37 -17 54.5 -25t50.5 -26.5t49.5 -32.5t39.5 -37t34 -47t19.5 -56.5t8.5 -70.5 q0 -91 -48.5 -157.5t-121.5 -97t-158 -30.5q-74 0 -152.5 21.5t-124.5 44.5l-8 5q-7 4 -11.5 7.5t-9.5 9t-5 11.5z" />
<glyph unicode="&#x456;" horiz-adv-x="571" d="M49 881v77q0 25 25 25h288q27 0 27 -31v-927q0 -11 -4 -16.5t-8.5 -7t-11.5 -1.5h-107q-25 0 -25 25v831h-159q-25 0 -25 25zM174 1343q0 54 36.5 90.5t90.5 36.5t90.5 -36.5t36.5 -90.5t-36.5 -90t-90.5 -36t-90.5 36t-36.5 90z" />
<glyph unicode="&#x457;" horiz-adv-x="571" d="M18 1288q0 50 34 79.5t75 29.5q45 0 77 -33t32 -76t-32 -75.5t-77 -32.5q-41 0 -75 29t-34 79zM49 881v77q0 25 25 25h288q27 0 27 -31v-927q0 -11 -4 -16.5t-8.5 -7t-11.5 -1.5h-107q-25 0 -25 25v831h-159q-25 0 -25 25zM338 1288q0 44 32 76.5t76 32.5t76.5 -32.5 t32.5 -76.5t-32.5 -76t-76.5 -32t-76 32t-32 76z" />
<glyph unicode="&#x458;" horiz-adv-x="571" d="M-158 -334l39 86q5 10 17 10h2q5 0 11.5 -3t21 -10t30.5 -13q74 -29 129 -29q30 0 53 6.5t37.5 17.5t25 26.5t15.5 33.5t8 38t2.5 40t-0.5 39v20v928h-161q-25 0 -25 25v77q0 25 25 25h290q27 0 27 -31v-1061q0 -36 -4 -70t-22 -82.5t-47.5 -83.5t-87 -60t-134.5 -25 q-124 0 -229 51q-34 17 -23 45zM174 1343q0 54 36.5 90.5t90.5 36.5t90.5 -36.5t36.5 -90.5t-36.5 -90t-90.5 -36t-90.5 36t-36.5 90z" />
<glyph unicode="&#x459;" horiz-adv-x="1378" d="M9 85q0 5 0.5 8t3.5 6l4 4t6 2.5t6 2t7 0.5l5 1l18 2q16 2 29 5t34 14.5t37 30t32.5 53t25.5 81.5q31 157 31 596v63q0 18 4.5 23.5t23.5 5.5h500q27 0 27 -31v-356h160q141 0 231 -70q49 -38 77.5 -97.5t28.5 -131.5q0 -151 -108 -231q-89 -66 -246 -66h-274 q-25 0 -25 25v831h-252v-27q0 -94 -9 -246t-17 -233q-5 -54 -14.5 -96.5t-28.5 -95t-56 -94t-88 -66.5q-45 -23 -116 -27h-13q-18 2 -22 23l-21 80q-1 6 -1 11zM803 127h141q84 0 142.5 42t58.5 126q0 81 -52 127.5t-149 46.5h-141v-342z" />
<glyph unicode="&#x45a;" horiz-adv-x="1452" d="M170 25v933q0 22 14 25l111 27q8 2 16 2q15 0 15 -19v-397h395v362q0 22 14 25l111 27q8 2 16 2q15 0 15 -19v-397h159q142 0 232 -70q49 -38 77.5 -97.5t28.5 -131.5q0 -151 -108 -231q-89 -66 -246 -66h-275q-7 0 -11.5 1.5t-8.5 7t-4 16.5v444h-395v-444 q0 -25 -25 -25h-106q-25 0 -25 25zM877 127h141q84 0 142.5 42t58.5 126q0 81 -52 127.5t-149 46.5h-141v-342z" />
<glyph unicode="&#x45b;" horiz-adv-x="1062" d="M31 1204v60q0 8 1 12t6.5 8t16.5 4h117v142q0 20 16 24l107 27q8 2 18 2q15 0 15 -27v-168h280q27 0 27 -31v-53q0 -11 -4.5 -17.5t-20.5 -6.5h-282v-308q159 140 325 140q50 0 89.5 -12t64 -29t42.5 -46.5t26 -52t12.5 -60t5 -55.5t0.5 -52v-680q0 -25 -25 -25h-106 q-25 0 -25 25v684q0 23 -0.5 36.5t-8 41t-20.5 44t-41.5 30t-68.5 13.5q-79 0 -150.5 -39t-119.5 -85v-725q0 -25 -25 -25h-106q-25 0 -25 25v1155h-117q-11 0 -16.5 4t-6.5 8t-1 12z" />
<glyph unicode="&#x45c;" horiz-adv-x="944" d="M170 16v942q0 22 14 25l41 10l70 17q4 2 14 2h2q5 0 10 -4.5t5 -12.5v-2v-420h88q55 0 84 26.5t43 84.5l26 107q17 72 47.5 123.5t90.5 76.5q57 21 102 21q22 0 27 -17l22 -92q3 -5 1 -9.5t-2.5 -6.5t-5.5 -4t-6.5 -2t-7 -1t-6.5 -1l-28 -5q-47 -8 -64 -32 q-13 -20 -30 -80l-23 -82q-33 -131 -135 -162q103 -28 135 -131l64 -197q16 -44 32 -57q15 -12 60 -20l24 -4q24 -3 26 -11q3 -6 -1 -18l-27 -92q-4 -17 -28 -17q-77 0 -125 21q-12 5 -23 12t-19.5 13t-16.5 16.5t-13.5 16.5t-11.5 20.5t-9 20.5t-9 24t-7.5 24t-7.5 27 t-8 27l-41 145q-19 67 -47.5 87.5t-79.5 20.5h-90v-430q0 -16 -23 -16h-110q-23 0 -23 16zM434 1190q0 10 8 14l306 236q15 10 20 10q9 0 20 -16l60 -88q8 -16 8 -19q0 -4 -2 -7.5t-4.5 -5t-6.5 -4t-5 -3.5l-340 -177q-8 -4 -15 -4q-5 0 -14 9l-27 39q-8 10 -8 16z" />
<glyph unicode="&#x45e;" horiz-adv-x="911" d="M4 -315l41 82q5 10 14 10q5 0 10 -2.5t13.5 -9t13.5 -9.5q88 -59 158 -59q36 0 63 18q56 38 95 156l43 129h-74q-21 0 -27 18l-321 904q-8 23 12 30l78 31l18 8q18 6 25 6q15 0 20 -16l258 -774q21 -63 39 -139l2 -9h4q4 35 31 144l205 778q3 16 20 16q13 0 21 -4 l100 -41q11 -5 13 -12q3 -7 -2 -27l-252 -837q-83 -275 -125 -357q-29 -57 -75 -92.5t-85.5 -46t-81.5 -10.5q-52 0 -108 16q-61 17 -132 60q-24 14 -14 39zM207 1352q0 26 22 30l84 15h11q8 0 12 -11l6 -24q31 -127 129 -127t129 127l6 24q1 7 8.5 10t14.5 1l84 -15 q22 -4 22 -30q0 -2 -1 -6.5t-1 -6.5q-11 -52 -40.5 -101t-78.5 -77q-60 -35 -143 -35t-143 35q-49 28 -78.5 77t-40.5 101q0 2 -1 6.5t-1 6.5z" />
<glyph unicode="&#x45f;" horiz-adv-x="1032" d="M170 25v933q0 22 14 25l111 27q8 2 16 2q15 0 15 -19v-866h381v831q0 22 14 25l110 27q8 2 17 2q14 0 14 -19v-968q0 -25 -24 -25h-244v-276q0 -25 -25 -25h-106q-25 0 -25 25v276h-243q-25 0 -25 25z" />
<glyph unicode="&#x490;" horiz-adv-x="907" d="M195 25v1353q0 25 24 25h483v293q0 7 1.5 11.5t7 8.5t16.5 4h119q11 0 16.5 -4t6.5 -8t1 -12v-400q0 -3 0.5 -11t0 -9.5t-2.5 -6.5t-6.5 -5.5t-12.5 -2t-20 -1.5h-467v-1235q0 -25 -24 -25h-119q-24 0 -24 25z" />
<glyph unicode="&#x491;" horiz-adv-x="757" d="M170 25v927q0 31 27 31h364v277q0 11 4.5 17.5t20.5 6.5h106q16 0 20.5 -6.5t4.5 -17.5v-388v-5v-5.5t-0.5 -4.5t-2.5 -4.5t-5 -3.5t-8.5 -2.5t-12.5 -0.5h-362v-821q0 -25 -25 -25h-106q-25 0 -25 25z" />
<glyph unicode="&#x2000;" horiz-adv-x="902" />
<glyph unicode="&#x2001;" horiz-adv-x="1804" />
<glyph unicode="&#x2002;" horiz-adv-x="902" />
<glyph unicode="&#x2003;" horiz-adv-x="1804" />
<glyph unicode="&#x2004;" horiz-adv-x="601" />
<glyph unicode="&#x2005;" horiz-adv-x="451" />
<glyph unicode="&#x2006;" horiz-adv-x="300" />
<glyph unicode="&#x2007;" horiz-adv-x="300" />
<glyph unicode="&#x2008;" horiz-adv-x="225" />
<glyph unicode="&#x2009;" horiz-adv-x="360" />
<glyph unicode="&#x200a;" horiz-adv-x="100" />
<glyph unicode="&#x2010;" horiz-adv-x="720" d="M104 463v104q0 25 25 25h463q24 0 24 -25v-104q0 -25 -24 -25h-463q-25 0 -25 25z" />
<glyph unicode="&#x2011;" horiz-adv-x="720" d="M104 463v104q0 25 25 25h463q24 0 24 -25v-104q0 -25 -24 -25h-463q-25 0 -25 25z" />
<glyph unicode="&#x2012;" horiz-adv-x="720" d="M104 463v104q0 25 25 25h463q24 0 24 -25v-104q0 -25 -24 -25h-463q-25 0 -25 25z" />
<glyph unicode="&#x2013;" horiz-adv-x="1138" d="M102 479v86q0 12 4.5 18.5t9 7.5t11.5 1h883q7 0 11 -1t8.5 -7.5t4.5 -18.5v-86q0 -8 -1 -12t-6.5 -8t-16.5 -4h-883q-25 0 -25 24z" />
<glyph unicode="&#x2014;" horiz-adv-x="2048" d="M102 479v88q0 25 25 25h1792q25 0 25 -25v-88q0 -24 -25 -24h-1792q-25 0 -25 24z" />
<glyph unicode="&#x2018;" horiz-adv-x="378" d="M10 997q0 5 8 21l236 432q9 14 12 16q2 2 8 2q5 0 17 -4l53 -18q14 -4 14 -14q0 -7 -4 -19l-121 -407q0 -1 -1 -3l-1.5 -3t-1.5 -3.5t-1.5 -3t-2 -2.5t-3 -3t-3.5 -2t-4.5 -1.5t-5.5 -1t-6 -0.5h-170q-23 0 -23 14z" />
<glyph unicode="&#x2019;" horiz-adv-x="378" d="M20 1020q0 3 5 18l120 408q3 7 5 10.5t8.5 7.5t17.5 4h170q23 0 23 -14q0 -2 -9 -20l-235 -433q-9 -14 -12 -16q-2 -2 -9 -2q-4 0 -16 4l-53 19q-15 4 -15 14z" />
<glyph unicode="&#x201c;" horiz-adv-x="833" d="M86 997q0 5 8 21l236 432q9 14 12 16q2 2 8 2q5 0 17 -4l53 -18q14 -4 14 -14q0 -7 -4 -19l-121 -407q0 -1 -1 -3l-1.5 -3t-1.5 -3.5t-1.5 -3t-2 -2.5t-3 -3t-3.5 -2t-4.5 -1.5t-5.5 -1t-6 -0.5h-170q-23 0 -23 14zM446 997q0 3 9 21l235 432q9 14 12 16q2 2 9 2 q4 0 16 -4l53 -18q15 -4 15 -14q0 -7 -4 -19l-121 -407q-9 -23 -31 -23h-170q-23 0 -23 14z" />
<glyph unicode="&#x201d;" horiz-adv-x="843" d="M119 1020q0 6 4 18l121 408q3 8 4.5 11t8 7t17.5 4h170q23 0 23 -14q0 -4 -8 -20l-236 -433q-9 -14 -12 -16q-2 -2 -8 -2q-5 0 -17 4l-53 19q-14 4 -14 14zM479 1020q0 6 4 18l121 408q3 7 5 10.5t8.5 7.5t17.5 4h170q22 0 22 -14q0 -4 -8 -20l-235 -433q-8 -14 -13 -16 q-2 -2 -8 -2q-4 0 -16 4l-53 19q-15 4 -15 14z" />
<glyph unicode="&#x201e;" horiz-adv-x="833" d="M72 -215q0 6 4 18l121 408q3 8 4.5 11t8 7t17.5 4h170q23 0 23 -14q0 -4 -8 -20l-236 -432q-9 -16 -12 -17q-2 -2 -8 -2q-5 0 -17 4l-53 19q-14 3 -14 14zM432 -215q0 6 4 18l121 408q3 7 5 10.5t8.5 7.5t17.5 4h170q22 0 22 -14q0 -4 -8 -20l-235 -432q-9 -15 -13 -17 q-2 -2 -8 -2q-4 0 -16 4l-54 19q-14 3 -14 14z" />
<glyph unicode="&#x2022;" d="M141 737q0 154 108.5 263.5t262.5 109.5t262.5 -109.5t108.5 -263.5q0 -153 -108.5 -260.5t-262.5 -107.5t-262.5 107.5t-108.5 260.5z" />
<glyph unicode="&#x2026;" horiz-adv-x="2048" d="M209 137q0 59 39.5 98t97.5 39t97.5 -39t39.5 -98t-39.5 -98t-97.5 -39t-97.5 39t-39.5 98zM887 137q0 59 39.5 98t97.5 39t97.5 -39t39.5 -98t-39.5 -98t-97.5 -39t-97.5 39t-39.5 98zM1565 137q0 59 39.5 98t97.5 39t97.5 -39t39.5 -98t-39.5 -98t-97.5 -39t-97.5 39 t-39.5 98z" />
<glyph unicode="&#x202f;" horiz-adv-x="360" />
<glyph unicode="&#x205f;" horiz-adv-x="451" />
<glyph unicode="&#x20ac;" d="M53 520q0 2 1 4.5t1 3.5l8 35q7 33 33 33h99v135h-121q-21 0 -21 14q0 1 1 3.5t1 3.5l8 36q6 33 31 33h105q2 123 38.5 224t96 166t135 100t156.5 35q78 0 182 -34.5t104 -82.5q0 -5 -6 -23l-24 -67q-9 -17 -21 -17q-4 0 -43 20t-92.5 40t-91.5 20q-32 0 -62.5 -7.5 t-67 -32t-64 -64.5t-48 -111.5t-24.5 -165.5h405q27 0 27 -14q0 -2 -1 -5.5t-1 -4.5l-11 -43q-7 -23 -28 -23h-396v-135h355q24 0 24 -12q0 -2 -1 -6.5t-1 -6.5l-10 -43q-6 -22 -29 -22h-333q4 -43 11.5 -87t27.5 -101.5t47 -100t73.5 -72.5t104.5 -30q43 0 96 26t89 52 t40 26q12 0 23 -16l41 -58q12 -16 12 -26q0 -35 -36.5 -65t-88.5 -47t-101.5 -26.5t-82.5 -9.5q-105 0 -197 52t-152 172q-69 137 -75 311h-123q-23 0 -23 14z" />
<glyph unicode="&#x2122;" horiz-adv-x="1294" d="M20 1235v55q0 21 14 25q5 2 13 2h479q25 0 17 -25l-19 -63q-2 -6 -3.5 -8.5t-4.5 -6t-9 -5t-15 -1.5h-156v-661q0 -13 -5.5 -19.5t-9 -7t-12.5 -0.5h-65q-13 0 -19.5 5.5t-7 9t-0.5 12.5v661h-170q-13 0 -19.5 5.5t-7 9t-0.5 12.5zM629 547l37 743q1 14 5 20t7.5 6.5 t13.5 0.5h78q7 0 12 -3t6.5 -6t3.5 -9t3 -7l147 -399h6l142 397q6 16 11 21.5t15 5.5h80q9 0 14.5 -1t8 -4t3 -5t1 -8t0.5 -9l51 -743q1 -12 -4 -18.5t-9.5 -7.5t-13.5 -1h-73q-9 0 -13 0.5t-9 7t-5 19.5l-19 547h-6l-133 -373q-12 -19 -18 -21h-53q-13 0 -21 23l-135 371 h-6l-8 -547q0 -13 -5 -19.5t-9 -7t-13 -0.5h-66q-8 0 -13 1t-9.5 7.5t-3.5 18.5z" />
<glyph unicode="&#x221a;" horiz-adv-x="989" d="M31 895v59q0 17 5.5 23t22.5 6h168q16 0 26 -1.5t14.5 -6.5t6 -7.5t3 -12t2.5 -13.5l213 -764h6l342 1221q0 2 2.5 15.5t5 15.5t13 6t30.5 4h39q18 0 24.5 -8.5t3.5 -20.5l-413 -1487q-5 -17 -10.5 -25t-9 -9t-13.5 -1h-63q-16 0 -22 10q-5 9 -9 25l-262 942h-97 q-17 0 -22.5 6t-5.5 23z" />
<glyph unicode="&#x221e;" horiz-adv-x="1720" d="M102 596q0 147 99 239.5t256 92.5q60 0 109.5 -13.5t97 -44.5t83 -62t89.5 -85l24 -25l25 25q54 54 89.5 85t83 62t97 44.5t109.5 13.5q157 0 255.5 -92t98.5 -240q0 -154 -99.5 -243t-242.5 -89q-80 0 -152 29t-121.5 68.5t-117.5 107.5l-25 25l-24 -25 q-103 -103 -190 -154t-202 -51q-143 0 -242.5 89t-99.5 243zM225 596q0 -93 66 -154t162 -61q79 0 144 38t144 116l64 61l-64 61q-73 71 -108 95q-85 59 -176 59q-101 0 -166.5 -61t-65.5 -154zM915 596l64 -61q79 -77 144 -115.5t145 -38.5q96 0 161.5 61t65.5 154t-65 154 t-166 61q-45 0 -86.5 -13t-77 -37.5t-58.5 -44.5t-52 -48q-7 -8 -11 -11z" />
<glyph unicode="&#x2248;" horiz-adv-x="1058" d="M61 299q0 10 17 37q112 170 268 170q43 0 85.5 -12.5t63 -22.5t60.5 -33q83 -47 109 -54q24 -7 53 -7q97 0 164 96q13 20 25.5 20.5t19.5 -8.5l57 -34q1 -1 4.5 -2.5t5 -2.5t3 -3.5t1.5 -6.5q0 -12 -14 -33q-24 -38 -46 -64.5t-54.5 -54t-75 -41.5t-94.5 -14 q-54 0 -95.5 14t-91.5 44q-40 24 -59 35t-53 22.5t-66 11.5q-106 0 -172 -98q-8 -13 -17.5 -16t-13 -1.5t-12.5 7.5l-57 35q-1 1 -4.5 2.5t-5.5 2.5t-3.5 4t-1.5 7zM61 604q0 10 17 37q112 170 268 170q43 0 85.5 -12.5t63 -22.5t60.5 -33q83 -47 109 -54q24 -7 53 -7 q97 0 164 96q6 9 10.5 14t9.5 5h7.5t9 -4t8.5 -5l57 -32q1 -1 4.5 -2.5t5 -2.5t3 -3.5t1.5 -6.5q0 -11 -14 -32q-24 -38 -46 -64.5t-54.5 -54t-75 -41.5t-94.5 -14q-55 0 -96.5 14t-90.5 43q-42 26 -59.5 35.5t-52 22t-66.5 12.5q-106 0 -172 -99q-8 -13 -17.5 -16t-13 -1.5 t-12.5 7.5l-57 35l-5 2.5l-5 2.5t-3.5 4t-1.5 7z" />
<glyph unicode="&#x2260;" horiz-adv-x="1003" d="M45 330v98q0 25 25 25h317l94 133h-411q-25 0 -25 24v99q0 11 4.5 17.5t20.5 6.5h514l129 185q13 19 32 6l70 -47q19 -13 6 -33l-78 -111h209q16 0 20.5 -6.5t4.5 -17.5v-99q0 -24 -25 -24h-311l-94 -133h405q25 0 25 -25v-98q0 -25 -25 -25h-508l-131 -186 q-13 -19 -32 -6l-70 47q-19 13 -6 33l80 112h-215q-25 0 -25 25z" />
<glyph unicode="&#x2264;" d="M49 608v78q0 24 23 33l827 299q12 6 25 6q12 0 18 -20l33 -95l4 -16q0 -15 -18 -19l-660 -235v-4l660 -234q18 -6 18 -20q0 -2 -4 -14l-23 -76q-5 -21 -18 -21q-7 0 -25 6l-837 299q-23 9 -23 33zM55 369q0 1 0.5 2.5t1.5 5t2 6.5l27 76q3 8 4 11t4.5 6t9.5 3q10 0 25 -6 l832 -293q18 -6 18 -20q0 -1 -0.5 -3t-1.5 -5.5t-2 -6.5l-27 -75q-6 -19 -13 -20q-2 -1 -5 -1q-10 0 -25 6l-831 293q-19 6 -19 21z" />
<glyph unicode="&#x2265;" d="M49 160q0 14 19 20l831 293q15 6 25 6q6 0 9.5 -3t4.5 -6t4 -11l27 -76q1 -3 2 -6.5t1.5 -5t0.5 -2.5q0 -15 -19 -21l-831 -293q-15 -6 -25 -6q-4 0 -7 1t-5 5.5t-3 6t-3 8.5l-27 75q-1 3 -2 6.5t-1.5 5.5t-0.5 3zM49 381q0 14 19 20l659 234v4l-659 235q-19 5 -19 19 l4 16l33 95q6 20 18 20q13 0 25 -6l827 -299q23 -9 23 -33v-78q0 -24 -23 -33l-837 -299q-15 -6 -25 -6q-13 0 -18 21l-23 76q-4 12 -4 14z" />
<glyph unicode="&#xe000;" horiz-adv-x="993" d="M0 0v993h993v-993h-993z" />
</font>
</defs>
</svg>
